<svg width="16" height="20" viewBox="0 0 16 20" fill="none" xmlns="http://www.w3.org/2000/svg">
<path d="M3.92088 0H13.1509C13.8179 0 14.4869 0.109 14.9539 0.593C15.4139 1.071 15.5009 1.733 15.5009 2.35V14.15C15.5009 14.693 15.4289 15.227 15.1509 15.659C14.9905 15.9082 14.766 16.1096 14.5009 16.242V17.15C14.5009 17.816 14.3929 18.485 13.9099 18.952C13.4319 19.414 12.7699 19.5 12.1529 19.5H1.50088C1.10306 19.5 0.721526 19.342 0.440221 19.0607C0.158917 18.7794 0.000881458 18.3978 0.000881458 18V3.767C-0.00211854 3.269 -0.00511843 2.647 0.130882 2.08C0.297882 1.388 0.682881 0.717 1.50188 0.3C1.83988 0.128 2.19588 0.06 2.57588 0.03C2.94088 -2.79397e-08 3.38588 0 3.92088 0ZM1.50088 18H12.1529C12.6999 18 12.8359 17.904 12.8669 17.874C12.8919 17.85 13.0009 17.719 13.0009 17.15V16.5H3.00088C2.60306 16.5 2.22153 16.658 1.94022 16.9393C1.65892 17.2206 1.50088 17.6022 1.50088 18Z" fill="white"/>
</svg>
