<svg width="26" height="20" viewBox="0 0 26 20" fill="none" xmlns="http://www.w3.org/2000/svg">
<path d="M11.4285 14.2856C11.4285 17.4416 8.87014 20 5.71425 20C2.55836 20 0 17.4416 0 14.2856C0 11.1297 2.55836 8.57129 5.71425 8.57129C8.87014 8.57129 11.4285 11.1297 11.4285 14.2856ZM3.18638 14.2856C3.18638 15.6817 4.31815 16.8135 5.71425 16.8135C7.11035 16.8135 8.24211 15.6817 8.24211 14.2856C8.24211 12.8895 7.11035 11.7577 5.71425 11.7577C4.31815 11.7577 3.18638 12.8895 3.18638 14.2856Z" fill="white"/>
<ellipse cx="21.7142" cy="16.5712" rx="3.42855" ry="3.4286" fill="white"/>
<path d="M21.1428 10.2858C19.3142 9.82864 16.5714 12.381 15.4285 13.7144L9.71431 6.28579V4.00003H5.14288C2.40004 2.62859 4.00003 0.761911 5.14288 0H13.1428C15.4285 0 14.8571 2.66669 14.2857 4.00003C14.2857 5.71434 14.7428 8.80009 16.5714 7.42865C18.3999 6.05721 20.3809 6.09531 21.1428 6.28579C23.4285 7.42865 23.4285 10.2858 21.1428 10.2858Z" fill="white"/>
</svg>
