<svg width="25" height="13" viewBox="0 0 25 13" fill="none" xmlns="http://www.w3.org/2000/svg">
<path d="M14.0145 10.2597H11.5669C10.9847 10.2597 10.5021 9.81899 10.2974 9.27391C9.89388 8.19931 8.99185 6.9766 7.2848 6.9766C6.05503 6.9766 5.24305 7.61117 4.73427 8.36777C4.08446 9.33411 3.14777 10.2597 1.98328 10.2597L1.15384 10.2597C0.516592 10.2597 0 9.7431 0 9.10585V6.41158C0 5.13708 1.03319 4.10389 2.30769 4.10389H3.69796C4.44353 4.10389 5.10823 3.63415 5.35714 2.93135C5.97943 1.17436 7.64117 1.46063e-05 9.50511 1.46063e-05H13.5846C15.123 1.46063e-05 16.5977 0.614471 17.681 1.70684L19.3811 3.42116C19.8144 3.85811 20.4043 4.10389 21.0197 4.10389H22.6923C23.9668 4.10389 25 5.13708 25 6.41158V9.10585C25 9.7431 24.4834 10.2597 23.8462 10.2597L22.5787 10.2597C21.9965 10.2597 21.5139 9.81899 21.3092 9.2739C20.9057 8.1993 20.0036 6.9766 18.2966 6.9766C16.5895 6.9766 15.6875 8.19931 15.284 9.27391C15.0793 9.81899 14.5967 10.2597 14.0145 10.2597Z" fill="white"/>
<ellipse cx="7.26748" cy="10.2601" rx="2.32558" ry="2.32553" fill="white"/>
<ellipse cx="18.3139" cy="10.2601" rx="2.32558" ry="2.32553" fill="white"/>
</svg>
