<svg width="2015" height="540" viewBox="0 0 2015 540" fill="none" xmlns="http://www.w3.org/2000/svg">
<rect width="2015" height="540" fill="url(#paint0_linear_41_34)"/>
<rect x="1566.05" y="397.565" width="380.668" height="376.689" rx="81.9022" transform="rotate(163.709 1566.05 397.565)" fill="#254989"/>
<g filter="url(#filter0_d_41_34)">
<rect x="1180.95" y="159.824" width="270.551" height="267.723" rx="65.988" transform="rotate(-9.28438 1180.95 159.824)" fill="url(#paint1_linear_41_34)"/>
</g>
<rect x="1243.96" y="181.309" width="184.737" height="182.806" rx="45.0579" fill="url(#paint2_linear_41_34)"/>
<path d="M411.389 256.438L421.676 288.775H422.071L432.379 256.438H442.354L427.682 299H416.085L401.392 256.438H411.389ZM451.699 299.603C449.663 299.603 447.848 299.249 446.254 298.543C444.661 297.822 443.4 296.762 442.472 295.363C441.558 293.95 441.1 292.19 441.1 290.084C441.1 288.311 441.426 286.822 442.077 285.616C442.728 284.411 443.615 283.441 444.737 282.707C445.86 281.973 447.134 281.418 448.561 281.044C450.002 280.67 451.512 280.407 453.092 280.255C454.948 280.061 456.445 279.88 457.581 279.714C458.717 279.534 459.541 279.271 460.054 278.924C460.566 278.578 460.823 278.065 460.823 277.387V277.262C460.823 275.946 460.407 274.927 459.576 274.207C458.758 273.486 457.595 273.126 456.084 273.126C454.491 273.126 453.223 273.48 452.281 274.186C451.339 274.879 450.716 275.752 450.411 276.805L442.223 276.14C442.638 274.2 443.456 272.524 444.675 271.11C445.894 269.683 447.467 268.589 449.392 267.827C451.332 267.051 453.577 266.663 456.126 266.663C457.899 266.663 459.597 266.871 461.218 267.286C462.852 267.702 464.3 268.346 465.561 269.219C466.836 270.092 467.84 271.214 468.574 272.586C469.309 273.944 469.676 275.572 469.676 277.47V299H461.28V294.573H461.03C460.518 295.571 459.832 296.451 458.973 297.213C458.114 297.961 457.082 298.55 455.877 298.979C454.671 299.395 453.279 299.603 451.699 299.603ZM454.235 293.493C455.537 293.493 456.687 293.236 457.685 292.724C458.682 292.197 459.465 291.491 460.033 290.604C460.601 289.717 460.885 288.713 460.885 287.591V284.203C460.608 284.383 460.227 284.549 459.742 284.702C459.271 284.84 458.738 284.972 458.142 285.097C457.546 285.208 456.95 285.311 456.355 285.408C455.759 285.492 455.218 285.568 454.733 285.637C453.694 285.789 452.787 286.032 452.011 286.364C451.235 286.697 450.632 287.147 450.203 287.715C449.773 288.269 449.559 288.962 449.559 289.794C449.559 290.999 449.995 291.92 450.868 292.558C451.755 293.181 452.877 293.493 454.235 293.493ZM496.468 310.971V293.888H496.198C495.782 294.774 495.193 295.654 494.431 296.527C493.683 297.386 492.706 298.099 491.501 298.667C490.309 299.236 488.855 299.52 487.137 299.52C484.712 299.52 482.516 298.896 480.549 297.649C478.595 296.388 477.043 294.539 475.893 292.1C474.757 289.648 474.189 286.642 474.189 283.081C474.189 279.423 474.778 276.382 475.956 273.958C477.133 271.519 478.699 269.697 480.653 268.492C482.62 267.273 484.774 266.663 487.116 266.663C488.903 266.663 490.392 266.968 491.584 267.577C492.789 268.173 493.759 268.921 494.493 269.822C495.242 270.709 495.81 271.581 496.198 272.44H496.572V267.079H505.3V310.971H496.468ZM489.942 292.474C491.369 292.474 492.575 292.086 493.558 291.311C494.556 290.521 495.318 289.419 495.844 288.006C496.385 286.593 496.655 284.937 496.655 283.039C496.655 281.141 496.392 279.493 495.865 278.093C495.339 276.694 494.577 275.613 493.579 274.851C492.582 274.089 491.369 273.708 489.942 273.708C488.487 273.708 487.261 274.103 486.264 274.893C485.266 275.682 484.511 276.777 483.998 278.176C483.486 279.576 483.23 281.197 483.23 283.039C483.23 284.896 483.486 286.538 483.998 287.965C484.525 289.378 485.28 290.486 486.264 291.29C487.261 292.08 488.487 292.474 489.942 292.474ZM528.216 267.079V273.729H508.993V267.079H528.216ZM513.357 259.431H522.21V289.191C522.21 290.008 522.335 290.646 522.584 291.103C522.834 291.546 523.18 291.858 523.623 292.038C524.081 292.218 524.607 292.308 525.203 292.308C525.618 292.308 526.034 292.274 526.45 292.204C526.865 292.121 527.184 292.059 527.406 292.017L528.798 298.605C528.355 298.744 527.731 298.903 526.928 299.083C526.124 299.277 525.147 299.395 523.997 299.436C521.864 299.52 519.993 299.236 518.386 298.584C516.793 297.933 515.553 296.922 514.666 295.55C513.78 294.179 513.343 292.447 513.357 290.355V259.431ZM532.813 299V267.079H541.666V299H532.813ZM537.26 262.964C535.944 262.964 534.815 262.527 533.873 261.655C532.944 260.768 532.48 259.708 532.48 258.475C532.48 257.256 532.944 256.21 533.873 255.337C534.815 254.45 535.944 254.007 537.26 254.007C538.576 254.007 539.699 254.45 540.627 255.337C541.569 256.21 542.04 257.256 542.04 258.475C542.04 259.708 541.569 260.768 540.627 261.655C539.699 262.527 538.576 262.964 537.26 262.964ZM556.441 280.545V299H547.587V267.079H556.025V272.711H556.399C557.106 270.854 558.29 269.385 559.953 268.305C561.615 267.21 563.631 266.663 566 266.663C568.217 266.663 570.15 267.148 571.799 268.118C573.447 269.088 574.729 270.473 575.643 272.274C576.558 274.061 577.015 276.195 577.015 278.675V299H568.162V280.255C568.176 278.301 567.677 276.777 566.665 275.682C565.654 274.574 564.262 274.02 562.488 274.02C561.297 274.02 560.244 274.276 559.329 274.789C558.429 275.301 557.722 276.05 557.21 277.033C556.711 278.003 556.454 279.174 556.441 280.545ZM597.245 299.623C593.975 299.623 591.163 298.931 588.807 297.545C586.466 296.146 584.665 294.206 583.404 291.726C582.157 289.246 581.534 286.392 581.534 283.164C581.534 279.894 582.164 277.026 583.425 274.56C584.699 272.08 586.507 270.147 588.849 268.762C591.19 267.363 593.975 266.663 597.203 266.663C599.988 266.663 602.427 267.169 604.519 268.18C606.611 269.191 608.266 270.612 609.486 272.44C610.705 274.269 611.377 276.417 611.501 278.883H603.147C602.911 277.29 602.288 276.008 601.277 275.038C600.279 274.055 598.97 273.563 597.349 273.563C595.977 273.563 594.779 273.937 593.754 274.685C592.742 275.419 591.952 276.493 591.384 277.906C590.816 279.319 590.532 281.03 590.532 283.039C590.532 285.076 590.809 286.808 591.364 288.235C591.932 289.662 592.728 290.749 593.754 291.498C594.779 292.246 595.977 292.62 597.349 292.62C598.36 292.62 599.268 292.412 600.071 291.996C600.889 291.581 601.561 290.978 602.087 290.188C602.627 289.385 602.981 288.422 603.147 287.3H611.501C611.363 289.738 610.698 291.886 609.506 293.742C608.329 295.585 606.701 297.026 604.623 298.065C602.544 299.104 600.085 299.623 597.245 299.623ZM624.853 280.545V299H615.999V256.438H624.603V272.711H624.977C625.698 270.826 626.861 269.351 628.469 268.284C630.076 267.203 632.092 266.663 634.516 266.663C636.733 266.663 638.666 267.148 640.314 268.118C641.977 269.074 643.265 270.452 644.18 272.253C645.108 274.041 645.565 276.181 645.552 278.675V299H636.698V280.255C636.712 278.287 636.213 276.756 635.202 275.662C634.204 274.567 632.805 274.02 631.004 274.02C629.799 274.02 628.732 274.276 627.804 274.789C626.889 275.301 626.169 276.05 625.642 277.033C625.13 278.003 624.866 279.174 624.853 280.545ZM660.451 299.603C658.414 299.603 656.599 299.249 655.006 298.543C653.413 297.822 652.152 296.762 651.224 295.363C650.309 293.95 649.852 292.19 649.852 290.084C649.852 288.311 650.178 286.822 650.829 285.616C651.48 284.411 652.367 283.441 653.489 282.707C654.611 281.973 655.886 281.418 657.313 281.044C658.754 280.67 660.264 280.407 661.843 280.255C663.7 280.061 665.196 279.88 666.332 279.714C667.468 279.534 668.293 279.271 668.805 278.924C669.318 278.578 669.574 278.065 669.574 277.387V277.262C669.574 275.946 669.159 274.927 668.327 274.207C667.51 273.486 666.346 273.126 664.836 273.126C663.243 273.126 661.975 273.48 661.033 274.186C660.091 274.879 659.467 275.752 659.162 276.805L650.974 276.14C651.39 274.2 652.207 272.524 653.426 271.11C654.646 269.683 656.218 268.589 658.144 267.827C660.084 267.051 662.328 266.663 664.877 266.663C666.651 266.663 668.348 266.871 669.969 267.286C671.604 267.702 673.052 268.346 674.313 269.219C675.587 270.092 676.592 271.214 677.326 272.586C678.06 273.944 678.427 275.572 678.427 277.47V299H670.031V294.573H669.782C669.269 295.571 668.584 296.451 667.725 297.213C666.866 297.961 665.833 298.55 664.628 298.979C663.423 299.395 662.03 299.603 660.451 299.603ZM662.986 293.493C664.289 293.493 665.439 293.236 666.436 292.724C667.434 292.197 668.216 291.491 668.784 290.604C669.353 289.717 669.637 288.713 669.637 287.591V284.203C669.359 284.383 668.978 284.549 668.494 284.702C668.022 284.84 667.489 284.972 666.893 285.097C666.298 285.208 665.702 285.311 665.106 285.408C664.51 285.492 663.97 285.568 663.485 285.637C662.446 285.789 661.538 286.032 660.763 286.364C659.987 286.697 659.384 287.147 658.955 287.715C658.525 288.269 658.31 288.962 658.31 289.794C658.31 290.999 658.747 291.92 659.62 292.558C660.506 293.181 661.629 293.493 662.986 293.493ZM701.965 310.971C700.843 310.971 699.79 310.88 698.807 310.7C697.837 310.534 697.033 310.319 696.396 310.056L698.391 303.447C699.43 303.766 700.365 303.939 701.197 303.967C702.042 303.995 702.769 303.801 703.379 303.385C704.002 302.969 704.508 302.263 704.896 301.265L705.415 299.914L693.964 267.079H703.275L709.883 290.521H710.216L716.887 267.079H726.26L713.853 302.45C713.257 304.168 712.447 305.664 711.421 306.939C710.41 308.227 709.128 309.218 707.577 309.911C706.025 310.617 704.155 310.971 701.965 310.971ZM743.014 299.623C739.786 299.623 736.994 298.938 734.639 297.566C732.297 296.181 730.489 294.255 729.215 291.789C727.94 289.309 727.303 286.434 727.303 283.164C727.303 279.867 727.94 276.985 729.215 274.519C730.489 272.039 732.297 270.113 734.639 268.741C736.994 267.356 739.786 266.663 743.014 266.663C746.242 266.663 749.027 267.356 751.368 268.741C753.724 270.113 755.539 272.039 756.813 274.519C758.088 276.985 758.725 279.867 758.725 283.164C758.725 286.434 758.088 289.309 756.813 291.789C755.539 294.255 753.724 296.181 751.368 297.566C749.027 298.938 746.242 299.623 743.014 299.623ZM743.055 292.765C744.524 292.765 745.75 292.35 746.734 291.518C747.718 290.673 748.459 289.523 748.958 288.069C749.47 286.614 749.727 284.958 749.727 283.102C749.727 281.245 749.47 279.589 748.958 278.135C748.459 276.68 747.718 275.53 746.734 274.685C745.75 273.84 744.524 273.417 743.055 273.417C741.573 273.417 740.326 273.84 739.315 274.685C738.317 275.53 737.562 276.68 737.049 278.135C736.551 279.589 736.301 281.245 736.301 283.102C736.301 284.958 736.551 286.614 737.049 288.069C737.562 289.523 738.317 290.673 739.315 291.518C740.326 292.35 741.573 292.765 743.055 292.765ZM771.333 289.814L771.354 279.195H772.643L782.867 267.079H793.03L779.293 283.122H777.194L771.333 289.814ZM763.311 299V256.438H772.165V299H763.311ZM783.262 299L773.869 285.097L779.771 278.841L793.633 299H783.262ZM796.203 299V267.079H805.056V299H796.203ZM800.65 262.964C799.334 262.964 798.205 262.527 797.263 261.655C796.335 260.768 795.87 259.708 795.87 258.475C795.87 257.256 796.335 256.21 797.263 255.337C798.205 254.45 799.334 254.007 800.65 254.007C801.966 254.007 803.089 254.45 804.017 255.337C804.959 256.21 805.43 257.256 805.43 258.475C805.43 259.708 804.959 260.768 804.017 261.655C803.089 262.527 801.966 262.964 800.65 262.964ZM415.296 376.52C412.871 376.52 410.675 375.896 408.708 374.649C406.754 373.388 405.202 371.539 404.053 369.1C402.916 366.648 402.348 363.642 402.348 360.081C402.348 356.423 402.937 353.382 404.115 350.958C405.293 348.519 406.858 346.697 408.812 345.492C410.779 344.273 412.933 343.663 415.275 343.663C417.062 343.663 418.552 343.968 419.743 344.577C420.948 345.173 421.918 345.921 422.653 346.822C423.401 347.709 423.969 348.581 424.357 349.44H424.627V333.438H433.459V376H424.731V370.888H424.357C423.941 371.774 423.352 372.654 422.59 373.527C421.842 374.386 420.865 375.099 419.66 375.667C418.468 376.236 417.014 376.52 415.296 376.52ZM418.101 369.474C419.528 369.474 420.734 369.086 421.717 368.311C422.715 367.521 423.477 366.419 424.003 365.006C424.544 363.593 424.814 361.937 424.814 360.039C424.814 358.141 424.551 356.493 424.024 355.093C423.498 353.694 422.736 352.613 421.738 351.851C420.741 351.089 419.528 350.708 418.101 350.708C416.646 350.708 415.42 351.103 414.423 351.893C413.425 352.682 412.67 353.777 412.158 355.176C411.645 356.576 411.389 358.197 411.389 360.039C411.389 361.896 411.645 363.538 412.158 364.965C412.684 366.378 413.439 367.486 414.423 368.29C415.42 369.08 416.646 369.474 418.101 369.474ZM453.991 376.623C450.762 376.623 447.971 375.938 445.615 374.566C443.274 373.181 441.466 371.255 440.191 368.789C438.917 366.309 438.279 363.434 438.279 360.164C438.279 356.867 438.917 353.985 440.191 351.519C441.466 349.039 443.274 347.113 445.615 345.741C447.971 344.356 450.762 343.663 453.991 343.663C457.219 343.663 460.003 344.356 462.345 345.741C464.7 347.113 466.515 349.039 467.79 351.519C469.065 353.985 469.702 356.867 469.702 360.164C469.702 363.434 469.065 366.309 467.79 368.789C466.515 371.255 464.7 373.181 462.345 374.566C460.003 375.938 457.219 376.623 453.991 376.623ZM454.032 369.765C455.501 369.765 456.727 369.35 457.711 368.518C458.694 367.673 459.435 366.523 459.934 365.069C460.447 363.614 460.703 361.958 460.703 360.102C460.703 358.245 460.447 356.589 459.934 355.135C459.435 353.68 458.694 352.53 457.711 351.685C456.727 350.84 455.501 350.417 454.032 350.417C452.55 350.417 451.303 350.84 450.291 351.685C449.294 352.53 448.539 353.68 448.026 355.135C447.527 356.589 447.278 358.245 447.278 360.102C447.278 361.958 447.527 363.614 448.026 365.069C448.539 366.523 449.294 367.673 450.291 368.518C451.303 369.35 452.55 369.765 454.032 369.765ZM474.288 376V344.079H483.141V376H474.288ZM478.735 339.964C477.419 339.964 476.29 339.527 475.348 338.655C474.42 337.768 473.956 336.708 473.956 335.475C473.956 334.256 474.42 333.21 475.348 332.337C476.29 331.45 477.419 331.007 478.735 331.007C480.052 331.007 481.174 331.45 482.102 332.337C483.044 333.21 483.515 334.256 483.515 335.475C483.515 336.708 483.044 337.768 482.102 338.655C481.174 339.527 480.052 339.964 478.735 339.964ZM489.063 376V344.079H497.5V349.711H497.874C498.539 347.84 499.648 346.365 501.199 345.284C502.751 344.203 504.608 343.663 506.769 343.663C508.958 343.663 510.822 344.21 512.359 345.305C513.897 346.385 514.923 347.854 515.435 349.711H515.768C516.419 347.882 517.597 346.42 519.301 345.326C521.019 344.217 523.048 343.663 525.39 343.663C528.369 343.663 530.786 344.612 532.643 346.51C534.513 348.394 535.448 351.068 535.448 354.532V376H526.616V356.278C526.616 354.504 526.145 353.174 525.203 352.288C524.261 351.401 523.083 350.958 521.67 350.958C520.063 350.958 518.809 351.47 517.908 352.495C517.008 353.507 516.557 354.844 516.557 356.506V376H507.974V356.091C507.974 354.525 507.524 353.278 506.624 352.35C505.737 351.422 504.566 350.958 503.111 350.958C502.128 350.958 501.241 351.207 500.451 351.706C499.675 352.191 499.059 352.876 498.602 353.763C498.144 354.636 497.916 355.661 497.916 356.839V376H489.063ZM541.271 376V344.079H550.124V376H541.271ZM545.719 339.964C544.402 339.964 543.273 339.527 542.331 338.655C541.403 337.768 540.939 336.708 540.939 335.475C540.939 334.256 541.403 333.21 542.331 332.337C543.273 331.45 544.402 331.007 545.719 331.007C547.035 331.007 548.157 331.45 549.085 332.337C550.027 333.21 550.498 334.256 550.498 335.475C550.498 336.708 550.027 337.768 549.085 338.655C548.157 339.527 547.035 339.964 545.719 339.964ZM561.511 387.971C560.389 387.971 559.336 387.88 558.353 387.7C557.383 387.534 556.579 387.319 555.942 387.056L557.937 380.447C558.976 380.766 559.911 380.939 560.743 380.967C561.588 380.995 562.315 380.801 562.925 380.385C563.548 379.969 564.054 379.263 564.442 378.265L564.961 376.914L553.51 344.079H562.821L569.429 367.521H569.762L576.433 344.079H585.806L573.399 379.45C572.803 381.168 571.993 382.664 570.967 383.939C569.956 385.227 568.674 386.218 567.123 386.911C565.571 387.617 563.701 387.971 561.511 387.971ZM616.088 376.623C612.804 376.623 609.978 375.958 607.609 374.628C605.253 373.284 603.438 371.386 602.164 368.934C600.889 366.468 600.252 363.552 600.252 360.185C600.252 356.901 600.889 354.019 602.164 351.539C603.438 349.059 605.232 347.127 607.546 345.741C609.874 344.356 612.603 343.663 615.734 343.663C617.84 343.663 619.801 344.002 621.616 344.681C623.445 345.346 625.038 346.351 626.396 347.695C627.767 349.039 628.834 350.729 629.596 352.766C630.358 354.788 630.739 357.158 630.739 359.873V362.305H603.785V356.818H622.405C622.405 355.543 622.128 354.414 621.574 353.431C621.02 352.447 620.251 351.678 619.267 351.124C618.297 350.556 617.168 350.272 615.88 350.272C614.536 350.272 613.344 350.583 612.305 351.207C611.28 351.817 610.476 352.641 609.895 353.68C609.313 354.705 609.015 355.848 609.001 357.109V362.325C609.001 363.905 609.292 365.269 609.874 366.419C610.47 367.569 611.308 368.456 612.388 369.08C613.469 369.703 614.751 370.015 616.233 370.015C617.217 370.015 618.117 369.876 618.935 369.599C619.752 369.322 620.452 368.906 621.034 368.352C621.616 367.798 622.059 367.119 622.364 366.316L630.552 366.856C630.136 368.823 629.284 370.541 627.996 372.01C626.721 373.465 625.072 374.601 623.05 375.418C621.041 376.222 618.72 376.623 616.088 376.623ZM649.727 388.636C646.859 388.636 644.4 388.241 642.35 387.451C640.313 386.675 638.692 385.615 637.487 384.271C636.281 382.927 635.498 381.417 635.138 379.741L643.326 378.639C643.576 379.277 643.971 379.872 644.511 380.427C645.051 380.981 645.765 381.424 646.652 381.757C647.552 382.103 648.647 382.276 649.935 382.276C651.861 382.276 653.447 381.805 654.694 380.863C655.955 379.935 656.585 378.376 656.585 376.187V370.347H656.211C655.823 371.234 655.241 372.072 654.466 372.862C653.69 373.652 652.692 374.296 651.473 374.795C650.254 375.293 648.799 375.543 647.109 375.543C644.712 375.543 642.53 374.989 640.562 373.88C638.609 372.758 637.05 371.047 635.886 368.747C634.736 366.433 634.161 363.51 634.161 359.977C634.161 356.361 634.75 353.341 635.928 350.916C637.106 348.491 638.671 346.676 640.625 345.471C642.592 344.266 644.746 343.663 647.088 343.663C648.875 343.663 650.372 343.968 651.577 344.577C652.782 345.173 653.752 345.921 654.486 346.822C655.235 347.709 655.81 348.581 656.211 349.44H656.544V344.079H665.335V376.312C665.335 379.027 664.67 381.299 663.34 383.128C662.01 384.957 660.167 386.329 657.812 387.243C655.47 388.171 652.775 388.636 649.727 388.636ZM649.914 368.893C651.341 368.893 652.547 368.539 653.53 367.833C654.528 367.112 655.29 366.087 655.816 364.757C656.357 363.413 656.627 361.806 656.627 359.935C656.627 358.065 656.364 356.444 655.837 355.072C655.311 353.687 654.549 352.613 653.551 351.851C652.554 351.089 651.341 350.708 649.914 350.708C648.46 350.708 647.233 351.103 646.236 351.893C645.238 352.669 644.483 353.749 643.971 355.135C643.458 356.52 643.202 358.12 643.202 359.935C643.202 361.778 643.458 363.371 643.971 364.715C644.497 366.045 645.252 367.078 646.236 367.812C647.233 368.532 648.46 368.893 649.914 368.893ZM680.312 376.603C678.275 376.603 676.46 376.249 674.867 375.543C673.274 374.822 672.013 373.762 671.085 372.363C670.17 370.95 669.713 369.19 669.713 367.084C669.713 365.311 670.039 363.822 670.69 362.616C671.341 361.411 672.228 360.441 673.35 359.707C674.472 358.973 675.747 358.418 677.174 358.044C678.615 357.67 680.125 357.407 681.704 357.255C683.561 357.061 685.057 356.88 686.193 356.714C687.329 356.534 688.154 356.271 688.666 355.924C689.179 355.578 689.435 355.065 689.435 354.387V354.262C689.435 352.946 689.02 351.927 688.188 351.207C687.371 350.486 686.207 350.126 684.697 350.126C683.104 350.126 681.836 350.48 680.894 351.186C679.952 351.879 679.328 352.752 679.023 353.805L670.835 353.14C671.251 351.2 672.068 349.524 673.288 348.11C674.507 346.683 676.079 345.589 678.005 344.827C679.945 344.051 682.189 343.663 684.739 343.663C686.512 343.663 688.209 343.871 689.83 344.286C691.465 344.702 692.913 345.346 694.174 346.219C695.448 347.092 696.453 348.214 697.187 349.586C697.921 350.944 698.288 352.572 698.288 354.47V376H689.892V371.573H689.643C689.13 372.571 688.445 373.451 687.586 374.213C686.727 374.961 685.695 375.55 684.489 375.979C683.284 376.395 681.891 376.603 680.312 376.603ZM682.847 370.493C684.15 370.493 685.3 370.236 686.297 369.724C687.295 369.197 688.078 368.491 688.646 367.604C689.214 366.717 689.498 365.713 689.498 364.591V361.203C689.221 361.383 688.84 361.549 688.355 361.702C687.884 361.84 687.35 361.972 686.754 362.097C686.159 362.208 685.563 362.311 684.967 362.408C684.371 362.492 683.831 362.568 683.346 362.637C682.307 362.789 681.4 363.032 680.624 363.364C679.848 363.697 679.245 364.147 678.816 364.715C678.386 365.269 678.171 365.962 678.171 366.794C678.171 367.999 678.608 368.92 679.481 369.558C680.367 370.181 681.49 370.493 682.847 370.493ZM712.84 333.438V376H703.987V333.438H712.84ZM718.761 376V344.079H727.614V376H718.761ZM723.209 339.964C721.892 339.964 720.763 339.527 719.821 338.655C718.893 337.768 718.429 336.708 718.429 335.475C718.429 334.256 718.893 333.21 719.821 332.337C720.763 331.45 721.892 331.007 723.209 331.007C724.525 331.007 725.647 331.45 726.575 332.337C727.517 333.21 727.988 334.256 727.988 335.475C727.988 336.708 727.517 337.768 726.575 338.655C725.647 339.527 724.525 339.964 723.209 339.964ZM741.558 366.814L741.578 356.195H742.867L753.092 344.079H763.254L749.517 360.122H747.418L741.558 366.814ZM733.536 376V333.438H742.389V376H733.536ZM753.487 376L744.093 362.097L749.995 355.841L763.857 376H753.487ZM799.895 387.971V370.888H799.625C799.21 371.774 798.621 372.654 797.859 373.527C797.111 374.386 796.134 375.099 794.929 375.667C793.737 376.236 792.282 376.52 790.564 376.52C788.14 376.52 785.944 375.896 783.976 374.649C782.023 373.388 780.471 371.539 779.321 369.1C778.185 366.648 777.617 363.642 777.617 360.081C777.617 356.423 778.206 353.382 779.383 350.958C780.561 348.519 782.127 346.697 784.08 345.492C786.048 344.273 788.202 343.663 790.543 343.663C792.331 343.663 793.82 343.968 795.012 344.577C796.217 345.173 797.187 345.921 797.921 346.822C798.669 347.709 799.237 348.581 799.625 349.44H799.999V344.079H808.728V387.971H799.895ZM793.37 369.474C794.797 369.474 796.002 369.086 796.986 368.311C797.983 367.521 798.746 366.419 799.272 365.006C799.812 363.593 800.082 361.937 800.082 360.039C800.082 358.141 799.819 356.493 799.293 355.093C798.766 353.694 798.004 352.613 797.007 351.851C796.009 351.089 794.797 350.708 793.37 350.708C791.915 350.708 790.689 351.103 789.691 351.893C788.694 352.682 787.939 353.777 787.426 355.176C786.914 356.576 786.657 358.197 786.657 360.039C786.657 361.896 786.914 363.538 787.426 364.965C787.953 366.378 788.708 367.486 789.691 368.29C790.689 369.08 791.915 369.474 793.37 369.474ZM814.665 376V344.079H823.518V376H814.665ZM819.112 339.964C817.796 339.964 816.667 339.527 815.725 338.655C814.797 337.768 814.332 336.708 814.332 335.475C814.332 334.256 814.797 333.21 815.725 332.337C816.667 331.45 817.796 331.007 819.112 331.007C820.428 331.007 821.551 331.45 822.479 332.337C823.421 333.21 823.892 334.256 823.892 335.475C823.892 336.708 823.421 337.768 822.479 338.655C821.551 339.527 820.428 339.964 819.112 339.964ZM838.293 333.438V376H829.44V333.438H838.293ZM844.214 376V344.079H853.067V376H844.214ZM848.662 339.964C847.345 339.964 846.216 339.527 845.274 338.655C844.346 337.768 843.882 336.708 843.882 335.475C843.882 334.256 844.346 333.21 845.274 332.337C846.216 331.45 847.345 331.007 848.662 331.007C849.978 331.007 851.1 331.45 852.028 332.337C852.97 333.21 853.441 334.256 853.441 335.475C853.441 336.708 852.97 337.768 852.028 338.655C851.1 339.527 849.978 339.964 848.662 339.964ZM867.842 357.545V376H858.989V344.079H867.426V349.711H867.8C868.507 347.854 869.692 346.385 871.354 345.305C873.017 344.21 875.033 343.663 877.402 343.663C879.619 343.663 881.551 344.148 883.2 345.118C884.849 346.088 886.13 347.473 887.045 349.274C887.959 351.061 888.416 353.195 888.416 355.675V376H879.563V357.255C879.577 355.301 879.078 353.777 878.067 352.682C877.055 351.574 875.663 351.02 873.89 351.02C872.698 351.02 871.645 351.276 870.731 351.789C869.83 352.301 869.124 353.05 868.611 354.033C868.112 355.003 867.856 356.174 867.842 357.545ZM908.605 388.636C905.737 388.636 903.278 388.241 901.227 387.451C899.19 386.675 897.569 385.615 896.364 384.271C895.159 382.927 894.376 381.417 894.016 379.741L902.204 378.639C902.453 379.277 902.848 379.872 903.388 380.427C903.929 380.981 904.642 381.424 905.529 381.757C906.43 382.103 907.524 382.276 908.813 382.276C910.738 382.276 912.325 381.805 913.572 380.863C914.832 379.935 915.463 378.376 915.463 376.187V370.347H915.089C914.701 371.234 914.119 372.072 913.343 372.862C912.567 373.652 911.57 374.296 910.35 374.795C909.131 375.293 907.676 375.543 905.986 375.543C903.589 375.543 901.407 374.989 899.44 373.88C897.486 372.758 895.928 371.047 894.764 368.747C893.614 366.433 893.039 363.51 893.039 359.977C893.039 356.361 893.628 353.341 894.805 350.916C895.983 348.491 897.549 346.676 899.502 345.471C901.47 344.266 903.624 343.663 905.965 343.663C907.753 343.663 909.249 343.968 910.454 344.577C911.66 345.173 912.63 345.921 913.364 346.822C914.112 347.709 914.687 348.581 915.089 349.44H915.421V344.079H924.212V376.312C924.212 379.027 923.547 381.299 922.217 383.128C920.887 384.957 919.044 386.329 916.689 387.243C914.348 388.171 911.653 388.636 908.605 388.636ZM908.792 368.893C910.219 368.893 911.424 368.539 912.408 367.833C913.405 367.112 914.167 366.087 914.694 364.757C915.234 363.413 915.504 361.806 915.504 359.935C915.504 358.065 915.241 356.444 914.715 355.072C914.188 353.687 913.426 352.613 912.429 351.851C911.431 351.089 910.219 350.708 908.792 350.708C907.337 350.708 906.111 351.103 905.113 351.893C904.116 352.669 903.361 353.749 902.848 355.135C902.335 356.52 902.079 358.12 902.079 359.935C902.079 361.778 902.335 363.371 902.848 364.715C903.375 366.045 904.13 367.078 905.113 367.812C906.111 368.532 907.337 368.893 908.792 368.893Z" fill="#BBBFC7"/>
<path d="M1331.94 297.511C1332.44 297.819 1332.97 298.08 1333.42 298.44C1336.05 300.525 1338.68 302.617 1341.27 304.745C1342.73 305.936 1342.74 306.827 1341.37 308.156C1339.92 309.568 1338.14 309.739 1336.29 309.324C1333.74 308.753 1331.84 307.235 1330.79 304.863C1329.67 302.309 1328.07 300.388 1325.37 299.421C1324.99 299.284 1324.64 298.62 1324.55 298.146C1323.73 293.763 1321.2 291.337 1316.84 290.709C1316.34 290.638 1315.8 290.122 1315.49 289.665C1314.87 288.719 1314.54 287.561 1313.85 286.689C1311.55 283.829 1308.39 283.507 1305.24 284.535C1303.13 285.22 1301.85 284.862 1300.31 283.391C1298.41 281.576 1295.92 281.045 1293.27 281.209C1292.73 281.242 1292.06 280.974 1291.63 280.626C1290.31 279.562 1289.07 278.397 1287.81 277.262C1286.61 276.179 1286.46 275.267 1287.11 273.774C1290.71 265.536 1294.3 257.296 1297.87 249.051C1298.76 247.023 1299.02 246.824 1301.24 246.836C1303.12 246.848 1304.99 246.839 1306.87 246.839C1306.91 246.957 1306.95 247.075 1307 247.194C1306.74 247.504 1306.48 247.815 1306.22 248.125C1304.92 249.66 1303.51 251.115 1302.35 252.75C1300.24 255.728 1300.91 258.877 1303.93 260.94C1307.51 263.38 1311.41 263.447 1315.01 261.061C1318.14 258.993 1321.27 256.924 1324.33 254.759C1327.08 252.814 1329.93 252.605 1332.78 254.228C1336.76 256.486 1340.71 258.813 1344.54 261.307C1353.64 267.228 1362.67 273.253 1371.71 279.257C1374.72 281.259 1375.25 283.905 1373.02 286.795C1372.1 288.001 1370.78 289.011 1369.45 289.778C1367.81 290.721 1366.07 290.522 1364.41 289.454C1358.7 285.777 1352.97 282.145 1347.24 278.506C1346.81 278.233 1346.35 277.946 1345.87 277.845C1345.5 277.766 1345.07 277.975 1344.67 278.055C1344.8 278.434 1344.84 278.877 1345.07 279.178C1345.33 279.51 1345.74 279.721 1346.1 279.965C1351.39 283.564 1356.67 287.158 1361.96 290.761C1363.97 292.136 1364.24 293.55 1362.88 295.571C1361.67 297.372 1359.94 298.414 1357.82 298.762C1356.48 298.98 1355.27 298.665 1354.13 297.864C1349.86 294.877 1345.56 291.93 1341.26 288.989C1340.75 288.639 1340.17 288.352 1339.57 288.162C1339.18 288.037 1338.72 288.139 1338.29 288.139C1338.23 288.26 1338.18 288.383 1338.13 288.504C1338.59 288.944 1339.01 289.439 1339.52 289.821C1343.42 292.773 1347.34 295.708 1351.26 298.637C1353.47 300.288 1353.46 302.366 1351.21 303.998C1349.09 305.531 1346.51 305.567 1344.36 304.088C1341.17 301.902 1337.99 299.691 1334.78 297.542C1334.08 297.068 1333.29 296.476 1331.94 297.511Z" fill="url(#paint3_linear_41_34)"/>
<path d="M1334.77 233.474C1338.42 234.173 1342.29 234.884 1346.15 235.666C1348.47 236.135 1350.79 236.639 1353.07 237.258C1357.89 238.566 1362.75 238.644 1367.62 237.77C1369.86 237.367 1371.3 238.047 1372.59 239.942C1378.05 247.971 1382.29 256.65 1386.28 265.456C1387.33 267.769 1386.98 269.098 1384.97 270.631C1382.43 272.564 1379.81 274.405 1377.21 276.26C1375.42 277.53 1373.7 277.428 1371.84 276.205C1361 269.069 1350.14 261.955 1339.22 254.937C1336.82 253.392 1334.22 252.094 1331.58 250.99C1329.05 249.928 1326.45 250.296 1324.12 251.833C1320.79 254.022 1317.47 256.228 1314.17 258.462C1311.87 260.021 1309.47 260.632 1306.8 259.521C1303.55 258.171 1302.72 255.487 1304.87 252.736C1307.81 248.974 1310.76 245.211 1313.9 241.619C1314.91 240.459 1316.45 239.615 1317.91 239.006C1321.76 237.395 1325.68 235.919 1329.62 234.538C1331.16 233.998 1332.84 233.858 1334.77 233.474Z" fill="url(#paint4_linear_41_34)"/>
<path d="M1289.77 239.382C1291.91 239.544 1294.12 240.188 1295.97 241.749C1296.9 242.531 1297.28 243.476 1296.77 244.692C1292.62 254.479 1288.47 264.269 1284.36 274.073C1283.2 276.835 1281.5 277.548 1278.44 276.944C1277.32 276.721 1276.19 276.188 1275.21 275.563C1272.77 273.999 1272.17 271.658 1273.3 268.988C1277 260.25 1280.7 251.508 1284.39 242.766C1285.36 240.472 1287.09 239.318 1289.77 239.382Z" fill="url(#paint5_linear_41_34)"/>
<path d="M1382.24 230.37C1383.24 230.363 1384.62 231.351 1385.57 233.014C1387.67 236.679 1389.81 240.314 1391.83 244.019C1394.34 248.627 1396.75 253.29 1399.18 257.938C1400.38 260.234 1400.18 261.912 1398.41 263.764C1396.54 265.714 1394.31 267.093 1391.62 267.605C1390.78 267.764 1390.09 267.65 1389.66 266.742C1387.13 261.442 1384.74 256.067 1381.97 250.897C1379.32 245.969 1376.29 241.25 1373.38 236.461C1372.47 234.955 1372.51 234.322 1373.87 233.261C1375.89 231.68 1379.17 230.399 1382.24 230.37Z" fill="url(#paint6_linear_41_34)"/>
<path d="M1308.25 287.002C1309.78 287.085 1311.25 287.582 1312.1 289.125C1312.93 290.624 1312.72 292.148 1311.78 293.489C1310.65 295.1 1309.44 296.659 1308.14 298.135C1306.98 299.457 1305.05 299.63 1303.09 298.801C1301.33 298.054 1300.23 296.507 1300.24 294.813C1300.27 291.57 1304.91 286.976 1308.25 287.002Z" fill="url(#paint7_linear_41_34)"/>
<path d="M1315.22 305.268C1312.38 305.275 1310.24 303.662 1309.95 301.409C1309.87 300.809 1310.03 300.035 1310.37 299.554C1311.47 298.019 1312.67 296.547 1313.9 295.114C1315.37 293.401 1317.94 293.37 1319.96 294.967C1321.84 296.457 1322.16 298.547 1320.74 300.471C1319.9 301.613 1319 302.71 1318.11 303.809C1317.29 304.818 1316.21 305.306 1315.22 305.268Z" fill="url(#paint8_linear_41_34)"/>
<path d="M1294.94 283.884C1296.64 283.995 1298.38 284.779 1299.52 286.597C1300.93 288.871 1299.77 291.536 1297.16 292.086C1294.18 292.719 1291.02 290.328 1291.01 287.433C1291 285.293 1292.41 283.879 1294.94 283.884Z" fill="url(#paint9_linear_41_34)"/>
<path d="M1322.84 301.914C1324.88 302.11 1326.35 302.729 1327.5 303.965C1328.44 304.975 1328.53 306.271 1327.83 307.585C1326.28 310.466 1321.98 310.779 1320.02 308.154C1319.2 307.055 1319.16 305.986 1319.94 304.892C1320.46 304.152 1320.98 303.394 1321.6 302.74C1322 302.323 1322.58 302.079 1322.84 301.914Z" fill="url(#paint10_linear_41_34)"/>
<rect x="400" y="123" width="78.3216" height="77.5029" rx="19.1028" fill="url(#paint11_linear_41_34)"/>
<path d="M496 176.318V143.574H518.064V149.282H502.923V157.084H516.929V162.792H502.923V170.61H518.128V176.318H496ZM533.603 186.039C531.397 186.039 529.505 185.735 527.927 185.127C526.361 184.531 525.114 183.715 524.186 182.681C523.259 181.647 522.657 180.486 522.379 179.196L528.679 178.348C528.871 178.839 529.175 179.297 529.59 179.723C530.006 180.15 530.555 180.491 531.237 180.747C531.93 181.013 532.772 181.146 533.763 181.146C535.245 181.146 536.465 180.784 537.425 180.059C538.395 179.345 538.879 178.146 538.879 176.462V171.969H538.592C538.293 172.651 537.846 173.296 537.249 173.904C536.652 174.511 535.884 175.007 534.946 175.391C534.008 175.774 532.889 175.966 531.589 175.966C529.745 175.966 528.066 175.54 526.552 174.687C525.05 173.824 523.85 172.507 522.955 170.738C522.07 168.958 521.628 166.709 521.628 163.991C521.628 161.209 522.081 158.885 522.987 157.02C523.893 155.155 525.098 153.758 526.6 152.831C528.114 151.904 529.771 151.44 531.573 151.44C532.948 151.44 534.099 151.674 535.026 152.143C535.954 152.602 536.7 153.177 537.265 153.87C537.84 154.552 538.283 155.224 538.592 155.885H538.848V151.76H545.611V176.558C545.611 178.647 545.099 180.395 544.076 181.802C543.052 183.209 541.635 184.264 539.823 184.968C538.021 185.682 535.948 186.039 533.603 186.039ZM533.747 170.85C534.845 170.85 535.772 170.578 536.529 170.034C537.297 169.48 537.883 168.691 538.288 167.668C538.704 166.634 538.911 165.398 538.911 163.959C538.911 162.52 538.709 161.273 538.304 160.218C537.899 159.152 537.313 158.326 536.545 157.739C535.778 157.153 534.845 156.86 533.747 156.86C532.628 156.86 531.685 157.164 530.917 157.771C530.15 158.368 529.569 159.2 529.175 160.266C528.78 161.331 528.583 162.563 528.583 163.959C528.583 165.377 528.78 166.602 529.175 167.636C529.58 168.659 530.16 169.454 530.917 170.018C531.685 170.573 532.628 170.85 533.747 170.85ZM557.133 176.782C555.566 176.782 554.17 176.51 552.944 175.966C551.718 175.412 550.748 174.596 550.034 173.52C549.331 172.433 548.979 171.079 548.979 169.459C548.979 168.095 549.229 166.949 549.73 166.021C550.231 165.094 550.914 164.348 551.777 163.783C552.64 163.218 553.621 162.792 554.719 162.504C555.827 162.216 556.989 162.014 558.204 161.896C559.633 161.747 560.784 161.609 561.658 161.481C562.532 161.342 563.166 161.14 563.56 160.873C563.955 160.607 564.152 160.212 564.152 159.69V159.594C564.152 158.581 563.832 157.798 563.193 157.244C562.564 156.689 561.668 156.412 560.507 156.412C559.281 156.412 558.306 156.684 557.581 157.228C556.856 157.761 556.376 158.432 556.142 159.242L549.842 158.731C550.162 157.238 550.791 155.949 551.729 154.861C552.667 153.764 553.877 152.922 555.358 152.335C556.851 151.738 558.577 151.44 560.539 151.44C561.903 151.44 563.209 151.6 564.456 151.92C565.713 152.239 566.827 152.735 567.797 153.407C568.778 154.078 569.551 154.941 570.116 155.997C570.681 157.041 570.963 158.294 570.963 159.754V176.318H564.504V172.912H564.312C563.917 173.68 563.39 174.357 562.729 174.943C562.068 175.518 561.274 175.971 560.347 176.302C559.419 176.622 558.348 176.782 557.133 176.782ZM559.084 172.081C560.086 172.081 560.97 171.884 561.738 171.489C562.505 171.084 563.107 170.541 563.544 169.859C563.981 169.176 564.2 168.404 564.2 167.54V164.934C563.987 165.073 563.694 165.201 563.321 165.318C562.958 165.424 562.548 165.526 562.089 165.622C561.631 165.707 561.173 165.787 560.714 165.861C560.256 165.925 559.84 165.984 559.467 166.037C558.668 166.155 557.97 166.341 557.373 166.597C556.776 166.853 556.312 167.199 555.982 167.636C555.651 168.063 555.486 168.595 555.486 169.235C555.486 170.162 555.822 170.871 556.494 171.361C557.176 171.841 558.039 172.081 559.084 172.081ZM582.158 143.574V176.318H575.347V143.574H582.158ZM586.713 176.318V151.76H593.524V176.318H586.713ZM590.135 148.594C589.122 148.594 588.254 148.258 587.529 147.587C586.815 146.905 586.457 146.089 586.457 145.141C586.457 144.203 586.815 143.398 587.529 142.726C588.254 142.044 589.122 141.703 590.135 141.703C591.147 141.703 592.011 142.044 592.725 142.726C593.45 143.398 593.812 144.203 593.812 145.141C593.812 146.089 593.45 146.905 592.725 147.587C592.011 148.258 591.147 148.594 590.135 148.594ZM604.251 169.251L604.267 161.081H605.259L613.125 151.76H620.943L610.375 164.103H608.76L604.251 169.251ZM598.08 176.318V143.574H604.891V176.318H598.08ZM613.429 176.318L606.202 165.622L610.743 160.809L621.407 176.318H613.429Z" fill="#1B3363"/>
<path d="M437.139 174.766C437.369 174.909 437.616 175.029 437.826 175.196C439.043 176.162 440.258 177.13 441.461 178.116C442.134 178.667 442.138 179.08 441.505 179.695C440.833 180.349 440.012 180.428 439.154 180.236C437.972 179.972 437.091 179.269 436.608 178.17C436.088 176.988 435.345 176.098 434.098 175.65C433.92 175.587 433.758 175.28 433.717 175.06C433.337 173.031 432.165 171.907 430.148 171.617C429.918 171.584 429.663 171.344 429.524 171.133C429.236 170.695 429.084 170.159 428.76 169.755C427.699 168.431 426.234 168.281 424.775 168.758C423.8 169.075 423.206 168.909 422.493 168.228C421.614 167.387 420.458 167.142 419.233 167.217C418.983 167.233 418.674 167.109 418.474 166.947C417.863 166.455 417.289 165.915 416.706 165.39C416.149 164.888 416.078 164.466 416.38 163.775C418.045 159.96 419.708 156.145 421.365 152.327C421.773 151.388 421.897 151.296 422.922 151.301C423.792 151.307 424.66 151.302 425.53 151.302C425.55 151.357 425.569 151.412 425.589 151.467C425.469 151.611 425.349 151.754 425.229 151.898C424.627 152.609 423.973 153.283 423.436 154.039C422.461 155.418 422.772 156.876 424.17 157.832C425.825 158.962 427.63 158.993 429.3 157.888C430.748 156.93 432.197 155.973 433.613 154.97C434.886 154.069 436.206 153.973 437.529 154.724C439.371 155.77 441.199 156.847 442.974 158.002C447.186 160.744 451.366 163.533 455.554 166.313C456.95 167.24 457.195 168.466 456.162 169.804C455.732 170.363 455.123 170.83 454.507 171.185C453.749 171.622 452.941 171.53 452.175 171.035C449.532 169.332 446.877 167.651 444.223 165.966C444.025 165.839 443.811 165.707 443.587 165.66C443.417 165.623 443.219 165.72 443.034 165.757C443.093 165.933 443.114 166.138 443.22 166.277C443.338 166.431 443.53 166.528 443.695 166.641C446.143 168.308 448.592 169.972 451.038 171.641C451.969 172.277 452.096 172.932 451.465 173.868C450.903 174.701 450.104 175.184 449.121 175.345C448.504 175.446 447.942 175.3 447.413 174.93C445.438 173.546 443.448 172.182 441.456 170.82C441.218 170.658 440.947 170.525 440.673 170.437C440.492 170.379 440.277 170.426 440.077 170.426C440.053 170.482 440.029 170.539 440.006 170.595C440.219 170.799 440.414 171.029 440.648 171.205C442.456 172.572 444.27 173.931 446.086 175.287C447.109 176.052 447.102 177.014 446.06 177.77C445.082 178.48 443.886 178.496 442.888 177.812C441.411 176.799 439.941 175.775 438.453 174.78C438.128 174.561 437.763 174.287 437.139 174.766Z" fill="url(#paint12_linear_41_34)"/>
<path d="M438.449 145.114C440.139 145.438 441.932 145.767 443.72 146.129C444.794 146.346 445.866 146.58 446.923 146.866C449.154 147.472 451.404 147.508 453.66 147.103C454.698 146.916 455.363 147.231 455.959 148.109C458.489 151.827 460.451 155.845 462.303 159.923C462.789 160.994 462.626 161.609 461.693 162.319C460.515 163.214 459.305 164.067 458.1 164.926C457.274 165.514 456.476 165.467 455.616 164.901C450.595 161.596 445.567 158.302 440.512 155.052C439.399 154.337 438.195 153.736 436.974 153.225C435.799 152.733 434.597 152.903 433.516 153.615C431.974 154.629 430.437 155.65 428.91 156.685C427.845 157.407 426.736 157.69 425.496 157.175C423.991 156.55 423.61 155.307 424.606 154.033C425.966 152.291 427.332 150.549 428.784 148.886C429.254 148.348 429.966 147.958 430.64 147.676C432.425 146.93 434.239 146.246 436.065 145.607C436.778 145.356 437.557 145.292 438.449 145.114Z" fill="url(#paint13_linear_41_34)"/>
<path d="M417.614 147.85C418.605 147.925 419.625 148.223 420.483 148.946C420.912 149.308 421.091 149.746 420.853 150.309C418.933 154.84 417.012 159.374 415.106 163.913C414.57 165.192 413.782 165.523 412.367 165.243C411.845 165.14 411.325 164.893 410.872 164.603C409.74 163.879 409.461 162.795 409.985 161.559C411.701 157.513 413.412 153.465 415.12 149.417C415.569 148.355 416.37 147.82 417.614 147.85Z" fill="url(#paint14_linear_41_34)"/>
<path d="M460.432 143.677C460.895 143.673 461.531 144.131 461.972 144.901C462.942 146.598 463.937 148.281 464.872 149.997C466.034 152.131 467.149 154.29 468.275 156.442C468.83 157.505 468.738 158.282 467.916 159.14C467.052 160.043 466.019 160.681 464.772 160.918C464.385 160.992 464.066 160.939 463.865 160.519C462.693 158.065 461.587 155.575 460.303 153.182C459.078 150.9 457.673 148.714 456.329 146.497C455.906 145.8 455.924 145.507 456.553 145.015C457.488 144.283 459.01 143.69 460.432 143.677Z" fill="url(#paint15_linear_41_34)"/>
<path d="M426.169 169.9C426.88 169.938 427.558 170.169 427.954 170.883C428.338 171.577 428.24 172.283 427.805 172.904C427.281 173.65 426.719 174.372 426.117 175.055C425.58 175.667 424.688 175.747 423.781 175.363C422.966 175.018 422.453 174.301 422.46 173.517C422.473 172.015 424.621 169.888 426.169 169.9Z" fill="url(#paint16_linear_41_34)"/>
<path d="M429.395 178.358C428.081 178.361 427.089 177.614 426.955 176.571C426.92 176.293 426.993 175.935 427.153 175.712C427.661 175.001 428.215 174.32 428.785 173.656C429.468 172.863 430.655 172.849 431.591 173.588C432.464 174.278 432.612 175.246 431.955 176.136C431.565 176.665 431.148 177.173 430.734 177.682C430.353 178.15 429.853 178.376 429.395 178.358Z" fill="url(#paint17_linear_41_34)"/>
<path d="M420.007 168.456C420.793 168.508 421.601 168.871 422.125 169.712C422.781 170.766 422.242 172 421.036 172.254C419.654 172.547 418.189 171.44 418.187 170.1C418.183 169.109 418.836 168.454 420.007 168.456Z" fill="url(#paint18_linear_41_34)"/>
<path d="M432.925 176.805C433.871 176.896 434.55 177.182 435.083 177.755C435.519 178.222 435.561 178.822 435.234 179.431C434.517 180.765 432.525 180.91 431.618 179.694C431.238 179.185 431.22 178.691 431.58 178.184C431.824 177.841 432.063 177.49 432.352 177.188C432.536 176.994 432.805 176.881 432.925 176.805Z" fill="url(#paint19_linear_41_34)"/>
<defs>
<filter id="filter0_d_41_34" x="1129.26" y="64.4926" width="413.564" height="411.229" filterUnits="userSpaceOnUse" color-interpolation-filters="sRGB">
<feFlood flood-opacity="0" result="BackgroundImageFix"/>
<feColorMatrix in="SourceAlpha" type="matrix" values="0 0 0 0 0 0 0 0 0 0 0 0 0 0 0 0 0 0 127 0" result="hardAlpha"/>
<feMorphology radius="20.3014" operator="dilate" in="SourceAlpha" result="effect1_dropShadow_41_34"/>
<feOffset/>
<feGaussianBlur stdDeviation="20.5763"/>
<feComposite in2="hardAlpha" operator="out"/>
<feColorMatrix type="matrix" values="0 0 0 0 0 0 0 0 0 0 0 0 0 0 0 0 0 0 0.25 0"/>
<feBlend mode="normal" in2="BackgroundImageFix" result="effect1_dropShadow_41_34"/>
<feBlend mode="normal" in="SourceGraphic" in2="effect1_dropShadow_41_34" result="shape"/>
</filter>
<linearGradient id="paint0_linear_41_34" x1="1007.5" y1="1.60933e-05" x2="1007.5" y2="540" gradientUnits="userSpaceOnUse">
<stop stop-color="#017CCC"/>
<stop offset="1" stop-color="#042E4A"/>
</linearGradient>
<linearGradient id="paint1_linear_41_34" x1="1328.68" y1="139.68" x2="1265.46" y2="605.046" gradientUnits="userSpaceOnUse">
<stop stop-color="#0272BC"/>
<stop offset="0.939576" stop-color="#162851"/>
</linearGradient>
<linearGradient id="paint2_linear_41_34" x1="1336.01" y1="210.596" x2="1336.01" y2="354.46" gradientUnits="userSpaceOnUse">
<stop stop-color="#254989"/>
<stop offset="1" stop-color="#162851"/>
</linearGradient>
<linearGradient id="paint3_linear_41_34" x1="1319.46" y1="242.519" x2="1386.04" y2="327.855" gradientUnits="userSpaceOnUse">
<stop stop-color="#CCD5E6"/>
<stop offset="1" stop-color="#0A3785"/>
</linearGradient>
<linearGradient id="paint4_linear_41_34" x1="1334.73" y1="230.465" x2="1376.02" y2="302.495" gradientUnits="userSpaceOnUse">
<stop stop-color="#CCD5E6"/>
<stop offset="1" stop-color="#0A3785"/>
</linearGradient>
<linearGradient id="paint5_linear_41_34" x1="1281.8" y1="236.779" x2="1317.95" y2="258.053" gradientUnits="userSpaceOnUse">
<stop stop-color="#CCD5E6"/>
<stop offset="1" stop-color="#0A3785"/>
</linearGradient>
<linearGradient id="paint6_linear_41_34" x1="1382.91" y1="227.802" x2="1420.63" y2="252.994" gradientUnits="userSpaceOnUse">
<stop stop-color="#CCD5E6"/>
<stop offset="1" stop-color="#0A3785"/>
</linearGradient>
<linearGradient id="paint7_linear_41_34" x1="1304.86" y1="286.154" x2="1318.29" y2="298.54" gradientUnits="userSpaceOnUse">
<stop stop-color="#CCD5E6"/>
<stop offset="1" stop-color="#0A3785"/>
</linearGradient>
<linearGradient id="paint8_linear_41_34" x1="1314.3" y1="293.008" x2="1326.83" y2="304.719" gradientUnits="userSpaceOnUse">
<stop stop-color="#CCD5E6"/>
<stop offset="1" stop-color="#0A3785"/>
</linearGradient>
<linearGradient id="paint9_linear_41_34" x1="1294.41" y1="283.312" x2="1303.51" y2="292.459" gradientUnits="userSpaceOnUse">
<stop stop-color="#CCD5E6"/>
<stop offset="1" stop-color="#0A3785"/>
</linearGradient>
<linearGradient id="paint10_linear_41_34" x1="1322.7" y1="301.36" x2="1331.5" y2="310.305" gradientUnits="userSpaceOnUse">
<stop stop-color="#CCD5E6"/>
<stop offset="1" stop-color="#0A3785"/>
</linearGradient>
<linearGradient id="paint11_linear_41_34" x1="439.024" y1="135.417" x2="439.024" y2="196.409" gradientUnits="userSpaceOnUse">
<stop stop-color="#254989"/>
<stop offset="1" stop-color="#162851"/>
</linearGradient>
<linearGradient id="paint12_linear_41_34" x1="431.358" y1="149.302" x2="462.19" y2="188.817" gradientUnits="userSpaceOnUse">
<stop stop-color="#CCD5E6"/>
<stop offset="1" stop-color="#0A3785"/>
</linearGradient>
<linearGradient id="paint13_linear_41_34" x1="438.432" y1="143.721" x2="457.551" y2="177.074" gradientUnits="userSpaceOnUse">
<stop stop-color="#CCD5E6"/>
<stop offset="1" stop-color="#0A3785"/>
</linearGradient>
<linearGradient id="paint14_linear_41_34" x1="413.922" y1="146.645" x2="430.662" y2="156.495" gradientUnits="userSpaceOnUse">
<stop stop-color="#CCD5E6"/>
<stop offset="1" stop-color="#0A3785"/>
</linearGradient>
<linearGradient id="paint15_linear_41_34" x1="460.739" y1="142.488" x2="478.207" y2="154.153" gradientUnits="userSpaceOnUse">
<stop stop-color="#CCD5E6"/>
<stop offset="1" stop-color="#0A3785"/>
</linearGradient>
<linearGradient id="paint16_linear_41_34" x1="424.6" y1="169.508" x2="430.819" y2="175.243" gradientUnits="userSpaceOnUse">
<stop stop-color="#CCD5E6"/>
<stop offset="1" stop-color="#0A3785"/>
</linearGradient>
<linearGradient id="paint17_linear_41_34" x1="428.969" y1="172.681" x2="434.772" y2="178.103" gradientUnits="userSpaceOnUse">
<stop stop-color="#CCD5E6"/>
<stop offset="1" stop-color="#0A3785"/>
</linearGradient>
<linearGradient id="paint18_linear_41_34" x1="419.762" y1="168.191" x2="423.973" y2="172.427" gradientUnits="userSpaceOnUse">
<stop stop-color="#CCD5E6"/>
<stop offset="1" stop-color="#0A3785"/>
</linearGradient>
<linearGradient id="paint19_linear_41_34" x1="432.862" y1="176.549" x2="436.935" y2="180.69" gradientUnits="userSpaceOnUse">
<stop stop-color="#CCD5E6"/>
<stop offset="1" stop-color="#0A3785"/>
</linearGradient>
</defs>
</svg>
