<svg width="2015" height="540" viewBox="0 0 2015 540" fill="none" xmlns="http://www.w3.org/2000/svg">
<rect width="2015" height="540" fill="url(#paint0_linear_44_64)"/>
<rect x="1566.05" y="397.565" width="380.668" height="376.689" rx="81.9022" transform="rotate(163.709 1566.05 397.565)" fill="#254989"/>
<g filter="url(#filter0_d_44_64)">
<rect x="1180.95" y="159.824" width="270.551" height="267.723" rx="65.988" transform="rotate(-9.28438 1180.95 159.824)" fill="url(#paint1_linear_44_64)"/>
</g>
<rect x="1243.96" y="181.309" width="184.737" height="182.806" rx="45.0579" fill="url(#paint2_linear_44_64)"/>
<path d="M429.764 287.203H437.412L441.256 292.149L445.039 296.555L452.167 305.491H443.771L438.866 299.465L436.352 295.89L429.764 287.203ZM452.811 280.719C452.811 285.36 451.931 289.309 450.172 292.565C448.426 295.821 446.043 298.308 443.023 300.026C440.016 301.73 436.636 302.582 432.881 302.582C429.099 302.582 425.704 301.723 422.698 300.005C419.691 298.287 417.315 295.8 415.57 292.544C413.824 289.288 412.951 285.347 412.951 280.719C412.951 276.078 413.824 272.129 415.57 268.873C417.315 265.617 419.691 263.137 422.698 261.433C425.704 259.715 429.099 258.856 432.881 258.856C436.636 258.856 440.016 259.715 443.023 261.433C446.043 263.137 448.426 265.617 450.172 268.873C451.931 272.129 452.811 276.078 452.811 280.719ZM443.688 280.719C443.688 277.713 443.238 275.177 442.337 273.113C441.45 271.048 440.196 269.483 438.575 268.416C436.954 267.349 435.056 266.816 432.881 266.816C430.706 266.816 428.808 267.349 427.187 268.416C425.566 269.483 424.305 271.048 423.404 273.113C422.518 275.177 422.074 277.713 422.074 280.719C422.074 283.726 422.518 286.261 423.404 288.325C424.305 290.39 425.566 291.955 427.187 293.022C428.808 294.089 430.706 294.622 432.881 294.622C435.056 294.622 436.954 294.089 438.575 293.022C440.196 291.955 441.45 290.39 442.337 288.325C443.238 286.261 443.688 283.726 443.688 280.719ZM478.611 288.408V270.079H487.464V302H478.964V296.202H478.632C477.911 298.072 476.713 299.575 475.036 300.712C473.374 301.848 471.344 302.416 468.947 302.416C466.813 302.416 464.936 301.931 463.315 300.961C461.694 299.991 460.426 298.613 459.512 296.825C458.611 295.038 458.154 292.897 458.14 290.404V270.079H466.994V288.824C467.007 290.708 467.513 292.198 468.511 293.292C469.508 294.387 470.845 294.934 472.522 294.934C473.588 294.934 474.586 294.692 475.514 294.207C476.442 293.708 477.191 292.974 477.759 292.004C478.341 291.034 478.625 289.836 478.611 288.408ZM502.228 259.438V302H493.375V259.438H502.228ZM517.252 302.603C515.216 302.603 513.401 302.249 511.807 301.543C510.214 300.822 508.953 299.762 508.025 298.363C507.111 296.95 506.653 295.19 506.653 293.084C506.653 291.311 506.979 289.822 507.63 288.616C508.281 287.411 509.168 286.441 510.29 285.707C511.412 284.973 512.687 284.418 514.114 284.044C515.555 283.67 517.065 283.407 518.645 283.255C520.501 283.061 521.997 282.88 523.134 282.714C524.27 282.534 525.094 282.271 525.607 281.924C526.119 281.578 526.376 281.065 526.376 280.387V280.262C526.376 278.946 525.96 277.927 525.129 277.207C524.311 276.486 523.147 276.126 521.637 276.126C520.044 276.126 518.776 276.48 517.834 277.186C516.892 277.879 516.269 278.752 515.964 279.805L507.776 279.14C508.191 277.2 509.009 275.524 510.228 274.11C511.447 272.683 513.02 271.589 514.945 270.827C516.885 270.051 519.13 269.663 521.679 269.663C523.452 269.663 525.149 269.871 526.77 270.286C528.405 270.702 529.853 271.346 531.114 272.219C532.389 273.092 533.393 274.214 534.127 275.586C534.862 276.944 535.229 278.572 535.229 280.47V302H526.833V297.573H526.583C526.071 298.571 525.385 299.451 524.526 300.213C523.667 300.961 522.635 301.55 521.429 301.979C520.224 302.395 518.832 302.603 517.252 302.603ZM519.788 296.493C521.09 296.493 522.24 296.236 523.237 295.724C524.235 295.197 525.018 294.491 525.586 293.604C526.154 292.717 526.438 291.713 526.438 290.591V287.203C526.161 287.383 525.78 287.549 525.295 287.702C524.824 287.84 524.29 287.972 523.695 288.097C523.099 288.208 522.503 288.311 521.907 288.408C521.312 288.492 520.771 288.568 520.286 288.637C519.247 288.789 518.34 289.032 517.564 289.364C516.788 289.697 516.185 290.147 515.756 290.715C515.326 291.269 515.112 291.962 515.112 292.794C515.112 293.999 515.548 294.92 516.421 295.558C517.308 296.181 518.43 296.493 519.788 296.493ZM545.25 313.971C544.127 313.971 543.074 313.88 542.091 313.7C541.121 313.534 540.317 313.319 539.68 313.056L541.675 306.447C542.714 306.766 543.649 306.939 544.481 306.967C545.326 306.995 546.053 306.801 546.663 306.385C547.286 305.969 547.792 305.263 548.18 304.265L548.699 302.914L537.248 270.079H546.559L553.168 293.521H553.5L560.171 270.079H569.544L557.137 305.45C556.541 307.168 555.731 308.664 554.705 309.939C553.694 311.227 552.412 312.218 550.861 312.911C549.309 313.617 547.439 313.971 545.25 313.971ZM615.038 270.079L603.878 302H593.903L582.743 270.079H592.095L598.724 292.918H599.057L605.665 270.079H615.038ZM626.644 302.603C624.607 302.603 622.792 302.249 621.199 301.543C619.605 300.822 618.345 299.762 617.416 298.363C616.502 296.95 616.045 295.19 616.045 293.084C616.045 291.311 616.37 289.822 617.021 288.616C617.673 287.411 618.559 286.441 619.682 285.707C620.804 284.973 622.078 284.418 623.505 284.044C624.946 283.67 626.457 283.407 628.036 283.255C629.893 283.061 631.389 282.88 632.525 282.714C633.661 282.534 634.485 282.271 634.998 281.924C635.511 281.578 635.767 281.065 635.767 280.387V280.262C635.767 278.946 635.351 277.927 634.52 277.207C633.703 276.486 632.539 276.126 631.029 276.126C629.435 276.126 628.168 276.48 627.225 277.186C626.283 277.879 625.66 278.752 625.355 279.805L617.167 279.14C617.583 277.2 618.4 275.524 619.619 274.11C620.838 272.683 622.411 271.589 624.337 270.827C626.276 270.051 628.521 269.663 631.07 269.663C632.844 269.663 634.541 269.871 636.162 270.286C637.797 270.702 639.244 271.346 640.505 272.219C641.78 273.092 642.784 274.214 643.519 275.586C644.253 276.944 644.62 278.572 644.62 280.47V302H636.224V297.573H635.975C635.462 298.571 634.776 299.451 633.917 300.213C633.058 300.961 632.026 301.55 630.821 301.979C629.615 302.395 628.223 302.603 626.644 302.603ZM629.179 296.493C630.481 296.493 631.631 296.236 632.629 295.724C633.626 295.197 634.409 294.491 634.977 293.604C635.545 292.717 635.829 291.713 635.829 290.591V287.203C635.552 287.383 635.171 287.549 634.686 287.702C634.215 287.84 633.682 287.972 633.086 288.097C632.49 288.208 631.895 288.311 631.299 288.408C630.703 288.492 630.163 288.568 629.678 288.637C628.639 288.789 627.731 289.032 626.955 289.364C626.179 289.697 625.577 290.147 625.147 290.715C624.718 291.269 624.503 291.962 624.503 292.794C624.503 293.999 624.939 294.92 625.812 295.558C626.699 296.181 627.821 296.493 629.179 296.493ZM689.252 279.181L681.147 279.68C681.008 278.987 680.711 278.364 680.253 277.81C679.796 277.242 679.193 276.791 678.445 276.459C677.711 276.112 676.831 275.939 675.806 275.939C674.434 275.939 673.277 276.23 672.335 276.812C671.393 277.38 670.922 278.142 670.922 279.098C670.922 279.86 671.227 280.504 671.837 281.031C672.446 281.557 673.492 281.98 674.975 282.299L680.752 283.462C683.856 284.1 686.169 285.125 687.693 286.538C689.217 287.951 689.979 289.808 689.979 292.108C689.979 294.2 689.363 296.036 688.13 297.615C686.911 299.194 685.234 300.427 683.101 301.314C680.981 302.187 678.535 302.623 675.764 302.623C671.539 302.623 668.172 301.744 665.664 299.984C663.17 298.211 661.709 295.8 661.279 292.752L669.987 292.295C670.25 293.583 670.888 294.567 671.899 295.246C672.91 295.911 674.206 296.243 675.785 296.243C677.337 296.243 678.584 295.945 679.526 295.35C680.482 294.74 680.967 293.957 680.981 293.001C680.967 292.198 680.627 291.54 679.962 291.027C679.297 290.501 678.272 290.099 676.887 289.822L671.359 288.72C668.241 288.097 665.921 287.016 664.397 285.478C662.886 283.94 662.131 281.98 662.131 279.597C662.131 277.546 662.686 275.78 663.794 274.297C664.916 272.815 666.489 271.672 668.511 270.868C670.548 270.065 672.931 269.663 675.661 269.663C679.692 269.663 682.865 270.515 685.179 272.219C687.506 273.923 688.864 276.244 689.252 279.181ZM708.807 302.623C705.578 302.623 702.787 301.938 700.431 300.566C698.09 299.181 696.282 297.255 695.007 294.789C693.733 292.309 693.095 289.434 693.095 286.164C693.095 282.867 693.733 279.985 695.007 277.519C696.282 275.039 698.09 273.113 700.431 271.741C702.787 270.356 705.578 269.663 708.807 269.663C712.035 269.663 714.82 270.356 717.161 271.741C719.516 273.113 721.331 275.039 722.606 277.519C723.881 279.985 724.518 282.867 724.518 286.164C724.518 289.434 723.881 292.309 722.606 294.789C721.331 297.255 719.516 299.181 717.161 300.566C714.82 301.938 712.035 302.623 708.807 302.623ZM708.848 295.765C710.317 295.765 711.543 295.35 712.527 294.518C713.51 293.673 714.251 292.523 714.75 291.069C715.263 289.614 715.519 287.958 715.519 286.102C715.519 284.245 715.263 282.589 714.75 281.135C714.251 279.68 713.51 278.53 712.527 277.685C711.543 276.84 710.317 276.417 708.848 276.417C707.366 276.417 706.119 276.84 705.107 277.685C704.11 278.53 703.355 279.68 702.842 281.135C702.343 282.589 702.094 284.245 702.094 286.102C702.094 287.958 702.343 289.614 702.842 291.069C703.355 292.523 704.11 293.673 705.107 294.518C706.119 295.35 707.366 295.765 708.848 295.765ZM740.867 302.52C738.442 302.52 736.246 301.896 734.279 300.649C732.325 299.388 730.774 297.539 729.624 295.1C728.488 292.648 727.919 289.642 727.919 286.081C727.919 282.423 728.508 279.382 729.686 276.958C730.864 274.519 732.429 272.697 734.383 271.492C736.35 270.273 738.505 269.663 740.846 269.663C742.633 269.663 744.123 269.968 745.314 270.577C746.519 271.173 747.489 271.921 748.224 272.822C748.972 273.709 749.54 274.581 749.928 275.44H750.198V259.438H759.03V302H750.302V296.888H749.928C749.512 297.774 748.923 298.654 748.161 299.527C747.413 300.386 746.436 301.099 745.231 301.667C744.039 302.236 742.585 302.52 740.867 302.52ZM743.672 295.474C745.099 295.474 746.305 295.086 747.288 294.311C748.286 293.521 749.048 292.419 749.574 291.006C750.115 289.593 750.385 287.937 750.385 286.039C750.385 284.141 750.122 282.493 749.595 281.093C749.069 279.694 748.307 278.613 747.309 277.851C746.312 277.089 745.099 276.708 743.672 276.708C742.218 276.708 740.991 277.103 739.994 277.893C738.996 278.682 738.241 279.777 737.729 281.176C737.216 282.576 736.96 284.197 736.96 286.039C736.96 287.896 737.216 289.538 737.729 290.965C738.255 292.378 739.01 293.486 739.994 294.29C740.991 295.08 742.218 295.474 743.672 295.474ZM776.902 302.52C774.477 302.52 772.281 301.896 770.314 300.649C768.36 299.388 766.808 297.539 765.658 295.1C764.522 292.648 763.954 289.642 763.954 286.081C763.954 282.423 764.543 279.382 765.721 276.958C766.898 274.519 768.464 272.697 770.417 271.492C772.385 270.273 774.539 269.663 776.881 269.663C778.668 269.663 780.157 269.968 781.349 270.577C782.554 271.173 783.524 271.921 784.258 272.822C785.007 273.709 785.575 274.581 785.963 275.44H786.233V259.438H795.065V302H786.337V296.888H785.963C785.547 297.774 784.958 298.654 784.196 299.527C783.448 300.386 782.471 301.099 781.266 301.667C780.074 302.236 778.62 302.52 776.902 302.52ZM779.707 295.474C781.134 295.474 782.34 295.086 783.323 294.311C784.321 293.521 785.083 292.419 785.609 291.006C786.15 289.593 786.42 287.937 786.42 286.039C786.42 284.141 786.156 282.493 785.63 281.093C785.104 279.694 784.342 278.613 783.344 277.851C782.346 277.089 781.134 276.708 779.707 276.708C778.252 276.708 777.026 277.103 776.029 277.893C775.031 278.682 774.276 279.777 773.763 281.176C773.251 282.576 772.994 284.197 772.994 286.039C772.994 287.896 773.251 289.538 773.763 290.965C774.29 292.378 775.045 293.486 776.029 294.29C777.026 295.08 778.252 295.474 779.707 295.474ZM810.276 302.603C808.24 302.603 806.425 302.249 804.831 301.543C803.238 300.822 801.977 299.762 801.049 298.363C800.134 296.95 799.677 295.19 799.677 293.084C799.677 291.311 800.003 289.822 800.654 288.616C801.305 287.411 802.192 286.441 803.314 285.707C804.436 284.973 805.711 284.418 807.138 284.044C808.579 283.67 810.089 283.407 811.669 283.255C813.525 283.061 815.021 282.88 816.158 282.714C817.294 282.534 818.118 282.271 818.631 281.924C819.143 281.578 819.4 281.065 819.4 280.387V280.262C819.4 278.946 818.984 277.927 818.153 277.207C817.335 276.486 816.171 276.126 814.661 276.126C813.068 276.126 811.8 276.48 810.858 277.186C809.916 277.879 809.292 278.752 808.988 279.805L800.8 279.14C801.215 277.2 802.033 275.524 803.252 274.11C804.471 272.683 806.044 271.589 807.969 270.827C809.909 270.051 812.153 269.663 814.703 269.663C816.476 269.663 818.173 269.871 819.794 270.286C821.429 270.702 822.877 271.346 824.138 272.219C825.412 273.092 826.417 274.214 827.151 275.586C827.886 276.944 828.253 278.572 828.253 280.47V302H819.857V297.573H819.607C819.095 298.571 818.409 299.451 817.55 300.213C816.691 300.961 815.659 301.55 814.453 301.979C813.248 302.395 811.856 302.603 810.276 302.603ZM812.812 296.493C814.114 296.493 815.264 296.236 816.261 295.724C817.259 295.197 818.042 294.491 818.61 293.604C819.178 292.717 819.462 291.713 819.462 290.591V287.203C819.185 287.383 818.804 287.549 818.319 287.702C817.848 287.84 817.314 287.972 816.719 288.097C816.123 288.208 815.527 288.311 814.931 288.408C814.336 288.492 813.795 288.568 813.31 288.637C812.271 288.789 811.364 289.032 810.588 289.364C809.812 289.697 809.209 290.147 808.78 290.715C808.35 291.269 808.136 291.962 808.136 292.794C808.136 293.999 808.572 294.92 809.445 295.558C810.332 296.181 811.454 296.493 812.812 296.493ZM846.325 302V270.079H855.178V302H846.325ZM850.772 265.964C849.456 265.964 848.327 265.527 847.385 264.655C846.457 263.768 845.993 262.708 845.993 261.475C845.993 260.256 846.457 259.21 847.385 258.337C848.327 257.45 849.456 257.007 850.772 257.007C852.089 257.007 853.211 257.45 854.139 258.337C855.081 259.21 855.552 260.256 855.552 261.475C855.552 262.708 855.081 263.768 854.139 264.655C853.211 265.527 852.089 265.964 850.772 265.964ZM869.953 283.545V302H861.1V270.079H869.537V275.711H869.911C870.618 273.854 871.803 272.385 873.465 271.305C875.128 270.21 877.144 269.663 879.513 269.663C881.729 269.663 883.662 270.148 885.311 271.118C886.96 272.088 888.241 273.473 889.156 275.274C890.07 277.061 890.527 279.195 890.527 281.675V302H881.674V283.255C881.688 281.301 881.189 279.777 880.178 278.682C879.166 277.574 877.774 277.02 876 277.02C874.809 277.02 873.756 277.276 872.842 277.789C871.941 278.301 871.234 279.05 870.722 280.033C870.223 281.003 869.967 282.174 869.953 283.545ZM913.313 270.079V276.729H894.09V270.079H913.313ZM898.454 262.431H907.307V292.191C907.307 293.008 907.432 293.646 907.681 294.103C907.931 294.546 908.277 294.858 908.721 295.038C909.178 295.218 909.704 295.308 910.3 295.308C910.716 295.308 911.131 295.274 911.547 295.204C911.963 295.121 912.281 295.059 912.503 295.017L913.895 301.605C913.452 301.744 912.828 301.903 912.025 302.083C911.221 302.277 910.245 302.395 909.095 302.436C906.961 302.52 905.091 302.236 903.483 301.584C901.89 300.933 900.65 299.922 899.763 298.55C898.877 297.179 898.44 295.447 898.454 293.355V262.431ZM932.115 302.623C928.831 302.623 926.005 301.958 923.635 300.628C921.28 299.284 919.465 297.386 918.191 294.934C916.916 292.468 916.279 289.552 916.279 286.185C916.279 282.901 916.916 280.019 918.191 277.539C919.465 275.059 921.259 273.127 923.573 271.741C925.901 270.356 928.63 269.663 931.761 269.663C933.867 269.663 935.828 270.002 937.643 270.681C939.471 271.346 941.065 272.351 942.422 273.695C943.794 275.039 944.861 276.729 945.623 278.766C946.385 280.788 946.766 283.158 946.766 285.873V288.305H919.812V282.818H938.432C938.432 281.543 938.155 280.414 937.601 279.431C937.047 278.447 936.278 277.678 935.294 277.124C934.324 276.556 933.195 276.272 931.907 276.272C930.563 276.272 929.371 276.583 928.332 277.207C927.307 277.817 926.503 278.641 925.921 279.68C925.34 280.705 925.042 281.848 925.028 283.109V288.325C925.028 289.905 925.319 291.269 925.901 292.419C926.496 293.569 927.335 294.456 928.415 295.08C929.496 295.703 930.778 296.015 932.26 296.015C933.244 296.015 934.144 295.876 934.962 295.599C935.779 295.322 936.479 294.906 937.061 294.352C937.643 293.798 938.086 293.119 938.391 292.316L946.579 292.856C946.163 294.823 945.311 296.541 944.023 298.01C942.748 299.465 941.099 300.601 939.077 301.418C937.068 302.222 934.747 302.623 932.115 302.623ZM951.373 302V270.079H959.956V275.648H960.288C960.87 273.667 961.847 272.171 963.219 271.159C964.59 270.134 966.17 269.621 967.957 269.621C968.4 269.621 968.878 269.649 969.391 269.705C969.904 269.76 970.354 269.836 970.742 269.933V277.789C970.326 277.664 969.751 277.553 969.017 277.456C968.283 277.359 967.611 277.311 967.001 277.311C965.699 277.311 964.535 277.595 963.51 278.163C962.498 278.717 961.695 279.493 961.099 280.49C960.517 281.488 960.226 282.638 960.226 283.94V302H951.373ZM992.915 270.079V276.729H973.213V270.079H992.915ZM977.723 302V267.772C977.723 265.458 978.173 263.539 979.074 262.015C979.988 260.491 981.235 259.348 982.815 258.586C984.394 257.824 986.188 257.443 988.197 257.443C989.555 257.443 990.795 257.547 991.917 257.755C993.053 257.963 993.899 258.15 994.453 258.316L992.873 264.966C992.527 264.855 992.098 264.751 991.585 264.655C991.086 264.558 990.573 264.509 990.047 264.509C988.745 264.509 987.837 264.814 987.325 265.423C986.812 266.019 986.556 266.857 986.556 267.938V302H977.723ZM1010.56 302.623C1007.27 302.623 1004.45 301.958 1002.08 300.628C999.723 299.284 997.908 297.386 996.634 294.934C995.359 292.468 994.722 289.552 994.722 286.185C994.722 282.901 995.359 280.019 996.634 277.539C997.908 275.059 999.702 273.127 1002.02 271.741C1004.34 270.356 1007.07 269.663 1010.2 269.663C1012.31 269.663 1014.27 270.002 1016.09 270.681C1017.91 271.346 1019.51 272.351 1020.87 273.695C1022.24 275.039 1023.3 276.729 1024.07 278.766C1024.83 280.788 1025.21 283.158 1025.21 285.873V288.305H998.255V282.818H1016.88C1016.88 281.543 1016.6 280.414 1016.04 279.431C1015.49 278.447 1014.72 277.678 1013.74 277.124C1012.77 276.556 1011.64 276.272 1010.35 276.272C1009.01 276.272 1007.81 276.583 1006.78 277.207C1005.75 277.817 1004.95 278.641 1004.36 279.68C1003.78 280.705 1003.48 281.848 1003.47 283.109V288.325C1003.47 289.905 1003.76 291.269 1004.34 292.419C1004.94 293.569 1005.78 294.456 1006.86 295.08C1007.94 295.703 1009.22 296.015 1010.7 296.015C1011.69 296.015 1012.59 295.876 1013.4 295.599C1014.22 295.322 1014.92 294.906 1015.5 294.352C1016.09 293.798 1016.53 293.119 1016.83 292.316L1025.02 292.856C1024.61 294.823 1023.75 296.541 1022.47 298.01C1021.19 299.465 1019.54 300.601 1017.52 301.418C1015.51 302.222 1013.19 302.623 1010.56 302.623ZM1034.42 313.971C1033.3 313.971 1032.25 313.88 1031.27 313.7C1030.3 313.534 1029.49 313.319 1028.85 313.056L1030.85 306.447C1031.89 306.766 1032.82 306.939 1033.66 306.967C1034.5 306.995 1035.23 306.801 1035.84 306.385C1036.46 305.969 1036.97 305.263 1037.35 304.265L1037.87 302.914L1026.42 270.079H1035.73L1042.34 293.521H1042.67L1049.35 270.079H1058.72L1046.31 305.45C1045.72 307.168 1044.91 308.664 1043.88 309.939C1042.87 311.227 1041.59 312.218 1040.04 312.911C1038.48 313.617 1036.61 313.971 1034.42 313.971ZM1088.64 279.181L1080.53 279.68C1080.39 278.987 1080.1 278.364 1079.64 277.81C1079.18 277.242 1078.58 276.791 1077.83 276.459C1077.1 276.112 1076.22 275.939 1075.19 275.939C1073.82 275.939 1072.66 276.23 1071.72 276.812C1070.78 277.38 1070.31 278.142 1070.31 279.098C1070.31 279.86 1070.61 280.504 1071.22 281.031C1071.83 281.557 1072.88 281.98 1074.36 282.299L1080.14 283.462C1083.24 284.1 1085.56 285.125 1087.08 286.538C1088.6 287.951 1089.37 289.808 1089.37 292.108C1089.37 294.2 1088.75 296.036 1087.52 297.615C1086.3 299.194 1084.62 300.427 1082.49 301.314C1080.37 302.187 1077.92 302.623 1075.15 302.623C1070.93 302.623 1067.56 301.744 1065.05 299.984C1062.56 298.211 1061.1 295.8 1060.67 292.752L1069.37 292.295C1069.64 293.583 1070.27 294.567 1071.29 295.246C1072.3 295.911 1073.59 296.243 1075.17 296.243C1076.72 296.243 1077.97 295.945 1078.91 295.35C1079.87 294.74 1080.35 293.957 1080.37 293.001C1080.35 292.198 1080.01 291.54 1079.35 291.027C1078.68 290.501 1077.66 290.099 1076.27 289.822L1070.74 288.72C1067.63 288.097 1065.31 287.016 1063.78 285.478C1062.27 283.94 1061.52 281.98 1061.52 279.597C1061.52 277.546 1062.07 275.78 1063.18 274.297C1064.3 272.815 1065.87 271.672 1067.9 270.868C1069.93 270.065 1072.32 269.663 1075.05 269.663C1079.08 269.663 1082.25 270.515 1084.57 272.219C1086.89 273.923 1088.25 276.244 1088.64 279.181Z" fill="#BBBFC7"/>
<path d="M1331.94 297.511C1332.44 297.819 1332.97 298.08 1333.42 298.44C1336.05 300.525 1338.68 302.617 1341.27 304.745C1342.73 305.936 1342.74 306.827 1341.37 308.156C1339.92 309.568 1338.14 309.739 1336.29 309.324C1333.74 308.753 1331.84 307.235 1330.8 304.863C1329.67 302.309 1328.07 300.388 1325.37 299.421C1324.99 299.284 1324.64 298.62 1324.55 298.146C1323.73 293.763 1321.2 291.337 1316.84 290.709C1316.35 290.638 1315.8 290.122 1315.49 289.665C1314.87 288.719 1314.54 287.561 1313.85 286.689C1311.55 283.829 1308.39 283.507 1305.24 284.535C1303.13 285.22 1301.85 284.862 1300.31 283.391C1298.41 281.576 1295.92 281.045 1293.27 281.209C1292.73 281.242 1292.06 280.974 1291.63 280.626C1290.31 279.562 1289.07 278.397 1287.81 277.262C1286.61 276.179 1286.46 275.267 1287.11 273.774C1290.71 265.536 1294.3 257.296 1297.87 249.051C1298.76 247.023 1299.02 246.824 1301.24 246.836C1303.12 246.848 1304.99 246.839 1306.87 246.839C1306.91 246.957 1306.95 247.075 1307 247.194C1306.74 247.504 1306.48 247.815 1306.22 248.125C1304.92 249.66 1303.51 251.115 1302.35 252.75C1300.24 255.728 1300.91 258.877 1303.93 260.94C1307.51 263.38 1311.41 263.447 1315.01 261.061C1318.14 258.993 1321.27 256.924 1324.33 254.759C1327.08 252.814 1329.93 252.605 1332.78 254.228C1336.76 256.486 1340.71 258.813 1344.54 261.307C1353.64 267.228 1362.67 273.253 1371.71 279.257C1374.73 281.259 1375.25 283.905 1373.02 286.795C1372.1 288.001 1370.78 289.011 1369.45 289.778C1367.81 290.721 1366.07 290.522 1364.41 289.454C1358.7 285.777 1352.97 282.145 1347.24 278.506C1346.81 278.233 1346.35 277.946 1345.87 277.845C1345.5 277.766 1345.07 277.975 1344.67 278.055C1344.8 278.434 1344.84 278.877 1345.07 279.178C1345.33 279.51 1345.74 279.721 1346.1 279.965C1351.39 283.564 1356.67 287.158 1361.96 290.761C1363.97 292.136 1364.24 293.55 1362.88 295.571C1361.67 297.372 1359.94 298.414 1357.82 298.762C1356.48 298.98 1355.27 298.665 1354.13 297.864C1349.86 294.877 1345.56 291.93 1341.26 288.989C1340.75 288.639 1340.17 288.352 1339.57 288.162C1339.18 288.037 1338.72 288.139 1338.29 288.139C1338.23 288.26 1338.18 288.383 1338.13 288.504C1338.59 288.944 1339.01 289.439 1339.52 289.821C1343.42 292.773 1347.34 295.708 1351.26 298.637C1353.47 300.288 1353.46 302.366 1351.21 303.998C1349.09 305.531 1346.51 305.567 1344.36 304.088C1341.17 301.902 1337.99 299.691 1334.78 297.542C1334.08 297.068 1333.29 296.476 1331.94 297.511Z" fill="url(#paint3_linear_44_64)"/>
<path d="M1334.77 233.474C1338.42 234.173 1342.29 234.884 1346.15 235.666C1348.47 236.135 1350.79 236.639 1353.07 237.258C1357.89 238.566 1362.75 238.644 1367.62 237.77C1369.86 237.367 1371.3 238.047 1372.59 239.942C1378.05 247.971 1382.29 256.65 1386.28 265.456C1387.33 267.769 1386.98 269.098 1384.97 270.631C1382.43 272.564 1379.81 274.405 1377.21 276.26C1375.42 277.53 1373.7 277.428 1371.84 276.205C1361 269.069 1350.14 261.955 1339.22 254.937C1336.82 253.392 1334.22 252.094 1331.58 250.99C1329.05 249.928 1326.45 250.296 1324.12 251.833C1320.79 254.022 1317.47 256.228 1314.17 258.462C1311.87 260.021 1309.47 260.632 1306.8 259.521C1303.55 258.171 1302.72 255.487 1304.87 252.736C1307.81 248.974 1310.76 245.211 1313.9 241.619C1314.91 240.459 1316.45 239.615 1317.91 239.006C1321.76 237.395 1325.68 235.919 1329.62 234.538C1331.16 233.998 1332.84 233.858 1334.77 233.474Z" fill="url(#paint4_linear_44_64)"/>
<path d="M1289.77 239.382C1291.91 239.544 1294.12 240.188 1295.97 241.749C1296.9 242.531 1297.28 243.476 1296.77 244.692C1292.62 254.479 1288.47 264.269 1284.36 274.073C1283.2 276.835 1281.5 277.548 1278.44 276.944C1277.32 276.721 1276.19 276.188 1275.21 275.563C1272.77 273.999 1272.17 271.658 1273.3 268.988C1277 260.25 1280.7 251.508 1284.39 242.766C1285.36 240.472 1287.09 239.318 1289.77 239.382Z" fill="url(#paint5_linear_44_64)"/>
<path d="M1382.25 230.37C1383.25 230.363 1384.62 231.351 1385.57 233.014C1387.67 236.679 1389.81 240.314 1391.83 244.019C1394.34 248.627 1396.75 253.29 1399.18 257.938C1400.38 260.234 1400.18 261.912 1398.41 263.764C1396.54 265.714 1394.31 267.093 1391.62 267.605C1390.78 267.764 1390.09 267.65 1389.66 266.742C1387.13 261.442 1384.74 256.067 1381.97 250.897C1379.32 245.969 1376.29 241.25 1373.38 236.461C1372.47 234.955 1372.51 234.322 1373.87 233.261C1375.89 231.68 1379.17 230.399 1382.25 230.37Z" fill="url(#paint6_linear_44_64)"/>
<path d="M1308.25 287.002C1309.78 287.085 1311.25 287.582 1312.1 289.125C1312.93 290.624 1312.72 292.148 1311.78 293.489C1310.65 295.1 1309.44 296.659 1308.14 298.135C1306.98 299.457 1305.05 299.63 1303.09 298.801C1301.33 298.054 1300.23 296.507 1300.24 294.813C1300.27 291.57 1304.91 286.976 1308.25 287.002Z" fill="url(#paint7_linear_44_64)"/>
<path d="M1315.22 305.268C1312.38 305.275 1310.24 303.662 1309.95 301.409C1309.87 300.809 1310.03 300.035 1310.37 299.554C1311.47 298.019 1312.67 296.547 1313.9 295.114C1315.37 293.401 1317.94 293.37 1319.96 294.967C1321.84 296.457 1322.16 298.547 1320.74 300.471C1319.9 301.613 1319 302.71 1318.11 303.809C1317.29 304.818 1316.21 305.306 1315.22 305.268Z" fill="url(#paint8_linear_44_64)"/>
<path d="M1294.94 283.884C1296.64 283.995 1298.38 284.779 1299.52 286.597C1300.93 288.871 1299.77 291.536 1297.16 292.086C1294.18 292.719 1291.02 290.328 1291.01 287.433C1291 285.293 1292.41 283.879 1294.94 283.884Z" fill="url(#paint9_linear_44_64)"/>
<path d="M1322.84 301.914C1324.88 302.11 1326.35 302.729 1327.5 303.965C1328.44 304.975 1328.53 306.271 1327.83 307.585C1326.28 310.466 1321.98 310.779 1320.02 308.154C1319.2 307.055 1319.16 305.986 1319.94 304.892C1320.46 304.152 1320.98 303.394 1321.6 302.74C1322 302.323 1322.58 302.079 1322.84 301.914Z" fill="url(#paint10_linear_44_64)"/>
<rect x="400" y="123" width="78.3216" height="77.5029" rx="19.1028" fill="url(#paint11_linear_44_64)"/>
<path d="M496 176.318V143.574H518.064V149.282H502.923V157.084H516.929V162.792H502.923V170.61H518.128V176.318H496ZM533.603 186.039C531.397 186.039 529.505 185.735 527.927 185.127C526.361 184.531 525.114 183.715 524.186 182.681C523.259 181.647 522.657 180.486 522.379 179.196L528.679 178.348C528.871 178.839 529.175 179.297 529.59 179.723C530.006 180.15 530.555 180.491 531.237 180.747C531.93 181.013 532.772 181.146 533.763 181.146C535.245 181.146 536.465 180.784 537.425 180.059C538.395 179.345 538.879 178.146 538.879 176.462V171.969H538.592C538.293 172.651 537.846 173.296 537.249 173.904C536.652 174.511 535.884 175.007 534.946 175.391C534.008 175.774 532.889 175.966 531.589 175.966C529.745 175.966 528.066 175.54 526.552 174.687C525.05 173.824 523.85 172.507 522.955 170.738C522.07 168.958 521.628 166.709 521.628 163.991C521.628 161.209 522.081 158.885 522.987 157.02C523.893 155.155 525.098 153.758 526.6 152.831C528.114 151.904 529.771 151.44 531.573 151.44C532.948 151.44 534.099 151.674 535.026 152.143C535.954 152.602 536.7 153.177 537.265 153.87C537.84 154.552 538.283 155.224 538.592 155.885H538.848V151.76H545.611V176.558C545.611 178.647 545.099 180.395 544.076 181.802C543.052 183.209 541.635 184.264 539.823 184.968C538.021 185.682 535.948 186.039 533.603 186.039ZM533.747 170.85C534.845 170.85 535.772 170.578 536.529 170.034C537.297 169.48 537.883 168.691 538.288 167.668C538.704 166.634 538.911 165.398 538.911 163.959C538.911 162.52 538.709 161.273 538.304 160.218C537.899 159.152 537.313 158.326 536.545 157.739C535.778 157.153 534.845 156.86 533.747 156.86C532.628 156.86 531.685 157.164 530.917 157.771C530.15 158.368 529.569 159.2 529.175 160.266C528.78 161.331 528.583 162.563 528.583 163.959C528.583 165.377 528.78 166.602 529.175 167.636C529.58 168.659 530.16 169.454 530.917 170.018C531.685 170.573 532.628 170.85 533.747 170.85ZM557.133 176.782C555.566 176.782 554.17 176.51 552.944 175.966C551.718 175.412 550.748 174.596 550.034 173.52C549.331 172.433 548.979 171.079 548.979 169.459C548.979 168.095 549.229 166.949 549.73 166.021C550.231 165.094 550.914 164.348 551.777 163.783C552.64 163.218 553.621 162.792 554.719 162.504C555.827 162.216 556.989 162.014 558.204 161.896C559.633 161.747 560.784 161.609 561.658 161.481C562.532 161.342 563.166 161.14 563.56 160.873C563.955 160.607 564.152 160.212 564.152 159.69V159.594C564.152 158.581 563.832 157.798 563.193 157.244C562.564 156.689 561.668 156.412 560.507 156.412C559.281 156.412 558.306 156.684 557.581 157.228C556.856 157.761 556.376 158.432 556.142 159.242L549.842 158.731C550.162 157.238 550.791 155.949 551.729 154.861C552.667 153.764 553.877 152.922 555.358 152.335C556.851 151.738 558.577 151.44 560.539 151.44C561.903 151.44 563.209 151.6 564.456 151.92C565.713 152.239 566.827 152.735 567.797 153.407C568.778 154.078 569.551 154.941 570.116 155.997C570.681 157.041 570.963 158.294 570.963 159.754V176.318H564.504V172.912H564.312C563.917 173.68 563.39 174.357 562.729 174.943C562.068 175.518 561.274 175.971 560.347 176.302C559.419 176.622 558.348 176.782 557.133 176.782ZM559.084 172.081C560.086 172.081 560.97 171.884 561.738 171.489C562.505 171.084 563.107 170.541 563.544 169.859C563.981 169.176 564.2 168.404 564.2 167.54V164.934C563.987 165.073 563.694 165.201 563.321 165.318C562.958 165.424 562.548 165.526 562.089 165.622C561.631 165.707 561.173 165.787 560.714 165.861C560.256 165.925 559.84 165.984 559.467 166.037C558.668 166.155 557.97 166.341 557.373 166.597C556.776 166.853 556.312 167.199 555.982 167.636C555.651 168.063 555.486 168.595 555.486 169.235C555.486 170.162 555.822 170.871 556.494 171.361C557.176 171.841 558.039 172.081 559.084 172.081ZM582.158 143.574V176.318H575.347V143.574H582.158ZM586.713 176.318V151.76H593.524V176.318H586.713ZM590.135 148.594C589.122 148.594 588.254 148.258 587.529 147.587C586.815 146.905 586.457 146.089 586.457 145.141C586.457 144.203 586.815 143.398 587.529 142.726C588.254 142.044 589.122 141.703 590.135 141.703C591.147 141.703 592.011 142.044 592.725 142.726C593.45 143.398 593.812 144.203 593.812 145.141C593.812 146.089 593.45 146.905 592.725 147.587C592.011 148.258 591.147 148.594 590.135 148.594ZM604.251 169.251L604.267 161.081H605.259L613.125 151.76H620.943L610.375 164.103H608.76L604.251 169.251ZM598.08 176.318V143.574H604.891V176.318H598.08ZM613.429 176.318L606.202 165.622L610.743 160.809L621.407 176.318H613.429Z" fill="#1B3363"/>
<path d="M437.14 174.766C437.369 174.909 437.616 175.029 437.827 175.196C439.043 176.162 440.259 177.13 441.461 178.116C442.135 178.667 442.138 179.08 441.505 179.695C440.834 180.349 440.012 180.428 439.154 180.236C437.973 179.972 437.092 179.269 436.609 178.17C436.089 176.988 435.345 176.098 434.099 175.65C433.92 175.587 433.759 175.28 433.717 175.06C433.338 173.031 432.166 171.907 430.148 171.617C429.918 171.584 429.663 171.344 429.524 171.133C429.237 170.695 429.084 170.159 428.761 169.755C427.7 168.431 426.234 168.281 424.775 168.758C423.801 169.075 423.206 168.909 422.493 168.228C421.614 167.387 420.458 167.142 419.234 167.217C418.984 167.233 418.674 167.109 418.475 166.947C417.864 166.455 417.29 165.915 416.706 165.39C416.15 164.888 416.079 164.466 416.38 163.775C418.046 159.96 419.709 156.145 421.365 152.327C421.773 151.388 421.897 151.296 422.922 151.301C423.792 151.307 424.661 151.302 425.531 151.302C425.551 151.357 425.569 151.412 425.589 151.467C425.469 151.611 425.35 151.754 425.229 151.898C424.628 152.609 423.973 153.283 423.437 154.039C422.461 155.418 422.773 156.876 424.171 157.832C425.826 158.962 427.631 158.993 429.3 157.888C430.748 156.93 432.198 155.973 433.614 154.97C434.887 154.069 436.206 153.973 437.529 154.724C439.371 155.77 441.199 156.847 442.974 158.002C447.187 160.744 451.367 163.533 455.554 166.313C456.951 167.24 457.195 168.466 456.163 169.804C455.733 170.363 455.124 170.83 454.507 171.185C453.749 171.622 452.942 171.53 452.175 171.035C449.532 169.332 446.877 167.651 444.224 165.966C444.025 165.839 443.811 165.707 443.587 165.66C443.417 165.623 443.22 165.72 443.034 165.757C443.094 165.933 443.114 166.138 443.221 166.277C443.338 166.431 443.53 166.528 443.696 166.641C446.143 168.308 448.592 169.972 451.039 171.641C451.97 172.277 452.096 172.932 451.465 173.868C450.904 174.701 450.105 175.184 449.122 175.345C448.504 175.446 447.943 175.3 447.414 174.93C445.438 173.546 443.448 172.182 441.457 170.82C441.219 170.658 440.948 170.525 440.674 170.437C440.493 170.379 440.277 170.426 440.078 170.426C440.054 170.482 440.03 170.539 440.007 170.595C440.219 170.799 440.415 171.029 440.648 171.205C442.456 172.572 444.271 173.931 446.086 175.287C447.11 176.052 447.102 177.014 446.06 177.77C445.083 178.48 443.887 178.496 442.888 177.812C441.412 176.799 439.942 175.775 438.453 174.78C438.128 174.561 437.763 174.287 437.14 174.766Z" fill="url(#paint12_linear_44_64)"/>
<path d="M438.45 145.114C440.139 145.438 441.933 145.767 443.72 146.129C444.794 146.346 445.867 146.58 446.923 146.866C449.155 147.472 451.405 147.508 453.66 147.103C454.698 146.916 455.363 147.231 455.96 148.109C458.49 151.827 460.451 155.845 462.303 159.923C462.789 160.994 462.627 161.609 461.693 162.319C460.516 163.214 459.306 164.067 458.1 164.926C457.274 165.514 456.477 165.467 455.616 164.901C450.595 161.596 445.567 158.302 440.512 155.052C439.4 154.337 438.195 153.736 436.974 153.225C435.799 152.733 434.598 152.903 433.516 153.615C431.975 154.629 430.438 155.65 428.911 156.685C427.846 157.407 426.736 157.69 425.497 157.175C423.992 156.55 423.611 155.307 424.606 154.033C425.966 152.291 427.332 150.549 428.785 148.886C429.254 148.348 429.966 147.958 430.641 147.676C432.426 146.93 434.239 146.246 436.066 145.607C436.779 145.356 437.558 145.292 438.45 145.114Z" fill="url(#paint13_linear_44_64)"/>
<path d="M417.614 147.85C418.605 147.925 419.625 148.223 420.483 148.946C420.912 149.308 421.091 149.746 420.853 150.309C418.933 154.84 417.012 159.374 415.106 163.913C414.57 165.192 413.782 165.523 412.367 165.243C411.845 165.14 411.325 164.893 410.872 164.603C409.741 163.879 409.461 162.795 409.985 161.559C411.701 157.513 413.413 153.465 415.121 149.417C415.569 148.355 416.37 147.82 417.614 147.85Z" fill="url(#paint14_linear_44_64)"/>
<path d="M460.432 143.677C460.895 143.673 461.531 144.131 461.972 144.901C462.942 146.598 463.937 148.281 464.872 149.997C466.033 152.131 467.149 154.29 468.275 156.442C468.83 157.505 468.738 158.282 467.916 159.14C467.052 160.043 466.019 160.681 464.772 160.918C464.385 160.992 464.065 160.939 463.865 160.519C462.693 158.065 461.587 155.575 460.302 153.182C459.078 150.9 457.673 148.714 456.329 146.497C455.905 145.8 455.924 145.507 456.553 145.015C457.487 144.283 459.01 143.69 460.432 143.677Z" fill="url(#paint15_linear_44_64)"/>
<path d="M426.169 169.9C426.88 169.938 427.558 170.169 427.954 170.883C428.338 171.577 428.24 172.283 427.805 172.904C427.282 173.65 426.719 174.372 426.118 175.055C425.58 175.667 424.688 175.747 423.781 175.363C422.966 175.018 422.453 174.301 422.46 173.517C422.473 172.015 424.621 169.888 426.169 169.9Z" fill="url(#paint16_linear_44_64)"/>
<path d="M429.396 178.358C428.082 178.361 427.09 177.614 426.956 176.571C426.921 176.293 426.993 175.935 427.153 175.712C427.661 175.001 428.215 174.32 428.786 173.656C429.468 172.863 430.655 172.849 431.591 173.588C432.464 174.278 432.612 175.246 431.955 176.136C431.566 176.665 431.149 177.173 430.734 177.682C430.354 178.15 429.853 178.376 429.396 178.358Z" fill="url(#paint17_linear_44_64)"/>
<path d="M420.008 168.456C420.794 168.508 421.602 168.871 422.126 169.712C422.782 170.766 422.242 172 421.037 172.254C419.654 172.547 418.19 171.44 418.188 170.1C418.184 169.109 418.837 168.454 420.008 168.456Z" fill="url(#paint18_linear_44_64)"/>
<path d="M432.926 176.805C433.871 176.896 434.55 177.182 435.084 177.755C435.519 178.222 435.561 178.822 435.234 179.431C434.518 180.765 432.525 180.91 431.618 179.694C431.238 179.185 431.22 178.691 431.581 178.184C431.824 177.841 432.063 177.49 432.352 177.188C432.536 176.994 432.805 176.881 432.926 176.805Z" fill="url(#paint19_linear_44_64)"/>
<defs>
<filter id="filter0_d_44_64" x="1129.26" y="64.4926" width="413.564" height="411.229" filterUnits="userSpaceOnUse" color-interpolation-filters="sRGB">
<feFlood flood-opacity="0" result="BackgroundImageFix"/>
<feColorMatrix in="SourceAlpha" type="matrix" values="0 0 0 0 0 0 0 0 0 0 0 0 0 0 0 0 0 0 127 0" result="hardAlpha"/>
<feMorphology radius="20.3014" operator="dilate" in="SourceAlpha" result="effect1_dropShadow_44_64"/>
<feOffset/>
<feGaussianBlur stdDeviation="20.5763"/>
<feComposite in2="hardAlpha" operator="out"/>
<feColorMatrix type="matrix" values="0 0 0 0 0 0 0 0 0 0 0 0 0 0 0 0 0 0 0.25 0"/>
<feBlend mode="normal" in2="BackgroundImageFix" result="effect1_dropShadow_44_64"/>
<feBlend mode="normal" in="SourceGraphic" in2="effect1_dropShadow_44_64" result="shape"/>
</filter>
<linearGradient id="paint0_linear_44_64" x1="1007.5" y1="1.60933e-05" x2="1007.5" y2="540" gradientUnits="userSpaceOnUse">
<stop stop-color="#017CCC"/>
<stop offset="1" stop-color="#042E4A"/>
</linearGradient>
<linearGradient id="paint1_linear_44_64" x1="1328.68" y1="139.68" x2="1265.46" y2="605.046" gradientUnits="userSpaceOnUse">
<stop stop-color="#0272BC"/>
<stop offset="0.939576" stop-color="#162851"/>
</linearGradient>
<linearGradient id="paint2_linear_44_64" x1="1336.01" y1="210.596" x2="1336.01" y2="354.46" gradientUnits="userSpaceOnUse">
<stop stop-color="#254989"/>
<stop offset="1" stop-color="#162851"/>
</linearGradient>
<linearGradient id="paint3_linear_44_64" x1="1319.46" y1="242.519" x2="1386.04" y2="327.855" gradientUnits="userSpaceOnUse">
<stop stop-color="#CCD5E6"/>
<stop offset="1" stop-color="#0A3785"/>
</linearGradient>
<linearGradient id="paint4_linear_44_64" x1="1334.73" y1="230.465" x2="1376.02" y2="302.495" gradientUnits="userSpaceOnUse">
<stop stop-color="#CCD5E6"/>
<stop offset="1" stop-color="#0A3785"/>
</linearGradient>
<linearGradient id="paint5_linear_44_64" x1="1281.8" y1="236.779" x2="1317.95" y2="258.053" gradientUnits="userSpaceOnUse">
<stop stop-color="#CCD5E6"/>
<stop offset="1" stop-color="#0A3785"/>
</linearGradient>
<linearGradient id="paint6_linear_44_64" x1="1382.91" y1="227.802" x2="1420.63" y2="252.994" gradientUnits="userSpaceOnUse">
<stop stop-color="#CCD5E6"/>
<stop offset="1" stop-color="#0A3785"/>
</linearGradient>
<linearGradient id="paint7_linear_44_64" x1="1304.86" y1="286.154" x2="1318.29" y2="298.54" gradientUnits="userSpaceOnUse">
<stop stop-color="#CCD5E6"/>
<stop offset="1" stop-color="#0A3785"/>
</linearGradient>
<linearGradient id="paint8_linear_44_64" x1="1314.3" y1="293.008" x2="1326.83" y2="304.719" gradientUnits="userSpaceOnUse">
<stop stop-color="#CCD5E6"/>
<stop offset="1" stop-color="#0A3785"/>
</linearGradient>
<linearGradient id="paint9_linear_44_64" x1="1294.41" y1="283.312" x2="1303.51" y2="292.459" gradientUnits="userSpaceOnUse">
<stop stop-color="#CCD5E6"/>
<stop offset="1" stop-color="#0A3785"/>
</linearGradient>
<linearGradient id="paint10_linear_44_64" x1="1322.71" y1="301.36" x2="1331.5" y2="310.305" gradientUnits="userSpaceOnUse">
<stop stop-color="#CCD5E6"/>
<stop offset="1" stop-color="#0A3785"/>
</linearGradient>
<linearGradient id="paint11_linear_44_64" x1="439.024" y1="135.417" x2="439.024" y2="196.409" gradientUnits="userSpaceOnUse">
<stop stop-color="#254989"/>
<stop offset="1" stop-color="#162851"/>
</linearGradient>
<linearGradient id="paint12_linear_44_64" x1="431.358" y1="149.302" x2="462.191" y2="188.817" gradientUnits="userSpaceOnUse">
<stop stop-color="#CCD5E6"/>
<stop offset="1" stop-color="#0A3785"/>
</linearGradient>
<linearGradient id="paint13_linear_44_64" x1="438.433" y1="143.721" x2="457.551" y2="177.074" gradientUnits="userSpaceOnUse">
<stop stop-color="#CCD5E6"/>
<stop offset="1" stop-color="#0A3785"/>
</linearGradient>
<linearGradient id="paint14_linear_44_64" x1="413.922" y1="146.645" x2="430.662" y2="156.495" gradientUnits="userSpaceOnUse">
<stop stop-color="#CCD5E6"/>
<stop offset="1" stop-color="#0A3785"/>
</linearGradient>
<linearGradient id="paint15_linear_44_64" x1="460.739" y1="142.488" x2="478.207" y2="154.153" gradientUnits="userSpaceOnUse">
<stop stop-color="#CCD5E6"/>
<stop offset="1" stop-color="#0A3785"/>
</linearGradient>
<linearGradient id="paint16_linear_44_64" x1="424.6" y1="169.508" x2="430.819" y2="175.243" gradientUnits="userSpaceOnUse">
<stop stop-color="#CCD5E6"/>
<stop offset="1" stop-color="#0A3785"/>
</linearGradient>
<linearGradient id="paint17_linear_44_64" x1="428.969" y1="172.681" x2="434.773" y2="178.103" gradientUnits="userSpaceOnUse">
<stop stop-color="#CCD5E6"/>
<stop offset="1" stop-color="#0A3785"/>
</linearGradient>
<linearGradient id="paint18_linear_44_64" x1="419.763" y1="168.191" x2="423.974" y2="172.427" gradientUnits="userSpaceOnUse">
<stop stop-color="#CCD5E6"/>
<stop offset="1" stop-color="#0A3785"/>
</linearGradient>
<linearGradient id="paint19_linear_44_64" x1="432.862" y1="176.549" x2="436.936" y2="180.69" gradientUnits="userSpaceOnUse">
<stop stop-color="#CCD5E6"/>
<stop offset="1" stop-color="#0A3785"/>
</linearGradient>
</defs>
</svg>
