<svg width="2015" height="540" viewBox="0 0 2015 540" fill="none" xmlns="http://www.w3.org/2000/svg">
<rect width="2015" height="540" fill="url(#paint0_linear_44_35)"/>
<rect x="1566.05" y="397.565" width="380.668" height="376.689" rx="81.9022" transform="rotate(163.709 1566.05 397.565)" fill="#254989"/>
<g filter="url(#filter0_d_44_35)">
<rect x="1180.95" y="159.824" width="270.551" height="267.723" rx="65.988" transform="rotate(-9.28438 1180.95 159.824)" fill="url(#paint1_linear_44_35)"/>
</g>
<rect x="1243.96" y="181.309" width="184.737" height="182.806" rx="45.0579" fill="url(#paint2_linear_44_35)"/>
<path d="M412.698 251.438V294H403.699V251.438H412.698ZM445.324 271.181L437.219 271.68C437.081 270.987 436.783 270.364 436.326 269.81C435.869 269.242 435.266 268.791 434.518 268.459C433.783 268.112 432.904 267.939 431.878 267.939C430.507 267.939 429.35 268.23 428.408 268.812C427.466 269.38 426.995 270.142 426.995 271.098C426.995 271.86 427.299 272.504 427.909 273.031C428.519 273.557 429.565 273.98 431.047 274.299L436.824 275.462C439.928 276.1 442.242 277.125 443.766 278.538C445.29 279.951 446.052 281.808 446.052 284.108C446.052 286.2 445.435 288.036 444.202 289.615C442.983 291.194 441.307 292.427 439.173 293.314C437.053 294.187 434.608 294.623 431.837 294.623C427.611 294.623 424.244 293.744 421.737 291.984C419.243 290.211 417.781 287.8 417.352 284.752L426.059 284.295C426.323 285.583 426.96 286.567 427.971 287.246C428.983 287.911 430.278 288.243 431.858 288.243C433.409 288.243 434.656 287.945 435.598 287.35C436.554 286.74 437.039 285.957 437.053 285.001C437.039 284.198 436.7 283.54 436.035 283.027C435.37 282.501 434.344 282.099 432.959 281.822L427.431 280.72C424.314 280.097 421.993 279.016 420.469 277.478C418.959 275.94 418.204 273.98 418.204 271.597C418.204 269.546 418.758 267.78 419.866 266.297C420.989 264.815 422.561 263.672 424.584 262.868C426.62 262.065 429.003 261.663 431.733 261.663C435.765 261.663 438.937 262.515 441.251 264.219C443.579 265.923 444.936 268.244 445.324 271.181ZM467.435 262.079V268.729H448.212V262.079H467.435ZM452.576 254.431H461.429V284.191C461.429 285.008 461.554 285.646 461.803 286.103C462.053 286.546 462.399 286.858 462.842 287.038C463.299 287.218 463.826 287.308 464.422 287.308C464.837 287.308 465.253 287.274 465.669 287.204C466.084 287.121 466.403 287.059 466.625 287.017L468.017 293.605C467.574 293.744 466.95 293.903 466.147 294.083C465.343 294.277 464.366 294.395 463.216 294.436C461.083 294.52 459.212 294.236 457.605 293.584C456.012 292.933 454.772 291.922 453.885 290.55C452.998 289.179 452.562 287.447 452.576 285.355V254.431ZM481.134 294.603C479.098 294.603 477.283 294.249 475.689 293.543C474.096 292.822 472.835 291.762 471.907 290.363C470.993 288.95 470.535 287.19 470.535 285.084C470.535 283.311 470.861 281.822 471.512 280.616C472.163 279.411 473.05 278.441 474.172 277.707C475.295 276.973 476.569 276.418 477.996 276.044C479.437 275.67 480.947 275.407 482.527 275.255C484.383 275.061 485.88 274.88 487.016 274.714C488.152 274.534 488.976 274.271 489.489 273.924C490.001 273.578 490.258 273.065 490.258 272.387V272.262C490.258 270.946 489.842 269.927 489.011 269.207C488.193 268.486 487.029 268.126 485.519 268.126C483.926 268.126 482.658 268.48 481.716 269.186C480.774 269.879 480.151 270.752 479.846 271.805L471.658 271.14C472.073 269.2 472.891 267.524 474.11 266.11C475.329 264.683 476.902 263.589 478.827 262.827C480.767 262.051 483.012 261.663 485.561 261.663C487.334 261.663 489.031 261.871 490.653 262.286C492.287 262.702 493.735 263.346 494.996 264.219C496.271 265.092 497.275 266.214 498.009 267.586C498.744 268.944 499.111 270.572 499.111 272.47V294H490.715V289.573H490.465C489.953 290.571 489.267 291.451 488.408 292.213C487.549 292.961 486.517 293.55 485.311 293.979C484.106 294.395 482.714 294.603 481.134 294.603ZM483.67 288.493C484.972 288.493 486.122 288.236 487.12 287.724C488.117 287.197 488.9 286.491 489.468 285.604C490.036 284.717 490.32 283.713 490.32 282.591V279.203C490.043 279.383 489.662 279.549 489.177 279.702C488.706 279.84 488.173 279.972 487.577 280.097C486.981 280.208 486.385 280.311 485.789 280.408C485.194 280.492 484.653 280.568 484.168 280.637C483.129 280.789 482.222 281.032 481.446 281.364C480.67 281.697 480.067 282.147 479.638 282.715C479.208 283.269 478.994 283.962 478.994 284.794C478.994 285.999 479.43 286.92 480.303 287.558C481.19 288.181 482.312 288.493 483.67 288.493ZM513.662 251.438V294H504.809V251.438H513.662ZM533.965 306.636C531.097 306.636 528.638 306.241 526.587 305.451C524.55 304.675 522.929 303.615 521.724 302.271C520.519 300.927 519.736 299.417 519.376 297.741L527.564 296.639C527.813 297.277 528.208 297.872 528.748 298.427C529.289 298.981 530.002 299.424 530.889 299.757C531.79 300.103 532.884 300.276 534.173 300.276C536.098 300.276 537.685 299.805 538.932 298.863C540.192 297.935 540.823 296.376 540.823 294.187V288.347H540.449C540.061 289.234 539.479 290.072 538.703 290.862C537.927 291.652 536.93 292.296 535.71 292.795C534.491 293.293 533.036 293.543 531.346 293.543C528.949 293.543 526.767 292.989 524.8 291.88C522.846 290.758 521.288 289.047 520.124 286.747C518.974 284.433 518.399 281.51 518.399 277.977C518.399 274.361 518.988 271.341 520.165 268.916C521.343 266.491 522.909 264.676 524.862 263.471C526.83 262.266 528.984 261.663 531.325 261.663C533.113 261.663 534.609 261.968 535.814 262.577C537.02 263.173 537.99 263.921 538.724 264.822C539.472 265.709 540.047 266.581 540.449 267.44H540.781V262.079H549.572V294.312C549.572 297.027 548.907 299.299 547.577 301.128C546.247 302.957 544.404 304.329 542.049 305.243C539.708 306.171 537.013 306.636 533.965 306.636ZM534.152 286.893C535.579 286.893 536.784 286.539 537.768 285.833C538.765 285.112 539.527 284.087 540.054 282.757C540.594 281.413 540.864 279.806 540.864 277.935C540.864 276.065 540.601 274.444 540.075 273.072C539.548 271.687 538.786 270.613 537.789 269.851C536.791 269.089 535.579 268.708 534.152 268.708C532.697 268.708 531.471 269.103 530.473 269.893C529.476 270.669 528.721 271.749 528.208 273.135C527.695 274.52 527.439 276.12 527.439 277.935C527.439 279.778 527.695 281.371 528.208 282.715C528.735 284.045 529.49 285.078 530.473 285.812C531.471 286.532 532.697 286.893 534.152 286.893ZM564.549 294.603C562.513 294.603 560.698 294.249 559.104 293.543C557.511 292.822 556.25 291.762 555.322 290.363C554.408 288.95 553.951 287.19 553.951 285.084C553.951 283.311 554.276 281.822 554.927 280.616C555.578 279.411 556.465 278.441 557.587 277.707C558.71 276.973 559.984 276.418 561.411 276.044C562.852 275.67 564.362 275.407 565.942 275.255C567.798 275.061 569.295 274.88 570.431 274.714C571.567 274.534 572.391 274.271 572.904 273.924C573.416 273.578 573.673 273.065 573.673 272.387V272.262C573.673 270.946 573.257 269.927 572.426 269.207C571.608 268.486 570.445 268.126 568.934 268.126C567.341 268.126 566.073 268.48 565.131 269.186C564.189 269.879 563.566 270.752 563.261 271.805L555.073 271.14C555.488 269.2 556.306 267.524 557.525 266.11C558.744 264.683 560.317 263.589 562.243 262.827C564.182 262.051 566.427 261.663 568.976 261.663C570.749 261.663 572.447 261.871 574.068 262.286C575.702 262.702 577.15 263.346 578.411 264.219C579.686 265.092 580.69 266.214 581.425 267.586C582.159 268.944 582.526 270.572 582.526 272.47V294H574.13V289.573H573.881C573.368 290.571 572.682 291.451 571.823 292.213C570.964 292.961 569.932 293.55 568.727 293.979C567.521 294.395 566.129 294.603 564.549 294.603ZM567.085 288.493C568.387 288.493 569.537 288.236 570.535 287.724C571.532 287.197 572.315 286.491 572.883 285.604C573.451 284.717 573.735 283.713 573.735 282.591V279.203C573.458 279.383 573.077 279.549 572.592 279.702C572.121 279.84 571.588 279.972 570.992 280.097C570.396 280.208 569.8 280.311 569.205 280.408C568.609 280.492 568.069 280.568 567.584 280.637C566.545 280.789 565.637 281.032 564.861 281.364C564.085 281.697 563.483 282.147 563.053 282.715C562.624 283.269 562.409 283.962 562.409 284.794C562.409 285.999 562.845 286.92 563.718 287.558C564.605 288.181 565.727 288.493 567.085 288.493ZM597.077 275.545V294H588.224V262.079H596.662V267.711H597.036C597.742 265.854 598.927 264.385 600.589 263.305C602.252 262.21 604.268 261.663 606.637 261.663C608.854 261.663 610.786 262.148 612.435 263.118C614.084 264.088 615.365 265.473 616.28 267.274C617.194 269.061 617.652 271.195 617.652 273.675V294H608.798V275.255C608.812 273.301 608.313 271.777 607.302 270.682C606.291 269.574 604.898 269.02 603.125 269.02C601.933 269.02 600.88 269.276 599.966 269.789C599.065 270.301 598.359 271.05 597.846 272.033C597.347 273.003 597.091 274.174 597.077 275.545ZM644.686 275.545V294H635.833V262.079H644.271V267.711H644.645C645.351 265.854 646.536 264.385 648.198 263.305C649.861 262.21 651.877 261.663 654.246 261.663C656.463 261.663 658.395 262.148 660.044 263.118C661.693 264.088 662.974 265.473 663.889 267.274C664.803 269.061 665.26 271.195 665.26 273.675V294H656.407V275.255C656.421 273.301 655.922 271.777 654.911 270.682C653.9 269.574 652.507 269.02 650.734 269.02C649.542 269.02 648.489 269.276 647.575 269.789C646.674 270.301 645.968 271.05 645.455 272.033C644.956 273.003 644.7 274.174 644.686 275.545ZM680.17 294.603C678.134 294.603 676.319 294.249 674.725 293.543C673.132 292.822 671.871 291.762 670.943 290.363C670.029 288.95 669.571 287.19 669.571 285.084C669.571 283.311 669.897 281.822 670.548 280.616C671.199 279.411 672.086 278.441 673.208 277.707C674.33 276.973 675.605 276.418 677.032 276.044C678.473 275.67 679.983 275.407 681.563 275.255C683.419 275.061 684.915 274.88 686.052 274.714C687.188 274.534 688.012 274.271 688.525 273.924C689.037 273.578 689.294 273.065 689.294 272.387V272.262C689.294 270.946 688.878 269.927 688.047 269.207C687.229 268.486 686.065 268.126 684.555 268.126C682.962 268.126 681.694 268.48 680.752 269.186C679.81 269.879 679.187 270.752 678.882 271.805L670.694 271.14C671.109 269.2 671.927 267.524 673.146 266.11C674.365 264.683 675.938 263.589 677.863 262.827C679.803 262.051 682.048 261.663 684.597 261.663C686.37 261.663 688.067 261.871 689.688 262.286C691.323 262.702 692.771 263.346 694.032 264.219C695.307 265.092 696.311 266.214 697.045 267.586C697.78 268.944 698.147 270.572 698.147 272.47V294H689.751V289.573H689.501C688.989 290.571 688.303 291.451 687.444 292.213C686.585 292.961 685.553 293.55 684.347 293.979C683.142 294.395 681.75 294.603 680.17 294.603ZM682.706 288.493C684.008 288.493 685.158 288.236 686.155 287.724C687.153 287.197 687.936 286.491 688.504 285.604C689.072 284.717 689.356 283.713 689.356 282.591V279.203C689.079 279.383 688.698 279.549 688.213 279.702C687.742 279.84 687.208 279.972 686.613 280.097C686.017 280.208 685.421 280.311 684.825 280.408C684.23 280.492 683.689 280.568 683.204 280.637C682.165 280.789 681.258 281.032 680.482 281.364C679.706 281.697 679.103 282.147 678.674 282.715C678.244 283.269 678.03 283.962 678.03 284.794C678.03 285.999 678.466 286.92 679.339 287.558C680.226 288.181 681.348 288.493 682.706 288.493ZM703.845 294V262.079H712.428V267.648H712.76C713.342 265.667 714.319 264.171 715.691 263.159C717.062 262.134 718.642 261.621 720.429 261.621C720.872 261.621 721.35 261.649 721.863 261.705C722.376 261.76 722.826 261.836 723.214 261.933V269.789C722.798 269.664 722.223 269.553 721.489 269.456C720.755 269.359 720.083 269.311 719.473 269.311C718.171 269.311 717.007 269.595 715.982 270.163C714.97 270.717 714.167 271.493 713.571 272.49C712.989 273.488 712.698 274.638 712.698 275.94V294H703.845ZM753.18 271.181L745.075 271.68C744.937 270.987 744.639 270.364 744.181 269.81C743.724 269.242 743.122 268.791 742.373 268.459C741.639 268.112 740.759 267.939 739.734 267.939C738.362 267.939 737.206 268.23 736.263 268.812C735.321 269.38 734.85 270.142 734.85 271.098C734.85 271.86 735.155 272.504 735.765 273.031C736.374 273.557 737.42 273.98 738.903 274.299L744.68 275.462C747.784 276.1 750.097 277.125 751.621 278.538C753.145 279.951 753.907 281.808 753.907 284.108C753.907 286.2 753.291 288.036 752.058 289.615C750.839 291.194 749.162 292.427 747.029 293.314C744.909 294.187 742.463 294.623 739.693 294.623C735.467 294.623 732.1 293.744 729.592 291.984C727.099 290.211 725.637 287.8 725.207 284.752L733.915 284.295C734.178 285.583 734.816 286.567 735.827 287.246C736.838 287.911 738.134 288.243 739.713 288.243C741.265 288.243 742.512 287.945 743.454 287.35C744.41 286.74 744.895 285.957 744.909 285.001C744.895 284.198 744.556 283.54 743.891 283.027C743.225 282.501 742.2 282.099 740.815 281.822L735.287 280.72C732.169 280.097 729.849 279.016 728.325 277.478C726.815 275.94 726.059 273.98 726.059 271.597C726.059 269.546 726.614 267.78 727.722 266.297C728.844 264.815 730.417 263.672 732.44 262.868C734.476 262.065 736.859 261.663 739.589 261.663C743.62 261.663 746.793 262.515 749.107 264.219C751.434 265.923 752.792 268.244 753.18 271.181ZM767.414 294.603C765.378 294.603 763.563 294.249 761.97 293.543C760.376 292.822 759.115 291.762 758.187 290.363C757.273 288.95 756.816 287.19 756.816 285.084C756.816 283.311 757.141 281.822 757.792 280.616C758.443 279.411 759.33 278.441 760.452 277.707C761.575 276.973 762.849 276.418 764.276 276.044C765.717 275.67 767.227 275.407 768.807 275.255C770.663 275.061 772.16 274.88 773.296 274.714C774.432 274.534 775.256 274.271 775.769 273.924C776.281 273.578 776.538 273.065 776.538 272.387V272.262C776.538 270.946 776.122 269.927 775.291 269.207C774.473 268.486 773.31 268.126 771.799 268.126C770.206 268.126 768.938 268.48 767.996 269.186C767.054 269.879 766.431 270.752 766.126 271.805L757.938 271.14C758.353 269.2 759.171 267.524 760.39 266.11C761.609 264.683 763.182 263.589 765.108 262.827C767.047 262.051 769.292 261.663 771.841 261.663C773.614 261.663 775.312 261.871 776.933 262.286C778.568 262.702 780.015 263.346 781.276 264.219C782.551 265.092 783.555 266.214 784.29 267.586C785.024 268.944 785.391 270.572 785.391 272.47V294H776.995V289.573H776.746C776.233 290.571 775.547 291.451 774.688 292.213C773.829 292.961 772.797 293.55 771.592 293.979C770.386 294.395 768.994 294.603 767.414 294.603ZM769.95 288.493C771.252 288.493 772.402 288.236 773.4 287.724C774.397 287.197 775.18 286.491 775.748 285.604C776.316 284.717 776.6 283.713 776.6 282.591V279.203C776.323 279.383 775.942 279.549 775.457 279.702C774.986 279.84 774.453 279.972 773.857 280.097C773.261 280.208 772.665 280.311 772.07 280.408C771.474 280.492 770.934 280.568 770.449 280.637C769.41 280.789 768.502 281.032 767.726 281.364C766.95 281.697 766.348 282.147 765.918 282.715C765.489 283.269 765.274 283.962 765.274 284.794C765.274 285.999 765.71 286.92 766.583 287.558C767.47 288.181 768.592 288.493 769.95 288.493ZM799.942 275.545V294H791.089V262.079H799.527V267.711H799.901C800.607 265.854 801.792 264.385 803.454 263.305C805.117 262.21 807.133 261.663 809.502 261.663C811.719 261.663 813.651 262.148 815.3 263.118C816.949 264.088 818.23 265.473 819.145 267.274C820.059 269.061 820.517 271.195 820.517 273.675V294H811.663V275.255C811.677 273.301 811.178 271.777 810.167 270.682C809.156 269.574 807.763 269.02 805.99 269.02C804.798 269.02 803.745 269.276 802.831 269.789C801.93 270.301 801.224 271.05 800.711 272.033C800.212 273.003 799.956 274.174 799.942 275.545ZM840.705 306.636C837.837 306.636 835.378 306.241 833.327 305.451C831.291 304.675 829.67 303.615 828.464 302.271C827.259 300.927 826.476 299.417 826.116 297.741L834.304 296.639C834.553 297.277 834.948 297.872 835.489 298.427C836.029 298.981 836.742 299.424 837.629 299.757C838.53 300.103 839.624 300.276 840.913 300.276C842.839 300.276 844.425 299.805 845.672 298.863C846.933 297.935 847.563 296.376 847.563 294.187V288.347H847.189C846.801 289.234 846.219 290.072 845.443 290.862C844.667 291.652 843.67 292.296 842.451 292.795C841.231 293.293 839.777 293.543 838.086 293.543C835.689 293.543 833.507 292.989 831.54 291.88C829.586 290.758 828.028 289.047 826.864 286.747C825.714 284.433 825.139 281.51 825.139 277.977C825.139 274.361 825.728 271.341 826.906 268.916C828.083 266.491 829.649 264.676 831.602 263.471C833.57 262.266 835.724 261.663 838.066 261.663C839.853 261.663 841.349 261.968 842.555 262.577C843.76 263.173 844.73 263.921 845.464 264.822C846.212 265.709 846.787 266.581 847.189 267.44H847.521V262.079H856.312V294.312C856.312 297.027 855.647 299.299 854.317 301.128C852.987 302.957 851.144 304.329 848.789 305.243C846.448 306.171 843.753 306.636 840.705 306.636ZM840.892 286.893C842.319 286.893 843.524 286.539 844.508 285.833C845.506 285.112 846.268 284.087 846.794 282.757C847.334 281.413 847.605 279.806 847.605 277.935C847.605 276.065 847.341 274.444 846.815 273.072C846.288 271.687 845.526 270.613 844.529 269.851C843.531 269.089 842.319 268.708 840.892 268.708C839.437 268.708 838.211 269.103 837.214 269.893C836.216 270.669 835.461 271.749 834.948 273.135C834.436 274.52 834.179 276.12 834.179 277.935C834.179 279.778 834.436 281.371 834.948 282.715C835.475 284.045 836.23 285.078 837.214 285.812C838.211 286.532 839.437 286.893 840.892 286.893ZM862.187 294V262.079H871.04V294H862.187ZM866.634 257.964C865.318 257.964 864.189 257.527 863.247 256.655C862.319 255.768 861.854 254.708 861.854 253.475C861.854 252.256 862.319 251.21 863.247 250.337C864.189 249.45 865.318 249.007 866.634 249.007C867.951 249.007 869.073 249.45 870.001 250.337C870.943 251.21 871.414 252.256 871.414 253.475C871.414 254.708 870.943 255.768 870.001 256.655C869.073 257.527 867.951 257.964 866.634 257.964ZM876.795 294V288.721L892.424 269.373V269.145H877.336V262.079H903.085V267.835L888.413 286.705V286.934H903.625V294H876.795ZM918.078 275.545V294H909.224V262.079H917.662V267.711H918.036C918.743 265.854 919.927 264.385 921.59 263.305C923.252 262.21 925.268 261.663 927.637 261.663C929.854 261.663 931.787 262.148 933.436 263.118C935.084 264.088 936.366 265.473 937.28 267.274C938.195 269.061 938.652 271.195 938.652 273.675V294H929.799V275.255C929.813 273.301 929.314 271.777 928.302 270.682C927.291 269.574 925.899 269.02 924.125 269.02C922.934 269.02 921.881 269.276 920.966 269.789C920.066 270.301 919.359 271.05 918.847 272.033C918.348 273.003 918.091 274.174 918.078 275.545ZM944.459 294V262.079H953.312V294H944.459ZM948.906 257.964C947.59 257.964 946.461 257.527 945.519 256.655C944.591 255.768 944.127 254.708 944.127 253.475C944.127 252.256 944.591 251.21 945.519 250.337C946.461 249.45 947.59 249.007 948.906 249.007C950.223 249.007 951.345 249.45 952.273 250.337C953.215 251.21 953.686 252.256 953.686 253.475C953.686 254.708 953.215 255.768 952.273 256.655C951.345 257.527 950.223 257.964 948.906 257.964ZM403.699 371V328.438H412.552V344.44H412.823C413.211 343.581 413.772 342.709 414.506 341.822C415.254 340.921 416.224 340.173 417.415 339.577C418.621 338.968 420.117 338.663 421.904 338.663C424.232 338.663 426.379 339.273 428.347 340.492C430.314 341.697 431.887 343.519 433.064 345.958C434.242 348.382 434.831 351.423 434.831 355.081C434.831 358.642 434.256 361.648 433.106 364.1C431.97 366.539 430.418 368.388 428.451 369.649C426.497 370.896 424.308 371.52 421.884 371.52C420.166 371.52 418.704 371.236 417.499 370.667C416.307 370.099 415.33 369.386 414.568 368.527C413.806 367.654 413.224 366.774 412.823 365.888H412.428V371H403.699ZM412.365 355.039C412.365 356.937 412.629 358.593 413.155 360.006C413.682 361.419 414.444 362.521 415.441 363.311C416.439 364.086 417.651 364.474 419.078 364.474C420.519 364.474 421.738 364.08 422.736 363.29C423.733 362.486 424.488 361.378 425.001 359.965C425.527 358.538 425.791 356.896 425.791 355.039C425.791 353.197 425.534 351.576 425.022 350.176C424.509 348.777 423.754 347.682 422.756 346.893C421.759 346.103 420.533 345.708 419.078 345.708C417.637 345.708 416.418 346.089 415.42 346.851C414.437 347.613 413.682 348.694 413.155 350.093C412.629 351.493 412.365 353.141 412.365 355.039ZM439.568 371V339.079H448.421V371H439.568ZM444.015 334.964C442.699 334.964 441.57 334.527 440.628 333.655C439.699 332.768 439.235 331.708 439.235 330.475C439.235 329.256 439.699 328.21 440.628 327.337C441.57 326.45 442.699 326.007 444.015 326.007C445.331 326.007 446.454 326.45 447.382 327.337C448.324 328.21 448.795 329.256 448.795 330.475C448.795 331.708 448.324 332.768 447.382 333.655C446.454 334.527 445.331 334.964 444.015 334.964ZM454.342 371V339.079H462.925V344.648H463.258C463.84 342.667 464.817 341.171 466.188 340.159C467.56 339.134 469.139 338.621 470.927 338.621C471.37 338.621 471.848 338.649 472.36 338.705C472.873 338.76 473.323 338.836 473.711 338.933V346.789C473.296 346.664 472.721 346.553 471.986 346.456C471.252 346.359 470.58 346.311 469.971 346.311C468.668 346.311 467.504 346.595 466.479 347.163C465.468 347.717 464.664 348.493 464.068 349.49C463.487 350.488 463.196 351.638 463.196 352.94V371H454.342ZM490.013 383.636C487.146 383.636 484.686 383.241 482.636 382.451C480.599 381.675 478.978 380.615 477.773 379.271C476.567 377.927 475.785 376.417 475.424 374.741L483.613 373.639C483.862 374.277 484.257 374.872 484.797 375.427C485.337 375.981 486.051 376.424 486.938 376.757C487.838 377.103 488.933 377.276 490.221 377.276C492.147 377.276 493.733 376.805 494.98 375.863C496.241 374.935 496.872 373.376 496.872 371.187V365.347H496.497C496.11 366.234 495.528 367.072 494.752 367.862C493.976 368.652 492.978 369.296 491.759 369.795C490.54 370.293 489.085 370.543 487.395 370.543C484.998 370.543 482.816 369.989 480.849 368.88C478.895 367.758 477.336 366.047 476.173 363.747C475.023 361.433 474.448 358.51 474.448 354.977C474.448 351.361 475.036 348.341 476.214 345.916C477.392 343.491 478.957 341.676 480.911 340.471C482.878 339.266 485.033 338.663 487.374 338.663C489.161 338.663 490.658 338.968 491.863 339.577C493.068 340.173 494.038 340.921 494.773 341.822C495.521 342.709 496.096 343.581 496.497 344.44H496.83V339.079H505.621V371.312C505.621 374.027 504.956 376.299 503.626 378.128C502.296 379.957 500.453 381.329 498.098 382.243C495.756 383.171 493.061 383.636 490.013 383.636ZM490.2 363.893C491.628 363.893 492.833 363.539 493.817 362.833C494.814 362.112 495.576 361.087 496.103 359.757C496.643 358.413 496.913 356.806 496.913 354.935C496.913 353.065 496.65 351.444 496.123 350.072C495.597 348.687 494.835 347.613 493.837 346.851C492.84 346.089 491.628 345.708 490.2 345.708C488.746 345.708 487.52 346.103 486.522 346.893C485.525 347.669 484.769 348.749 484.257 350.135C483.744 351.52 483.488 353.12 483.488 354.935C483.488 356.778 483.744 358.371 484.257 359.715C484.783 361.045 485.538 362.078 486.522 362.812C487.52 363.532 488.746 363.893 490.2 363.893ZM511.496 371V339.079H520.349V371H511.496ZM515.943 334.964C514.627 334.964 513.498 334.527 512.555 333.655C511.627 332.768 511.163 331.708 511.163 330.475C511.163 329.256 511.627 328.21 512.555 327.337C513.498 326.45 514.627 326.007 515.943 326.007C517.259 326.007 518.381 326.45 519.31 327.337C520.252 328.21 520.723 329.256 520.723 330.475C520.723 331.708 520.252 332.768 519.31 333.655C518.381 334.527 517.259 334.964 515.943 334.964ZM535.123 352.545V371H526.27V339.079H534.708V344.711H535.082C535.788 342.854 536.973 341.385 538.636 340.305C540.298 339.21 542.314 338.663 544.683 338.663C546.9 338.663 548.833 339.148 550.481 340.118C552.13 341.088 553.412 342.473 554.326 344.274C555.24 346.061 555.698 348.195 555.698 350.675V371H546.844V352.255C546.858 350.301 546.36 348.777 545.348 347.682C544.337 346.574 542.944 346.02 541.171 346.02C539.979 346.02 538.926 346.276 538.012 346.789C537.112 347.301 536.405 348.05 535.892 349.033C535.394 350.003 535.137 351.174 535.123 352.545ZM570.607 371.603C568.571 371.603 566.756 371.249 565.162 370.543C563.569 369.822 562.308 368.762 561.38 367.363C560.466 365.95 560.009 364.19 560.009 362.084C560.009 360.311 560.334 358.822 560.985 357.616C561.636 356.411 562.523 355.441 563.645 354.707C564.768 353.973 566.042 353.418 567.469 353.044C568.91 352.67 570.42 352.407 572 352.255C573.856 352.061 575.353 351.88 576.489 351.714C577.625 351.534 578.449 351.271 578.962 350.924C579.474 350.578 579.731 350.065 579.731 349.387V349.262C579.731 347.946 579.315 346.927 578.484 346.207C577.666 345.486 576.503 345.126 574.992 345.126C573.399 345.126 572.131 345.48 571.189 346.186C570.247 346.879 569.624 347.752 569.319 348.805L561.131 348.14C561.546 346.2 562.364 344.524 563.583 343.11C564.802 341.683 566.375 340.589 568.301 339.827C570.24 339.051 572.485 338.663 575.034 338.663C576.807 338.663 578.505 338.871 580.126 339.286C581.76 339.702 583.208 340.346 584.469 341.219C585.744 342.092 586.748 343.214 587.482 344.586C588.217 345.944 588.584 347.572 588.584 349.47V371H580.188V366.573H579.939C579.426 367.571 578.74 368.451 577.881 369.213C577.022 369.961 575.99 370.55 574.785 370.979C573.579 371.395 572.187 371.603 570.607 371.603ZM573.143 365.493C574.445 365.493 575.595 365.236 576.593 364.724C577.59 364.197 578.373 363.491 578.941 362.604C579.509 361.717 579.793 360.713 579.793 359.591V356.203C579.516 356.383 579.135 356.549 578.65 356.702C578.179 356.84 577.646 356.972 577.05 357.097C576.454 357.208 575.858 357.311 575.263 357.408C574.667 357.492 574.127 357.568 573.642 357.637C572.602 357.789 571.695 358.032 570.919 358.364C570.143 358.697 569.541 359.147 569.111 359.715C568.682 360.269 568.467 360.962 568.467 361.794C568.467 362.999 568.903 363.92 569.776 364.558C570.663 365.181 571.785 365.493 573.143 365.493ZM623.635 339.079V345.729H604.412V339.079H623.635ZM608.776 331.431H617.629V361.191C617.629 362.008 617.754 362.646 618.003 363.103C618.253 363.546 618.599 363.858 619.042 364.038C619.5 364.218 620.026 364.308 620.622 364.308C621.038 364.308 621.453 364.274 621.869 364.204C622.284 364.121 622.603 364.059 622.825 364.017L624.217 370.605C623.774 370.744 623.15 370.903 622.347 371.083C621.543 371.277 620.566 371.395 619.417 371.436C617.283 371.52 615.413 371.236 613.805 370.584C612.212 369.933 610.972 368.922 610.085 367.55C609.199 366.179 608.762 364.447 608.776 362.355V331.431ZM648.702 357.408V339.079H657.555V371H649.056V365.202H648.723C648.003 367.072 646.804 368.575 645.128 369.712C643.465 370.848 641.435 371.416 639.039 371.416C636.905 371.416 635.028 370.931 633.407 369.961C631.786 368.991 630.518 367.613 629.604 365.825C628.703 364.038 628.246 361.897 628.232 359.404V339.079H637.085V357.824C637.099 359.708 637.605 361.198 638.602 362.292C639.6 363.387 640.937 363.934 642.613 363.934C643.68 363.934 644.677 363.692 645.606 363.207C646.534 362.708 647.282 361.974 647.85 361.004C648.432 360.034 648.716 358.836 648.702 357.408ZM677.848 383.636C674.98 383.636 672.521 383.241 670.47 382.451C668.433 381.675 666.812 380.615 665.607 379.271C664.402 377.927 663.619 376.417 663.259 374.741L671.447 373.639C671.696 374.277 672.091 374.872 672.631 375.427C673.172 375.981 673.885 376.424 674.772 376.757C675.673 377.103 676.767 377.276 678.056 377.276C679.981 377.276 681.568 376.805 682.815 375.863C684.076 374.935 684.706 373.376 684.706 371.187V365.347H684.332C683.944 366.234 683.362 367.072 682.586 367.862C681.81 368.652 680.813 369.296 679.593 369.795C678.374 370.293 676.92 370.543 675.229 370.543C672.832 370.543 670.65 369.989 668.683 368.88C666.729 367.758 665.171 366.047 664.007 363.747C662.857 361.433 662.282 358.51 662.282 354.977C662.282 351.361 662.871 348.341 664.048 345.916C665.226 343.491 666.792 341.676 668.745 340.471C670.713 339.266 672.867 338.663 675.208 338.663C676.996 338.663 678.492 338.968 679.697 339.577C680.903 340.173 681.873 340.921 682.607 341.822C683.355 342.709 683.93 343.581 684.332 344.44H684.664V339.079H693.455V371.312C693.455 374.027 692.79 376.299 691.46 378.128C690.13 379.957 688.287 381.329 685.932 382.243C683.591 383.171 680.896 383.636 677.848 383.636ZM678.035 363.893C679.462 363.893 680.667 363.539 681.651 362.833C682.648 362.112 683.41 361.087 683.937 359.757C684.477 358.413 684.747 356.806 684.747 354.935C684.747 353.065 684.484 351.444 683.958 350.072C683.431 348.687 682.669 347.613 681.672 346.851C680.674 346.089 679.462 345.708 678.035 345.708C676.58 345.708 675.354 346.103 674.356 346.893C673.359 347.669 672.604 348.749 672.091 350.135C671.579 351.52 671.322 353.12 671.322 354.935C671.322 356.778 671.579 358.371 672.091 359.715C672.618 361.045 673.373 362.078 674.356 362.812C675.354 363.532 676.58 363.893 678.035 363.893ZM699.33 371V339.079H707.767V344.711H708.141C708.807 342.84 709.915 341.365 711.467 340.284C713.018 339.203 714.875 338.663 717.036 338.663C719.225 338.663 721.089 339.21 722.627 340.305C724.165 341.385 725.19 342.854 725.702 344.711H726.035C726.686 342.882 727.864 341.42 729.568 340.326C731.286 339.217 733.316 338.663 735.657 338.663C738.636 338.663 741.053 339.612 742.91 341.51C744.78 343.394 745.716 346.068 745.716 349.532V371H736.883V351.278C736.883 349.504 736.412 348.174 735.47 347.288C734.528 346.401 733.35 345.958 731.937 345.958C730.33 345.958 729.076 346.47 728.175 347.495C727.275 348.507 726.825 349.844 726.825 351.506V371H718.242V351.091C718.242 349.525 717.791 348.278 716.891 347.35C716.004 346.422 714.833 345.958 713.379 345.958C712.395 345.958 711.508 346.207 710.718 346.706C709.943 347.191 709.326 347.876 708.869 348.763C708.412 349.636 708.183 350.661 708.183 351.839V371H699.33ZM760.641 371.603C758.604 371.603 756.789 371.249 755.196 370.543C753.603 369.822 752.342 368.762 751.414 367.363C750.499 365.95 750.042 364.19 750.042 362.084C750.042 360.311 750.368 358.822 751.019 357.616C751.67 356.411 752.557 355.441 753.679 354.707C754.801 353.973 756.076 353.418 757.503 353.044C758.944 352.67 760.454 352.407 762.033 352.255C763.89 352.061 765.386 351.88 766.522 351.714C767.658 351.534 768.483 351.271 768.995 350.924C769.508 350.578 769.764 350.065 769.764 349.387V349.262C769.764 347.946 769.349 346.927 768.517 346.207C767.7 345.486 766.536 345.126 765.026 345.126C763.433 345.126 762.165 345.48 761.223 346.186C760.281 346.879 759.657 347.752 759.352 348.805L751.164 348.14C751.58 346.2 752.397 344.524 753.617 343.11C754.836 341.683 756.408 340.589 758.334 339.827C760.274 339.051 762.518 338.663 765.068 338.663C766.841 338.663 768.538 338.871 770.159 339.286C771.794 339.702 773.242 340.346 774.503 341.219C775.777 342.092 776.782 343.214 777.516 344.586C778.25 345.944 778.617 347.572 778.617 349.47V371H770.221V366.573H769.972C769.459 367.571 768.774 368.451 767.915 369.213C767.056 369.961 766.023 370.55 764.818 370.979C763.613 371.395 762.22 371.603 760.641 371.603ZM763.176 365.493C764.479 365.493 765.629 365.236 766.626 364.724C767.624 364.197 768.406 363.491 768.975 362.604C769.543 361.717 769.827 360.713 769.827 359.591V356.203C769.55 356.383 769.169 356.549 768.684 356.702C768.213 356.84 767.679 356.972 767.083 357.097C766.488 357.208 765.892 357.311 765.296 357.408C764.7 357.492 764.16 357.568 763.675 357.637C762.636 357.789 761.729 358.032 760.953 358.364C760.177 358.697 759.574 359.147 759.145 359.715C758.715 360.269 758.5 360.962 758.5 361.794C758.5 362.999 758.937 363.92 759.81 364.558C760.696 365.181 761.819 365.493 763.176 365.493ZM796.856 371V328.438H805.709V344.44H805.979C806.367 343.581 806.928 342.709 807.663 341.822C808.411 340.921 809.381 340.173 810.572 339.577C811.778 338.968 813.274 338.663 815.061 338.663C817.389 338.663 819.536 339.273 821.504 340.492C823.471 341.697 825.044 343.519 826.221 345.958C827.399 348.382 827.988 351.423 827.988 355.081C827.988 358.642 827.413 361.648 826.263 364.1C825.127 366.539 823.575 368.388 821.608 369.649C819.654 370.896 817.465 371.52 815.04 371.52C813.322 371.52 811.861 371.236 810.655 370.667C809.464 370.099 808.487 369.386 807.725 368.527C806.963 367.654 806.381 366.774 805.979 365.888H805.585V371H796.856ZM805.522 355.039C805.522 356.937 805.785 358.593 806.312 360.006C806.838 361.419 807.6 362.521 808.598 363.311C809.595 364.086 810.808 364.474 812.235 364.474C813.676 364.474 814.895 364.08 815.892 363.29C816.89 362.486 817.645 361.378 818.158 359.965C818.684 358.538 818.947 356.896 818.947 355.039C818.947 353.197 818.691 351.576 818.179 350.176C817.666 348.777 816.911 347.682 815.913 346.893C814.916 346.103 813.69 345.708 812.235 345.708C810.794 345.708 809.575 346.089 808.577 346.851C807.593 347.613 806.838 348.694 806.312 350.093C805.785 351.493 805.522 353.141 805.522 355.039ZM832.725 371V339.079H841.578V371H832.725ZM837.172 334.964C835.856 334.964 834.727 334.527 833.784 333.655C832.856 332.768 832.392 331.708 832.392 330.475C832.392 329.256 832.856 328.21 833.784 327.337C834.727 326.45 835.856 326.007 837.172 326.007C838.488 326.007 839.61 326.45 840.539 327.337C841.481 328.21 841.952 329.256 841.952 330.475C841.952 331.708 841.481 332.768 840.539 333.655C839.61 334.527 838.488 334.964 837.172 334.964ZM856.352 328.438V371H847.499V328.438H856.352ZM871.376 371.603C869.34 371.603 867.525 371.249 865.932 370.543C864.338 369.822 863.077 368.762 862.149 367.363C861.235 365.95 860.778 364.19 860.778 362.084C860.778 360.311 861.103 358.822 861.754 357.616C862.405 356.411 863.292 355.441 864.414 354.707C865.537 353.973 866.811 353.418 868.238 353.044C869.679 352.67 871.189 352.407 872.769 352.255C874.625 352.061 876.122 351.88 877.258 351.714C878.394 351.534 879.218 351.271 879.731 350.924C880.243 350.578 880.5 350.065 880.5 349.387V349.262C880.5 347.946 880.084 346.927 879.253 346.207C878.435 345.486 877.272 345.126 875.761 345.126C874.168 345.126 872.9 345.48 871.958 346.186C871.016 346.879 870.393 347.752 870.088 348.805L861.9 348.14C862.315 346.2 863.133 344.524 864.352 343.11C865.571 341.683 867.144 340.589 869.07 339.827C871.009 339.051 873.254 338.663 875.803 338.663C877.576 338.663 879.274 338.871 880.895 339.286C882.53 339.702 883.977 340.346 885.238 341.219C886.513 342.092 887.517 343.214 888.252 344.586C888.986 345.944 889.353 347.572 889.353 349.47V371H880.957V366.573H880.708C880.195 367.571 879.509 368.451 878.65 369.213C877.791 369.961 876.759 370.55 875.554 370.979C874.348 371.395 872.956 371.603 871.376 371.603ZM873.912 365.493C875.214 365.493 876.364 365.236 877.362 364.724C878.359 364.197 879.142 363.491 879.71 362.604C880.278 361.717 880.562 360.713 880.562 359.591V356.203C880.285 356.383 879.904 356.549 879.419 356.702C878.948 356.84 878.415 356.972 877.819 357.097C877.223 357.208 876.627 357.311 876.032 357.408C875.436 357.492 874.896 357.568 874.411 357.637C873.372 357.789 872.464 358.032 871.688 358.364C870.912 358.697 870.31 359.147 869.88 359.715C869.451 360.269 869.236 360.962 869.236 361.794C869.236 362.999 869.672 363.92 870.545 364.558C871.432 365.181 872.554 365.493 873.912 365.493ZM903.904 352.545V371H895.051V339.079H903.489V344.711H903.863C904.569 342.854 905.754 341.385 907.416 340.305C909.079 339.21 911.095 338.663 913.464 338.663C915.681 338.663 917.614 339.148 919.262 340.118C920.911 341.088 922.192 342.473 923.107 344.274C924.021 346.061 924.479 348.195 924.479 350.675V371H915.625V352.255C915.639 350.301 915.14 348.777 914.129 347.682C913.118 346.574 911.725 346.02 909.952 346.02C908.76 346.02 907.707 346.276 906.793 346.789C905.892 347.301 905.186 348.05 904.673 349.033C904.174 350.003 903.918 351.174 903.904 352.545ZM403.533 448V416.079H412.386V448H403.533ZM407.98 411.964C406.664 411.964 405.535 411.527 404.593 410.655C403.665 409.768 403.2 408.708 403.2 407.475C403.2 406.256 403.665 405.21 404.593 404.337C405.535 403.45 406.664 403.007 407.98 403.007C409.297 403.007 410.419 403.45 411.347 404.337C412.289 405.21 412.76 406.256 412.76 407.475C412.76 408.708 412.289 409.768 411.347 410.655C410.419 411.527 409.297 411.964 407.98 411.964ZM418.308 416.079H427.161V449.579C427.161 452.046 426.676 454.041 425.706 455.565C424.736 457.089 423.344 458.204 421.529 458.911C419.728 459.617 417.573 459.971 415.066 459.971C414.761 459.971 414.47 459.964 414.193 459.95C413.902 459.95 413.597 459.943 413.278 459.929V453.008C413.514 453.022 413.722 453.029 413.902 453.029C414.068 453.043 414.248 453.05 414.442 453.05C415.869 453.05 416.867 452.745 417.435 452.136C418.017 451.54 418.308 450.639 418.308 449.434V416.079ZM422.713 411.964C421.411 411.964 420.289 411.527 419.347 410.655C418.405 409.768 417.934 408.708 417.934 407.475C417.934 406.256 418.405 405.21 419.347 404.337C420.289 403.45 421.411 403.007 422.713 403.007C424.043 403.007 425.173 403.45 426.101 404.337C427.043 405.21 427.514 406.256 427.514 407.475C427.514 408.708 427.043 409.768 426.101 410.655C425.173 411.527 424.043 411.964 422.713 411.964ZM442.185 448.603C440.148 448.603 438.333 448.249 436.74 447.543C435.147 446.822 433.886 445.762 432.958 444.363C432.043 442.95 431.586 441.19 431.586 439.084C431.586 437.311 431.912 435.822 432.563 434.616C433.214 433.411 434.101 432.441 435.223 431.707C436.345 430.973 437.62 430.418 439.047 430.044C440.488 429.67 441.998 429.407 443.577 429.255C445.434 429.061 446.93 428.88 448.066 428.714C449.202 428.534 450.027 428.271 450.539 427.924C451.052 427.578 451.308 427.065 451.308 426.387V426.262C451.308 424.946 450.893 423.927 450.061 423.207C449.244 422.486 448.08 422.126 446.57 422.126C444.977 422.126 443.709 422.48 442.767 423.186C441.825 423.879 441.201 424.752 440.896 425.805L432.708 425.14C433.124 423.2 433.941 421.524 435.16 420.11C436.38 418.683 437.952 417.589 439.878 416.827C441.818 416.051 444.062 415.663 446.611 415.663C448.385 415.663 450.082 415.871 451.703 416.286C453.338 416.702 454.786 417.346 456.047 418.219C457.321 419.092 458.326 420.214 459.06 421.586C459.794 422.944 460.161 424.572 460.161 426.47V448H451.765V443.573H451.516C451.003 444.571 450.318 445.451 449.459 446.213C448.6 446.961 447.567 447.55 446.362 447.979C445.157 448.395 443.764 448.603 442.185 448.603ZM444.72 442.493C446.023 442.493 447.173 442.236 448.17 441.724C449.168 441.197 449.95 440.491 450.518 439.604C451.087 438.717 451.371 437.713 451.371 436.591V433.203C451.093 433.383 450.712 433.549 450.228 433.702C449.756 433.84 449.223 433.972 448.627 434.097C448.032 434.208 447.436 434.311 446.84 434.408C446.244 434.492 445.704 434.568 445.219 434.637C444.18 434.789 443.272 435.032 442.497 435.364C441.721 435.697 441.118 436.147 440.689 436.715C440.259 437.269 440.044 437.962 440.044 438.794C440.044 439.999 440.481 440.92 441.354 441.558C442.24 442.181 443.362 442.493 444.72 442.493ZM465.859 448V416.079H474.442V421.648H474.775C475.357 419.667 476.334 418.171 477.705 417.159C479.077 416.134 480.656 415.621 482.444 415.621C482.887 415.621 483.365 415.649 483.878 415.705C484.39 415.76 484.84 415.836 485.228 415.933V423.789C484.813 423.664 484.238 423.553 483.503 423.456C482.769 423.359 482.097 423.311 481.488 423.311C480.185 423.311 479.021 423.595 477.996 424.163C476.985 424.717 476.181 425.493 475.585 426.49C475.004 427.488 474.713 428.638 474.713 429.94V448H465.859ZM496.823 448.603C494.787 448.603 492.972 448.249 491.378 447.543C489.785 446.822 488.524 445.762 487.596 444.363C486.682 442.95 486.224 441.19 486.224 439.084C486.224 437.311 486.55 435.822 487.201 434.616C487.852 433.411 488.739 432.441 489.861 431.707C490.984 430.973 492.258 430.418 493.685 430.044C495.126 429.67 496.636 429.407 498.216 429.255C500.072 429.061 501.569 428.88 502.705 428.714C503.841 428.534 504.665 428.271 505.178 427.924C505.69 427.578 505.947 427.065 505.947 426.387V426.262C505.947 424.946 505.531 423.927 504.7 423.207C503.882 422.486 502.719 422.126 501.208 422.126C499.615 422.126 498.347 422.48 497.405 423.186C496.463 423.879 495.84 424.752 495.535 425.805L487.347 425.14C487.762 423.2 488.58 421.524 489.799 420.11C491.018 418.683 492.591 417.589 494.517 416.827C496.456 416.051 498.701 415.663 501.25 415.663C503.023 415.663 504.721 415.871 506.342 416.286C507.976 416.702 509.424 417.346 510.685 418.219C511.96 419.092 512.964 420.214 513.698 421.586C514.433 422.944 514.8 424.572 514.8 426.47V448H506.404V443.573H506.155C505.642 444.571 504.956 445.451 504.097 446.213C503.238 446.961 502.206 447.55 501.001 447.979C499.795 448.395 498.403 448.603 496.823 448.603ZM499.359 442.493C500.661 442.493 501.811 442.236 502.809 441.724C503.806 441.197 504.589 440.491 505.157 439.604C505.725 438.717 506.009 437.713 506.009 436.591V433.203C505.732 433.383 505.351 433.549 504.866 433.702C504.395 433.84 503.862 433.972 503.266 434.097C502.67 434.208 502.074 434.311 501.479 434.408C500.883 434.492 500.342 434.568 499.858 434.637C498.818 434.789 497.911 435.032 497.135 435.364C496.359 435.697 495.757 436.147 495.327 436.715C494.898 437.269 494.683 437.962 494.683 438.794C494.683 439.999 495.119 440.92 495.992 441.558C496.879 442.181 498.001 442.493 499.359 442.493ZM534.879 460.636C532.011 460.636 529.552 460.241 527.502 459.451C525.465 458.675 523.844 457.615 522.638 456.271C521.433 454.927 520.65 453.417 520.29 451.741L528.478 450.639C528.728 451.277 529.123 451.872 529.663 452.427C530.203 452.981 530.917 453.424 531.803 453.757C532.704 454.103 533.799 454.276 535.087 454.276C537.013 454.276 538.599 453.805 539.846 452.863C541.107 451.935 541.737 450.376 541.737 448.187V442.347H541.363C540.975 443.234 540.393 444.072 539.618 444.862C538.842 445.652 537.844 446.296 536.625 446.795C535.406 447.293 533.951 447.543 532.261 447.543C529.864 447.543 527.682 446.989 525.714 445.88C523.761 444.758 522.202 443.047 521.038 440.747C519.888 438.433 519.313 435.51 519.313 431.977C519.313 428.361 519.902 425.341 521.08 422.916C522.257 420.491 523.823 418.676 525.777 417.471C527.744 416.266 529.898 415.663 532.24 415.663C534.027 415.663 535.523 415.968 536.729 416.577C537.934 417.173 538.904 417.921 539.638 418.822C540.386 419.709 540.961 420.581 541.363 421.44H541.696V416.079H550.487V448.312C550.487 451.027 549.822 453.299 548.491 455.128C547.161 456.957 545.319 458.329 542.963 459.243C540.622 460.171 537.927 460.636 534.879 460.636ZM535.066 440.893C536.493 440.893 537.699 440.539 538.682 439.833C539.68 439.112 540.442 438.087 540.968 436.757C541.509 435.413 541.779 433.806 541.779 431.935C541.779 430.065 541.516 428.444 540.989 427.072C540.463 425.687 539.701 424.613 538.703 423.851C537.706 423.089 536.493 422.708 535.066 422.708C533.611 422.708 532.385 423.103 531.388 423.893C530.39 424.669 529.635 425.749 529.123 427.135C528.61 428.52 528.354 430.12 528.354 431.935C528.354 433.778 528.61 435.371 529.123 436.715C529.649 438.045 530.404 439.078 531.388 439.812C532.385 440.532 533.611 440.893 535.066 440.893ZM565.464 448.603C563.427 448.603 561.612 448.249 560.019 447.543C558.426 446.822 557.165 445.762 556.237 444.363C555.322 442.95 554.865 441.19 554.865 439.084C554.865 437.311 555.191 435.822 555.842 434.616C556.493 433.411 557.38 432.441 558.502 431.707C559.624 430.973 560.899 430.418 562.326 430.044C563.767 429.67 565.277 429.407 566.856 429.255C568.713 429.061 570.209 428.88 571.345 428.714C572.481 428.534 573.306 428.271 573.818 427.924C574.331 427.578 574.587 427.065 574.587 426.387V426.262C574.587 424.946 574.172 423.927 573.34 423.207C572.523 422.486 571.359 422.126 569.849 422.126C568.256 422.126 566.988 422.48 566.046 423.186C565.104 423.879 564.48 424.752 564.175 425.805L555.987 425.14C556.403 423.2 557.22 421.524 558.439 420.11C559.659 418.683 561.231 417.589 563.157 416.827C565.097 416.051 567.341 415.663 569.89 415.663C571.664 415.663 573.361 415.871 574.982 416.286C576.617 416.702 578.065 417.346 579.326 418.219C580.6 419.092 581.605 420.214 582.339 421.586C583.073 422.944 583.44 424.572 583.44 426.47V448H575.044V443.573H574.795C574.282 444.571 573.597 445.451 572.738 446.213C571.879 446.961 570.846 447.55 569.641 447.979C568.436 448.395 567.043 448.603 565.464 448.603ZM567.999 442.493C569.302 442.493 570.452 442.236 571.449 441.724C572.447 441.197 573.229 440.491 573.797 439.604C574.366 438.717 574.65 437.713 574.65 436.591V433.203C574.372 433.383 573.991 433.549 573.507 433.702C573.035 433.84 572.502 433.972 571.906 434.097C571.311 434.208 570.715 434.311 570.119 434.408C569.523 434.492 568.983 434.568 568.498 434.637C567.459 434.789 566.551 435.032 565.776 435.364C565 435.697 564.397 436.147 563.968 436.715C563.538 437.269 563.323 437.962 563.323 438.794C563.323 439.999 563.76 440.92 564.633 441.558C565.519 442.181 566.641 442.493 567.999 442.493ZM601.679 448V405.438H610.532V421.44H610.802C611.19 420.581 611.751 419.709 612.486 418.822C613.234 417.921 614.204 417.173 615.395 416.577C616.601 415.968 618.097 415.663 619.884 415.663C622.212 415.663 624.359 416.273 626.327 417.492C628.294 418.697 629.866 420.519 631.044 422.958C632.222 425.382 632.811 428.423 632.811 432.081C632.811 435.642 632.236 438.648 631.086 441.1C629.95 443.539 628.398 445.388 626.43 446.649C624.477 447.896 622.288 448.52 619.863 448.52C618.145 448.52 616.684 448.236 615.478 447.667C614.287 447.099 613.31 446.386 612.548 445.527C611.786 444.654 611.204 443.774 610.802 442.888H610.407V448H601.679ZM610.345 432.039C610.345 433.937 610.608 435.593 611.135 437.006C611.661 438.419 612.423 439.521 613.421 440.311C614.418 441.086 615.631 441.474 617.058 441.474C618.499 441.474 619.718 441.08 620.715 440.29C621.713 439.486 622.468 438.378 622.981 436.965C623.507 435.538 623.77 433.896 623.77 432.039C623.77 430.197 623.514 428.576 623.001 427.176C622.489 425.777 621.734 424.682 620.736 423.893C619.739 423.103 618.513 422.708 617.058 422.708C615.617 422.708 614.398 423.089 613.4 423.851C612.416 424.613 611.661 425.694 611.135 427.093C610.608 428.493 610.345 430.141 610.345 432.039ZM652.095 448.623C648.811 448.623 645.985 447.958 643.616 446.628C641.261 445.284 639.446 443.386 638.171 440.934C636.896 438.468 636.259 435.552 636.259 432.185C636.259 428.901 636.896 426.019 638.171 423.539C639.446 421.059 641.24 419.127 643.554 417.741C645.881 416.356 648.611 415.663 651.742 415.663C653.848 415.663 655.808 416.002 657.623 416.681C659.452 417.346 661.045 418.351 662.403 419.695C663.775 421.039 664.841 422.729 665.603 424.766C666.365 426.788 666.746 429.158 666.746 431.873V434.305H639.792V428.818H658.413C658.413 427.543 658.136 426.414 657.581 425.431C657.027 424.447 656.258 423.678 655.275 423.124C654.305 422.556 653.176 422.272 651.887 422.272C650.543 422.272 649.352 422.583 648.313 423.207C647.287 423.817 646.484 424.641 645.902 425.68C645.32 426.705 645.022 427.848 645.008 429.109V434.325C645.008 435.905 645.299 437.269 645.881 438.419C646.477 439.569 647.315 440.456 648.396 441.08C649.476 441.703 650.758 442.015 652.24 442.015C653.224 442.015 654.125 441.876 654.942 441.599C655.76 441.322 656.459 440.906 657.041 440.352C657.623 439.798 658.066 439.119 658.371 438.316L666.559 438.856C666.144 440.823 665.292 442.541 664.003 444.01C662.729 445.465 661.08 446.601 659.057 447.418C657.048 448.222 654.727 448.623 652.095 448.623ZM671.353 448V416.079H679.936V421.648H680.269C680.851 419.667 681.828 418.171 683.199 417.159C684.571 416.134 686.15 415.621 687.938 415.621C688.381 415.621 688.859 415.649 689.371 415.705C689.884 415.76 690.334 415.836 690.722 415.933V423.789C690.307 423.664 689.732 423.553 688.997 423.456C688.263 423.359 687.591 423.311 686.982 423.311C685.679 423.311 684.515 423.595 683.49 424.163C682.479 424.717 681.675 425.493 681.079 426.49C680.498 427.488 680.207 428.638 680.207 429.94V448H671.353ZM694.129 448V416.079H702.982V448H694.129ZM698.577 411.964C697.26 411.964 696.131 411.527 695.189 410.655C694.261 409.768 693.797 408.708 693.797 407.475C693.797 406.256 694.261 405.21 695.189 404.337C696.131 403.45 697.26 403.007 698.577 403.007C699.893 403.007 701.015 403.45 701.943 404.337C702.885 405.21 703.356 406.256 703.356 407.475C703.356 408.708 702.885 409.768 701.943 410.655C701.015 411.527 699.893 411.964 698.577 411.964ZM717.757 429.545V448H708.904V416.079H717.341V421.711H717.715C718.422 419.854 719.607 418.385 721.269 417.305C722.932 416.21 724.948 415.663 727.317 415.663C729.534 415.663 731.466 416.148 733.115 417.118C734.764 418.088 736.045 419.473 736.96 421.274C737.874 423.061 738.331 425.195 738.331 427.675V448H729.478V429.255C729.492 427.301 728.993 425.777 727.982 424.682C726.97 423.574 725.578 423.02 723.805 423.02C722.613 423.02 721.56 423.276 720.646 423.789C719.745 424.301 719.039 425.05 718.526 426.033C718.027 427.003 717.771 428.174 717.757 429.545ZM758.52 460.636C755.652 460.636 753.193 460.241 751.142 459.451C749.105 458.675 747.484 457.615 746.279 456.271C745.074 454.927 744.291 453.417 743.931 451.741L752.119 450.639C752.368 451.277 752.763 451.872 753.303 452.427C753.844 452.981 754.557 453.424 755.444 453.757C756.344 454.103 757.439 454.276 758.727 454.276C760.653 454.276 762.24 453.805 763.487 452.863C764.747 451.935 765.378 450.376 765.378 448.187V442.347H765.004C764.616 443.234 764.034 444.072 763.258 444.862C762.482 445.652 761.485 446.296 760.265 446.795C759.046 447.293 757.591 447.543 755.901 447.543C753.504 447.543 751.322 446.989 749.355 445.88C747.401 444.758 745.843 443.047 744.679 440.747C743.529 438.433 742.954 435.51 742.954 431.977C742.954 428.361 743.543 425.341 744.72 422.916C745.898 420.491 747.464 418.676 749.417 417.471C751.384 416.266 753.539 415.663 755.88 415.663C757.668 415.663 759.164 415.968 760.369 416.577C761.575 417.173 762.544 417.921 763.279 418.822C764.027 419.709 764.602 420.581 765.004 421.44H765.336V416.079H774.127V448.312C774.127 451.027 773.462 453.299 772.132 455.128C770.802 456.957 768.959 458.329 766.604 459.243C764.262 460.171 761.568 460.636 758.52 460.636ZM758.707 440.893C760.134 440.893 761.339 440.539 762.323 439.833C763.32 439.112 764.082 438.087 764.609 436.757C765.149 435.413 765.419 433.806 765.419 431.935C765.419 430.065 765.156 428.444 764.63 427.072C764.103 425.687 763.341 424.613 762.344 423.851C761.346 423.089 760.134 422.708 758.707 422.708C757.252 422.708 756.026 423.103 755.028 423.893C754.031 424.669 753.276 425.749 752.763 427.135C752.25 428.52 751.994 430.12 751.994 431.935C751.994 433.778 752.25 435.371 752.763 436.715C753.289 438.045 754.045 439.078 755.028 439.812C756.026 440.532 757.252 440.893 758.707 440.893Z" fill="#BBBFC7"/>
<path d="M1331.94 297.511C1332.44 297.819 1332.97 298.08 1333.42 298.44C1336.05 300.525 1338.68 302.617 1341.27 304.745C1342.73 305.936 1342.74 306.827 1341.37 308.156C1339.92 309.568 1338.14 309.739 1336.29 309.324C1333.74 308.753 1331.84 307.235 1330.8 304.863C1329.67 302.309 1328.07 300.388 1325.37 299.421C1324.99 299.284 1324.64 298.62 1324.55 298.146C1323.73 293.763 1321.2 291.337 1316.84 290.709C1316.35 290.638 1315.8 290.122 1315.49 289.665C1314.87 288.719 1314.54 287.561 1313.85 286.689C1311.55 283.829 1308.39 283.507 1305.24 284.535C1303.13 285.22 1301.85 284.862 1300.31 283.391C1298.41 281.576 1295.92 281.045 1293.27 281.209C1292.73 281.242 1292.06 280.974 1291.63 280.626C1290.31 279.562 1289.07 278.397 1287.81 277.262C1286.61 276.179 1286.46 275.267 1287.11 273.774C1290.71 265.536 1294.3 257.296 1297.87 249.051C1298.76 247.023 1299.02 246.824 1301.24 246.836C1303.12 246.848 1304.99 246.839 1306.87 246.839C1306.91 246.957 1306.95 247.075 1307 247.194C1306.74 247.504 1306.48 247.815 1306.22 248.125C1304.92 249.66 1303.51 251.115 1302.35 252.75C1300.24 255.728 1300.91 258.877 1303.93 260.94C1307.51 263.38 1311.41 263.447 1315.01 261.061C1318.14 258.993 1321.27 256.924 1324.33 254.759C1327.08 252.814 1329.93 252.605 1332.78 254.228C1336.76 256.486 1340.71 258.813 1344.54 261.307C1353.64 267.228 1362.67 273.253 1371.71 279.257C1374.73 281.259 1375.25 283.905 1373.02 286.795C1372.1 288.001 1370.78 289.011 1369.45 289.778C1367.81 290.721 1366.07 290.522 1364.41 289.454C1358.7 285.777 1352.97 282.145 1347.24 278.506C1346.81 278.233 1346.35 277.946 1345.87 277.845C1345.5 277.766 1345.07 277.975 1344.67 278.055C1344.8 278.434 1344.84 278.877 1345.07 279.178C1345.33 279.51 1345.74 279.721 1346.1 279.965C1351.39 283.564 1356.67 287.158 1361.96 290.761C1363.97 292.136 1364.24 293.55 1362.88 295.571C1361.67 297.372 1359.94 298.414 1357.82 298.762C1356.48 298.98 1355.27 298.665 1354.13 297.864C1349.86 294.877 1345.56 291.93 1341.26 288.989C1340.75 288.639 1340.17 288.352 1339.57 288.162C1339.18 288.037 1338.72 288.139 1338.29 288.139C1338.23 288.26 1338.18 288.383 1338.13 288.504C1338.59 288.944 1339.01 289.439 1339.52 289.821C1343.42 292.773 1347.34 295.708 1351.26 298.637C1353.47 300.288 1353.46 302.366 1351.21 303.998C1349.09 305.531 1346.51 305.567 1344.36 304.088C1341.17 301.902 1337.99 299.691 1334.78 297.542C1334.08 297.068 1333.29 296.476 1331.94 297.511Z" fill="url(#paint3_linear_44_35)"/>
<path d="M1334.77 233.474C1338.42 234.173 1342.29 234.884 1346.15 235.666C1348.47 236.135 1350.79 236.639 1353.07 237.258C1357.89 238.566 1362.75 238.644 1367.62 237.77C1369.86 237.367 1371.3 238.047 1372.59 239.942C1378.05 247.971 1382.29 256.65 1386.28 265.456C1387.33 267.769 1386.98 269.098 1384.97 270.631C1382.43 272.564 1379.81 274.405 1377.21 276.26C1375.42 277.53 1373.7 277.428 1371.84 276.205C1361 269.069 1350.14 261.955 1339.22 254.937C1336.82 253.392 1334.22 252.094 1331.58 250.99C1329.05 249.928 1326.45 250.296 1324.12 251.833C1320.79 254.022 1317.47 256.228 1314.17 258.462C1311.87 260.021 1309.47 260.632 1306.8 259.521C1303.55 258.171 1302.72 255.487 1304.87 252.736C1307.81 248.974 1310.76 245.211 1313.9 241.619C1314.91 240.459 1316.45 239.615 1317.91 239.006C1321.76 237.395 1325.68 235.919 1329.62 234.538C1331.16 233.998 1332.84 233.858 1334.77 233.474Z" fill="url(#paint4_linear_44_35)"/>
<path d="M1289.77 239.382C1291.91 239.544 1294.12 240.188 1295.97 241.749C1296.9 242.531 1297.28 243.476 1296.77 244.692C1292.62 254.479 1288.47 264.269 1284.36 274.073C1283.2 276.835 1281.5 277.548 1278.44 276.944C1277.32 276.721 1276.19 276.188 1275.21 275.563C1272.77 273.999 1272.17 271.658 1273.3 268.988C1277 260.25 1280.7 251.508 1284.39 242.766C1285.36 240.472 1287.09 239.318 1289.77 239.382Z" fill="url(#paint5_linear_44_35)"/>
<path d="M1382.25 230.37C1383.25 230.363 1384.62 231.351 1385.57 233.014C1387.67 236.679 1389.81 240.314 1391.83 244.019C1394.34 248.627 1396.75 253.29 1399.18 257.938C1400.38 260.234 1400.18 261.912 1398.41 263.764C1396.54 265.714 1394.31 267.093 1391.62 267.605C1390.78 267.764 1390.09 267.65 1389.66 266.742C1387.13 261.442 1384.74 256.067 1381.97 250.897C1379.32 245.969 1376.29 241.25 1373.38 236.461C1372.47 234.955 1372.51 234.322 1373.87 233.261C1375.89 231.68 1379.17 230.399 1382.25 230.37Z" fill="url(#paint6_linear_44_35)"/>
<path d="M1308.25 287.002C1309.78 287.085 1311.25 287.582 1312.1 289.125C1312.93 290.624 1312.72 292.148 1311.78 293.489C1310.65 295.1 1309.44 296.659 1308.14 298.135C1306.98 299.457 1305.05 299.63 1303.09 298.801C1301.33 298.054 1300.23 296.507 1300.24 294.813C1300.27 291.57 1304.91 286.976 1308.25 287.002Z" fill="url(#paint7_linear_44_35)"/>
<path d="M1315.22 305.268C1312.38 305.275 1310.24 303.662 1309.95 301.409C1309.87 300.809 1310.03 300.035 1310.37 299.554C1311.47 298.019 1312.67 296.547 1313.9 295.114C1315.37 293.401 1317.94 293.37 1319.96 294.967C1321.84 296.457 1322.16 298.547 1320.74 300.471C1319.9 301.613 1319 302.71 1318.11 303.809C1317.29 304.818 1316.21 305.306 1315.22 305.268Z" fill="url(#paint8_linear_44_35)"/>
<path d="M1294.94 283.884C1296.64 283.995 1298.38 284.779 1299.52 286.597C1300.93 288.871 1299.77 291.536 1297.16 292.086C1294.18 292.719 1291.02 290.328 1291.01 287.433C1291 285.293 1292.41 283.879 1294.94 283.884Z" fill="url(#paint9_linear_44_35)"/>
<path d="M1322.84 301.914C1324.88 302.11 1326.35 302.729 1327.5 303.965C1328.44 304.975 1328.53 306.271 1327.83 307.585C1326.28 310.466 1321.98 310.779 1320.02 308.154C1319.2 307.055 1319.16 305.986 1319.94 304.892C1320.46 304.152 1320.98 303.394 1321.6 302.74C1322 302.323 1322.58 302.079 1322.84 301.914Z" fill="url(#paint10_linear_44_35)"/>
<rect x="400" y="123" width="78.3216" height="77.5029" rx="19.1028" fill="url(#paint11_linear_44_35)"/>
<path d="M496 176.318V143.574H518.064V149.282H502.923V157.084H516.929V162.792H502.923V170.61H518.128V176.318H496ZM533.603 186.039C531.397 186.039 529.505 185.735 527.927 185.127C526.361 184.531 525.114 183.715 524.186 182.681C523.259 181.647 522.657 180.486 522.379 179.196L528.679 178.348C528.871 178.839 529.175 179.297 529.59 179.723C530.006 180.15 530.555 180.491 531.237 180.747C531.93 181.013 532.772 181.146 533.763 181.146C535.245 181.146 536.465 180.784 537.425 180.059C538.395 179.345 538.879 178.146 538.879 176.462V171.969H538.592C538.293 172.651 537.846 173.296 537.249 173.904C536.652 174.511 535.884 175.007 534.946 175.391C534.008 175.774 532.889 175.966 531.589 175.966C529.745 175.966 528.066 175.54 526.552 174.687C525.05 173.824 523.85 172.507 522.955 170.738C522.07 168.958 521.628 166.709 521.628 163.991C521.628 161.209 522.081 158.885 522.987 157.02C523.893 155.155 525.098 153.758 526.6 152.831C528.114 151.904 529.771 151.44 531.573 151.44C532.948 151.44 534.099 151.674 535.026 152.143C535.954 152.602 536.7 153.177 537.265 153.87C537.84 154.552 538.283 155.224 538.592 155.885H538.848V151.76H545.611V176.558C545.611 178.647 545.099 180.395 544.076 181.802C543.052 183.209 541.635 184.264 539.823 184.968C538.021 185.682 535.948 186.039 533.603 186.039ZM533.747 170.85C534.845 170.85 535.772 170.578 536.529 170.034C537.297 169.48 537.883 168.691 538.288 167.668C538.704 166.634 538.911 165.398 538.911 163.959C538.911 162.52 538.709 161.273 538.304 160.218C537.899 159.152 537.313 158.326 536.545 157.739C535.778 157.153 534.845 156.86 533.747 156.86C532.628 156.86 531.685 157.164 530.917 157.771C530.15 158.368 529.569 159.2 529.175 160.266C528.78 161.331 528.583 162.563 528.583 163.959C528.583 165.377 528.78 166.602 529.175 167.636C529.58 168.659 530.16 169.454 530.917 170.018C531.685 170.573 532.628 170.85 533.747 170.85ZM557.133 176.782C555.566 176.782 554.17 176.51 552.944 175.966C551.718 175.412 550.748 174.596 550.034 173.52C549.331 172.433 548.979 171.079 548.979 169.459C548.979 168.095 549.229 166.949 549.73 166.021C550.231 165.094 550.914 164.348 551.777 163.783C552.64 163.218 553.621 162.792 554.719 162.504C555.827 162.216 556.989 162.014 558.204 161.896C559.633 161.747 560.784 161.609 561.658 161.481C562.532 161.342 563.166 161.14 563.56 160.873C563.955 160.607 564.152 160.212 564.152 159.69V159.594C564.152 158.581 563.832 157.798 563.193 157.244C562.564 156.689 561.668 156.412 560.507 156.412C559.281 156.412 558.306 156.684 557.581 157.228C556.856 157.761 556.376 158.432 556.142 159.242L549.842 158.731C550.162 157.238 550.791 155.949 551.729 154.861C552.667 153.764 553.877 152.922 555.358 152.335C556.851 151.738 558.577 151.44 560.539 151.44C561.903 151.44 563.209 151.6 564.456 151.92C565.713 152.239 566.827 152.735 567.797 153.407C568.778 154.078 569.551 154.941 570.116 155.997C570.681 157.041 570.963 158.294 570.963 159.754V176.318H564.504V172.912H564.312C563.917 173.68 563.39 174.357 562.729 174.943C562.068 175.518 561.274 175.971 560.347 176.302C559.419 176.622 558.348 176.782 557.133 176.782ZM559.084 172.081C560.086 172.081 560.97 171.884 561.738 171.489C562.505 171.084 563.107 170.541 563.544 169.859C563.981 169.176 564.2 168.404 564.2 167.54V164.934C563.987 165.073 563.694 165.201 563.321 165.318C562.958 165.424 562.548 165.526 562.089 165.622C561.631 165.707 561.173 165.787 560.714 165.861C560.256 165.925 559.84 165.984 559.467 166.037C558.668 166.155 557.97 166.341 557.373 166.597C556.776 166.853 556.312 167.199 555.982 167.636C555.651 168.063 555.486 168.595 555.486 169.235C555.486 170.162 555.822 170.871 556.494 171.361C557.176 171.841 558.039 172.081 559.084 172.081ZM582.158 143.574V176.318H575.347V143.574H582.158ZM586.713 176.318V151.76H593.524V176.318H586.713ZM590.135 148.594C589.122 148.594 588.254 148.258 587.529 147.587C586.815 146.905 586.457 146.089 586.457 145.141C586.457 144.203 586.815 143.398 587.529 142.726C588.254 142.044 589.122 141.703 590.135 141.703C591.147 141.703 592.011 142.044 592.725 142.726C593.45 143.398 593.812 144.203 593.812 145.141C593.812 146.089 593.45 146.905 592.725 147.587C592.011 148.258 591.147 148.594 590.135 148.594ZM604.251 169.251L604.267 161.081H605.259L613.125 151.76H620.943L610.375 164.103H608.76L604.251 169.251ZM598.08 176.318V143.574H604.891V176.318H598.08ZM613.429 176.318L606.202 165.622L610.743 160.809L621.407 176.318H613.429Z" fill="#1B3363"/>
<path d="M437.14 174.766C437.369 174.909 437.616 175.029 437.827 175.196C439.043 176.162 440.259 177.13 441.461 178.116C442.135 178.667 442.138 179.08 441.505 179.695C440.834 180.349 440.012 180.428 439.154 180.236C437.973 179.972 437.092 179.269 436.609 178.17C436.089 176.988 435.345 176.098 434.099 175.65C433.92 175.587 433.759 175.28 433.717 175.06C433.338 173.031 432.166 171.907 430.148 171.617C429.918 171.584 429.663 171.344 429.524 171.133C429.237 170.695 429.084 170.159 428.761 169.755C427.7 168.431 426.234 168.281 424.775 168.758C423.801 169.075 423.206 168.909 422.493 168.228C421.614 167.387 420.458 167.142 419.234 167.217C418.984 167.233 418.674 167.109 418.475 166.947C417.864 166.455 417.29 165.915 416.706 165.39C416.15 164.888 416.079 164.466 416.38 163.775C418.046 159.96 419.709 156.145 421.365 152.327C421.773 151.388 421.897 151.296 422.922 151.301C423.792 151.307 424.661 151.302 425.531 151.302C425.551 151.357 425.569 151.412 425.589 151.467C425.469 151.611 425.35 151.754 425.229 151.898C424.628 152.609 423.973 153.283 423.437 154.039C422.461 155.418 422.773 156.876 424.171 157.832C425.826 158.962 427.631 158.993 429.3 157.888C430.748 156.93 432.198 155.973 433.614 154.97C434.887 154.069 436.206 153.973 437.529 154.724C439.371 155.77 441.199 156.847 442.974 158.002C447.187 160.744 451.367 163.533 455.554 166.313C456.951 167.24 457.195 168.466 456.163 169.804C455.733 170.363 455.124 170.83 454.507 171.185C453.749 171.622 452.942 171.53 452.175 171.035C449.532 169.332 446.877 167.651 444.224 165.966C444.025 165.839 443.811 165.707 443.587 165.66C443.417 165.623 443.22 165.72 443.034 165.757C443.094 165.933 443.114 166.138 443.221 166.277C443.338 166.431 443.53 166.528 443.696 166.641C446.143 168.308 448.592 169.972 451.039 171.641C451.97 172.277 452.096 172.932 451.465 173.868C450.904 174.701 450.105 175.184 449.122 175.345C448.504 175.446 447.943 175.3 447.414 174.93C445.438 173.546 443.448 172.182 441.457 170.82C441.219 170.658 440.948 170.525 440.674 170.437C440.493 170.379 440.277 170.426 440.078 170.426C440.054 170.482 440.03 170.539 440.007 170.595C440.219 170.799 440.415 171.029 440.648 171.205C442.456 172.572 444.271 173.931 446.086 175.287C447.11 176.052 447.102 177.014 446.06 177.77C445.083 178.48 443.887 178.496 442.888 177.812C441.412 176.799 439.942 175.775 438.453 174.78C438.128 174.561 437.763 174.287 437.14 174.766Z" fill="url(#paint12_linear_44_35)"/>
<path d="M438.45 145.114C440.139 145.438 441.933 145.767 443.72 146.129C444.794 146.346 445.867 146.58 446.923 146.866C449.155 147.472 451.405 147.508 453.66 147.103C454.698 146.916 455.363 147.231 455.96 148.109C458.49 151.827 460.451 155.845 462.303 159.923C462.789 160.994 462.627 161.609 461.693 162.319C460.516 163.214 459.306 164.067 458.1 164.926C457.274 165.514 456.477 165.467 455.616 164.901C450.595 161.596 445.567 158.302 440.512 155.052C439.4 154.337 438.195 153.736 436.974 153.225C435.799 152.733 434.598 152.903 433.516 153.615C431.975 154.629 430.438 155.65 428.911 156.685C427.846 157.407 426.736 157.69 425.497 157.175C423.992 156.55 423.611 155.307 424.606 154.033C425.966 152.291 427.332 150.549 428.785 148.886C429.254 148.348 429.966 147.958 430.641 147.676C432.426 146.93 434.239 146.246 436.066 145.607C436.779 145.356 437.558 145.292 438.45 145.114Z" fill="url(#paint13_linear_44_35)"/>
<path d="M417.614 147.85C418.605 147.925 419.625 148.223 420.483 148.946C420.912 149.308 421.091 149.746 420.853 150.309C418.933 154.84 417.012 159.374 415.106 163.913C414.57 165.192 413.782 165.523 412.367 165.243C411.845 165.14 411.325 164.893 410.872 164.603C409.741 163.879 409.461 162.795 409.985 161.559C411.701 157.513 413.413 153.465 415.121 149.417C415.569 148.355 416.37 147.82 417.614 147.85Z" fill="url(#paint14_linear_44_35)"/>
<path d="M460.432 143.677C460.895 143.673 461.531 144.131 461.972 144.901C462.942 146.598 463.937 148.281 464.872 149.997C466.033 152.131 467.149 154.29 468.275 156.442C468.83 157.505 468.738 158.282 467.916 159.14C467.052 160.043 466.019 160.681 464.772 160.918C464.385 160.992 464.065 160.939 463.865 160.519C462.693 158.065 461.587 155.575 460.302 153.182C459.078 150.9 457.673 148.714 456.329 146.497C455.905 145.8 455.924 145.507 456.553 145.015C457.487 144.283 459.01 143.69 460.432 143.677Z" fill="url(#paint15_linear_44_35)"/>
<path d="M426.169 169.9C426.88 169.938 427.558 170.169 427.954 170.883C428.338 171.577 428.24 172.283 427.805 172.904C427.282 173.65 426.719 174.372 426.118 175.055C425.58 175.667 424.688 175.747 423.781 175.363C422.966 175.018 422.453 174.301 422.46 173.517C422.473 172.015 424.621 169.888 426.169 169.9Z" fill="url(#paint16_linear_44_35)"/>
<path d="M429.396 178.358C428.082 178.361 427.09 177.614 426.956 176.571C426.921 176.293 426.993 175.935 427.153 175.712C427.661 175.001 428.215 174.32 428.786 173.656C429.468 172.863 430.655 172.849 431.591 173.588C432.464 174.278 432.612 175.246 431.955 176.136C431.566 176.665 431.149 177.173 430.734 177.682C430.354 178.15 429.853 178.376 429.396 178.358Z" fill="url(#paint17_linear_44_35)"/>
<path d="M420.008 168.456C420.794 168.508 421.602 168.871 422.126 169.712C422.782 170.766 422.242 172 421.037 172.254C419.654 172.547 418.19 171.44 418.188 170.1C418.184 169.109 418.837 168.454 420.008 168.456Z" fill="url(#paint18_linear_44_35)"/>
<path d="M432.926 176.805C433.871 176.896 434.55 177.182 435.084 177.755C435.519 178.222 435.561 178.822 435.234 179.431C434.518 180.765 432.525 180.91 431.618 179.694C431.238 179.185 431.22 178.691 431.581 178.184C431.824 177.841 432.063 177.49 432.352 177.188C432.536 176.994 432.805 176.881 432.926 176.805Z" fill="url(#paint19_linear_44_35)"/>
<defs>
<filter id="filter0_d_44_35" x="1129.26" y="64.4926" width="413.564" height="411.229" filterUnits="userSpaceOnUse" color-interpolation-filters="sRGB">
<feFlood flood-opacity="0" result="BackgroundImageFix"/>
<feColorMatrix in="SourceAlpha" type="matrix" values="0 0 0 0 0 0 0 0 0 0 0 0 0 0 0 0 0 0 127 0" result="hardAlpha"/>
<feMorphology radius="20.3014" operator="dilate" in="SourceAlpha" result="effect1_dropShadow_44_35"/>
<feOffset/>
<feGaussianBlur stdDeviation="20.5763"/>
<feComposite in2="hardAlpha" operator="out"/>
<feColorMatrix type="matrix" values="0 0 0 0 0 0 0 0 0 0 0 0 0 0 0 0 0 0 0.25 0"/>
<feBlend mode="normal" in2="BackgroundImageFix" result="effect1_dropShadow_44_35"/>
<feBlend mode="normal" in="SourceGraphic" in2="effect1_dropShadow_44_35" result="shape"/>
</filter>
<linearGradient id="paint0_linear_44_35" x1="1007.5" y1="1.60933e-05" x2="1007.5" y2="540" gradientUnits="userSpaceOnUse">
<stop stop-color="#017CCC"/>
<stop offset="1" stop-color="#042E4A"/>
</linearGradient>
<linearGradient id="paint1_linear_44_35" x1="1328.68" y1="139.68" x2="1265.46" y2="605.046" gradientUnits="userSpaceOnUse">
<stop stop-color="#0272BC"/>
<stop offset="0.939576" stop-color="#162851"/>
</linearGradient>
<linearGradient id="paint2_linear_44_35" x1="1336.01" y1="210.596" x2="1336.01" y2="354.46" gradientUnits="userSpaceOnUse">
<stop stop-color="#254989"/>
<stop offset="1" stop-color="#162851"/>
</linearGradient>
<linearGradient id="paint3_linear_44_35" x1="1319.46" y1="242.519" x2="1386.04" y2="327.855" gradientUnits="userSpaceOnUse">
<stop stop-color="#CCD5E6"/>
<stop offset="1" stop-color="#0A3785"/>
</linearGradient>
<linearGradient id="paint4_linear_44_35" x1="1334.73" y1="230.465" x2="1376.02" y2="302.495" gradientUnits="userSpaceOnUse">
<stop stop-color="#CCD5E6"/>
<stop offset="1" stop-color="#0A3785"/>
</linearGradient>
<linearGradient id="paint5_linear_44_35" x1="1281.8" y1="236.779" x2="1317.95" y2="258.053" gradientUnits="userSpaceOnUse">
<stop stop-color="#CCD5E6"/>
<stop offset="1" stop-color="#0A3785"/>
</linearGradient>
<linearGradient id="paint6_linear_44_35" x1="1382.91" y1="227.802" x2="1420.63" y2="252.994" gradientUnits="userSpaceOnUse">
<stop stop-color="#CCD5E6"/>
<stop offset="1" stop-color="#0A3785"/>
</linearGradient>
<linearGradient id="paint7_linear_44_35" x1="1304.86" y1="286.154" x2="1318.29" y2="298.54" gradientUnits="userSpaceOnUse">
<stop stop-color="#CCD5E6"/>
<stop offset="1" stop-color="#0A3785"/>
</linearGradient>
<linearGradient id="paint8_linear_44_35" x1="1314.3" y1="293.008" x2="1326.83" y2="304.719" gradientUnits="userSpaceOnUse">
<stop stop-color="#CCD5E6"/>
<stop offset="1" stop-color="#0A3785"/>
</linearGradient>
<linearGradient id="paint9_linear_44_35" x1="1294.41" y1="283.312" x2="1303.51" y2="292.459" gradientUnits="userSpaceOnUse">
<stop stop-color="#CCD5E6"/>
<stop offset="1" stop-color="#0A3785"/>
</linearGradient>
<linearGradient id="paint10_linear_44_35" x1="1322.71" y1="301.36" x2="1331.5" y2="310.305" gradientUnits="userSpaceOnUse">
<stop stop-color="#CCD5E6"/>
<stop offset="1" stop-color="#0A3785"/>
</linearGradient>
<linearGradient id="paint11_linear_44_35" x1="439.024" y1="135.417" x2="439.024" y2="196.409" gradientUnits="userSpaceOnUse">
<stop stop-color="#254989"/>
<stop offset="1" stop-color="#162851"/>
</linearGradient>
<linearGradient id="paint12_linear_44_35" x1="431.358" y1="149.302" x2="462.191" y2="188.817" gradientUnits="userSpaceOnUse">
<stop stop-color="#CCD5E6"/>
<stop offset="1" stop-color="#0A3785"/>
</linearGradient>
<linearGradient id="paint13_linear_44_35" x1="438.433" y1="143.721" x2="457.551" y2="177.074" gradientUnits="userSpaceOnUse">
<stop stop-color="#CCD5E6"/>
<stop offset="1" stop-color="#0A3785"/>
</linearGradient>
<linearGradient id="paint14_linear_44_35" x1="413.922" y1="146.645" x2="430.662" y2="156.495" gradientUnits="userSpaceOnUse">
<stop stop-color="#CCD5E6"/>
<stop offset="1" stop-color="#0A3785"/>
</linearGradient>
<linearGradient id="paint15_linear_44_35" x1="460.739" y1="142.488" x2="478.207" y2="154.153" gradientUnits="userSpaceOnUse">
<stop stop-color="#CCD5E6"/>
<stop offset="1" stop-color="#0A3785"/>
</linearGradient>
<linearGradient id="paint16_linear_44_35" x1="424.6" y1="169.508" x2="430.819" y2="175.243" gradientUnits="userSpaceOnUse">
<stop stop-color="#CCD5E6"/>
<stop offset="1" stop-color="#0A3785"/>
</linearGradient>
<linearGradient id="paint17_linear_44_35" x1="428.969" y1="172.681" x2="434.773" y2="178.103" gradientUnits="userSpaceOnUse">
<stop stop-color="#CCD5E6"/>
<stop offset="1" stop-color="#0A3785"/>
</linearGradient>
<linearGradient id="paint18_linear_44_35" x1="419.763" y1="168.191" x2="423.974" y2="172.427" gradientUnits="userSpaceOnUse">
<stop stop-color="#CCD5E6"/>
<stop offset="1" stop-color="#0A3785"/>
</linearGradient>
<linearGradient id="paint19_linear_44_35" x1="432.862" y1="176.549" x2="436.936" y2="180.69" gradientUnits="userSpaceOnUse">
<stop stop-color="#CCD5E6"/>
<stop offset="1" stop-color="#0A3785"/>
</linearGradient>
</defs>
</svg>
