<svg width="21" height="20" viewBox="0 0 21 20" fill="none" xmlns="http://www.w3.org/2000/svg">
<path d="M0 9.71305V16.8891C0 18.1636 1.03319 19.1968 2.30769 19.1968H4.20955C5.48405 19.1968 6.51724 18.1636 6.51724 16.8891V11.5371C6.51724 10.8998 7.03384 10.3832 7.67109 10.3832H13.3289C13.9662 10.3832 14.4828 10.8998 14.4828 11.5371V16.8891C14.4828 18.1636 15.5159 19.1968 16.7905 19.1968H18.6923C19.9668 19.1968 21 18.1636 21 16.8891V9.71305C21 9.0606 20.7238 8.43865 20.2398 8.00112L12.0475 0.595649C11.1687 -0.198709 9.83126 -0.198709 8.9525 0.59565L0.760191 8.00113C0.276184 8.43865 0 9.0606 0 9.71305Z" fill="white"/>
</svg>
