<svg width="32" height="32" viewBox="0 0 32 32" fill="none" xmlns="http://www.w3.org/2000/svg">
<path d="M32 29.9683V12.6984C32 12.383 31.9277 12.0719 31.7889 11.7898C31.65 11.5077 31.4484 11.2623 31.2 11.073L17.2 0.406349C16.8538 0.142583 16.4327 0 16 0C15.5673 0 15.1462 0.142583 14.8 0.406349L0.8 11.073C0.551608 11.2623 0.350001 11.5077 0.211145 11.7898C0.07229 12.0719 0 12.383 0 12.6984V29.9683C0 30.5071 0.210714 31.0239 0.585787 31.4049C0.96086 31.7859 1.46957 32 2 32H10C10.5304 32 11.0391 31.7859 11.4142 31.4049C11.7893 31.0239 12 30.5071 12 29.9683V23.873C12 23.3342 12.2107 22.8174 12.5858 22.4364C12.9609 22.0553 13.4696 21.8413 14 21.8413H18C18.5304 21.8413 19.0391 22.0553 19.4142 22.4364C19.7893 22.8174 20 23.3342 20 23.873V29.9683C20 30.5071 20.2107 31.0239 20.5858 31.4049C20.9609 31.7859 21.4696 32 22 32H30C30.5304 32 31.0391 31.7859 31.4142 31.4049C31.7893 31.0239 32 30.5071 32 29.9683Z" fill="white"/>
</svg>
