<svg width="28" height="28" viewBox="0 0 28 28" fill="none" xmlns="http://www.w3.org/2000/svg">
<path d="M0.025707 3.5V9H3.02588V4.5C3.02588 3.3 3.69243 3 4.02571 3H22.0259C23.6259 3 24.0259 4 24.0259 4.5V22C24.0259 24 23.0259 24.5 22.5259 24.5H4.52588C3.32588 24.5 3.02588 23.1667 3.02588 22.5V18.5H0.025707V24C0.025707 26.4 2.35915 27.3333 3.52588 27.5H24.0259C26.4259 27.5 27.0259 25.5 27.0259 24.5V2.5C27.0259 0.5 25.0259 0 24.0259 0H4.02571C0.425707 0 -0.14096 2.33333 0.025707 3.5Z" fill="#AFAFAF"/>
<path d="M0.525391 15.5V12.5H13.0254V8L20.5254 14L13.0254 20V15.5H0.525391Z" fill="#AFAFAF"/>
</svg>
