<svg width="33" height="27" viewBox="0 0 33 27" fill="none" xmlns="http://www.w3.org/2000/svg">
<path d="M3.70711 0.292893L0.292893 3.70711C0.105357 3.89464 0 4.1474 0 4.41262V22C0 24.8 2.66667 26.1667 4 26.5H28.5C31.7 26.5 32.5 23.5 32.5 22V7C32.5 3.8 29.8333 3.33333 28.5 3.5H16.8431C16.6207 3.5 16.4047 3.42588 16.2292 3.28935L12.2708 0.210648C12.0953 0.0741222 11.8793 0 11.6569 0H4.41421C4.149 0 3.89464 0.105357 3.70711 0.292893Z" fill="white"/>
<rect x="4" y="6" width="25" height="17" rx="1" fill="#212121"/>
</svg>
