<svg width="28" height="28" viewBox="0 0 28 28" fill="none" xmlns="http://www.w3.org/2000/svg">
<path d="M13.984 28C6.26125 27.9959 -0.00817984 21.7058 8.01084e-06 13.9685C0.00819586 6.24751 6.2981 -0.00736084 14.0471 6.50157e-06C21.7469 0.00737384 28.0074 6.30236 28 14.0307C27.9926 21.7345 21.7019 28.0041 13.984 28ZM19.171 13.1908C19.1424 11.6494 18.9647 10.1538 18.6552 8.64517C15.5414 8.84655 12.4455 8.84164 9.34071 8.64599C9.03694 10.162 8.85271 11.6568 8.82978 13.1908C12.2818 13.1908 15.7051 13.1908 19.171 13.1908ZM19.144 14.8116C15.7002 14.8116 12.276 14.8116 8.82978 14.8116C8.8568 16.3473 9.0353 17.8429 9.3448 19.354C12.4554 19.1526 15.5504 19.1584 18.6364 19.3524C18.9082 18.4585 19.2251 15.6098 19.144 14.8116ZM18.2597 7.09066C18.2311 6.97033 18.2122 6.87374 18.1844 6.77878C17.802 5.46084 17.215 4.24032 16.4297 3.11639C16.067 2.5974 15.6175 2.157 15.0493 1.87786C14.7373 1.72478 14.3771 1.61591 14.0323 1.59463C13.2365 1.54633 12.6314 1.97527 12.1025 2.51636C11.2124 3.42582 10.6311 4.52355 10.1931 5.70397C10.0277 6.1501 9.8811 6.60278 9.71407 7.08821C12.5913 7.27403 15.4071 7.27075 18.2597 7.09066ZM9.746 20.9085C9.76647 21.0133 9.76975 21.0853 9.79513 21.1484C10.1259 21.9719 10.4231 22.8118 10.8047 23.6115C11.1797 24.3957 11.6399 25.1415 12.3309 25.703C12.796 26.0812 13.2897 26.4013 13.9226 26.4185C14.7234 26.4398 15.3367 26.055 15.8664 25.5148C17.1077 24.25 17.748 22.6636 18.2384 21.0018C18.2458 20.9773 18.2262 20.9454 18.2172 20.9052C15.4054 20.7268 12.5954 20.7293 9.746 20.9085ZM7.18239 13.1933C7.35351 11.6265 7.52218 10.0793 7.69167 8.53057C7.67038 8.52566 7.64091 8.51502 7.61061 8.51092C6.17938 8.33493 4.74814 8.15565 3.31527 7.99439C3.22684 7.98457 3.08191 8.09344 3.03115 8.18512C2.51204 9.12078 2.13458 10.1154 1.90778 11.1599C1.76367 11.823 1.67934 12.4991 1.56389 13.1933C3.49868 13.1933 5.35732 13.1933 7.18239 13.1933ZM7.69085 19.4727C7.51973 17.9026 7.35188 16.3629 7.18403 14.819C5.34749 14.819 3.48312 14.819 1.60646 14.819C1.72846 16.6297 2.20745 18.3079 3.06472 19.8738C3.10812 19.9524 3.27924 20.0097 3.38241 19.9982C3.94082 19.9369 4.49596 19.8419 5.05437 19.774C5.9362 19.6667 6.82049 19.5718 7.69085 19.4727ZM20.3083 19.4694C20.3403 19.4768 20.3894 19.4907 20.4385 19.4973C21.8493 19.67 23.26 19.846 24.6724 20.0048C24.7642 20.0154 24.9222 19.9139 24.9615 19.8255C25.2751 19.1158 25.6001 18.4077 25.8572 17.6767C26.1807 16.7599 26.3354 15.8021 26.3886 14.8133C24.5013 14.8133 22.6353 14.8133 20.816 14.8133C20.6465 16.3727 20.4786 17.9051 20.3083 19.4694ZM26.3698 13.1908C26.3788 13.145 26.3911 13.1163 26.3894 13.0877C26.2584 11.3498 25.7885 9.71098 24.9762 8.16793C24.8763 7.97802 24.7609 7.97229 24.5824 7.99685C23.6809 8.12127 22.7778 8.23833 21.8747 8.35048C21.3408 8.41679 20.8053 8.46918 20.3091 8.5232C20.4811 10.1006 20.6489 11.6412 20.8176 13.1908C22.6509 13.1908 24.5095 13.1908 26.3698 13.1908ZM17.7676 25.8275C19.8768 25.2921 23.0513 23.0459 23.8578 21.5036C23.8299 21.4914 23.8029 21.4709 23.7751 21.4676C22.5362 21.3252 21.2958 21.1885 20.0578 21.0403C19.8605 21.0166 19.8514 21.1402 19.8072 21.2679C19.5731 21.9539 19.3806 22.6603 19.081 23.3168C18.6863 24.1796 18.2049 25.0023 17.7676 25.8275ZM10.2299 2.17255C8.09861 2.72265 4.89552 4.99179 4.14552 6.498C4.17335 6.50946 4.20037 6.52911 4.22903 6.53238C5.46785 6.67482 6.70667 6.81152 7.94468 6.95969C8.14364 6.98343 8.15019 6.85655 8.19359 6.72966C8.42449 6.05351 8.61117 5.35606 8.90757 4.70938C9.30632 3.83757 9.79022 3.00588 10.2299 2.17255ZM17.7079 2.13817C17.7201 2.19138 17.7193 2.21267 17.7292 2.22658C18.7305 3.60018 19.3503 5.14978 19.8171 6.76814C19.8645 6.93104 19.9333 6.97361 20.0971 6.9556C20.8283 6.87456 21.5611 6.81234 22.2914 6.73048C22.8171 6.67154 23.3403 6.59214 23.9167 6.51437C22.2767 4.39012 20.2281 2.95185 17.7079 2.13817ZM10.3404 25.8766C10.1701 25.6236 10.049 25.4468 9.93105 25.2675C9.13683 24.0577 8.62017 22.7266 8.21979 21.3457C8.16084 21.1435 8.11498 21.0084 7.83824 21.046C7.13981 21.141 6.43402 21.1868 5.73314 21.2654C5.19929 21.326 4.66872 21.407 4.08329 21.4865C5.72577 23.6099 7.7711 25.0457 10.3404 25.8766Z" fill="#AFAFAF"/>
</svg>
