<svg width="13" height="20" viewBox="0 0 13 20" fill="none" xmlns="http://www.w3.org/2000/svg">
<path d="M5.82445 16.8927C5.85512 16.3869 5.87046 15.9131 5.91505 15.4434C5.97318 14.8305 6.05486 14.2216 6.12334 13.6104C6.13226 13.5313 6.1319 13.4468 6.12013 13.3686C5.95285 12.257 5.4371 11.4221 4.75835 10.7486C4.37707 10.3702 3.94336 10.0768 3.53211 9.74731C3.49002 9.71341 3.44045 9.69397 3.38695 9.68357C4.04394 10.1849 4.67097 10.7305 5.20705 11.4759C4.84931 11.6414 4.49691 11.7218 4.1356 11.7372C3.11587 11.7806 2.30551 11.2191 1.64531 10.2889C1.30076 9.80336 1.00651 9.26046 0.689784 8.74378C0.464723 8.37673 0.239662 8.00967 0.00390143 7.62544C-0.00679877 7.63765 0.00604147 7.61504 0.0238751 7.60374C1.25475 6.80183 2.50775 6.7069 3.75432 7.50475C4.73446 8.13218 5.22203 9.22114 5.35935 10.5727C5.39002 10.8738 5.4635 11.1143 5.61437 11.3561C5.85548 11.7422 6.05129 12.1734 6.26209 12.5775C6.26066 12.582 6.27992 12.5472 6.28456 12.5097C6.49535 10.891 6.7436 9.27764 6.89839 7.64985C6.97187 6.87551 6.88377 6.07224 6.83812 5.28524C6.80637 4.74098 6.72148 4.20125 6.63267 3.66377C6.7839 4.91908 6.8424 6.17982 6.81707 7.4835C6.40369 7.22584 6.05379 6.91167 5.75454 6.51071C5.03763 5.55058 4.85252 4.37709 4.95987 3.11635C5.02978 2.29455 5.16639 1.48178 5.2659 0.664045C5.29194 0.449778 5.29194 0.230992 5.30478 0C5.3276 0.00271223 5.35649 -0.00180816 5.38111 0.00949281C6.75537 0.636018 7.70305 1.78781 8.04224 3.62038C8.28121 4.91185 7.95415 6.05054 7.28824 7.03237C7.10633 7.30043 7.03108 7.56442 7.00575 7.90977C6.88092 9.59633 6.73218 11.2797 6.59094 12.9645C6.56348 13.2931 6.5328 13.6213 6.49928 13.9978C6.55706 13.9287 6.58916 13.8921 6.61983 13.8532C6.89233 13.5065 7.16019 13.1539 7.43911 12.8153C7.53541 12.6987 7.58428 12.5861 7.58927 12.4107C7.61959 11.3344 7.84286 10.3399 8.44029 9.53666C9.15613 8.57427 10.0689 8.22394 11.085 8.24383C11.7178 8.25649 12.3205 8.44408 12.8823 8.82154C12.9329 8.85544 12.9811 8.89612 13 8.91059C12.7111 9.38839 12.4211 9.85218 12.1451 10.3282C11.7495 11.0094 11.3443 11.6766 10.8057 12.1915C9.92013 13.0382 8.94784 13.1792 7.87568 12.7638C8.70922 11.7629 9.59092 10.8941 10.5418 10.1288C10.5022 10.1514 10.4608 10.17 10.423 10.1966C8.9029 11.2738 7.63136 12.7168 6.55349 14.4408C6.495 14.5344 6.44863 14.6673 6.44506 14.7844C6.42259 15.4688 6.4069 16.1536 6.40511 16.8384C6.40404 17.1937 6.71328 17.4758 6.97971 17.3845C7.64277 17.1576 8.38536 17.5576 8.63218 18.2723C8.65108 18.327 8.7242 18.3677 8.77806 18.3844C9.02345 18.4604 9.27027 18.5295 9.51816 18.5914C9.58842 18.6091 9.66867 18.6154 9.73644 18.5914C10.4066 18.3537 11.1246 18.6855 11.4046 19.3848C11.4749 19.5597 11.5045 19.7609 11.5619 19.9864C11.4563 19.9928 11.3935 20 11.3311 20C8.15139 19.981 4.972 19.9616 1.79226 19.9421C1.59431 19.9408 1.56542 19.8969 1.59395 19.6479C1.67456 18.9431 2.20885 18.3758 2.8448 18.3614C3.0399 18.3568 3.16688 18.2832 3.30134 18.1114C3.58882 17.7443 3.95762 17.6074 4.36066 17.6336C4.47979 17.6413 4.5522 17.597 4.63031 17.4812C4.87748 17.1133 5.20491 16.9334 5.58191 16.8954C5.65681 16.8859 5.73386 16.8927 5.82445 16.8927Z" fill="white"/>
</svg>
