<svg width="20" height="18" viewBox="0 0 20 18" fill="none" xmlns="http://www.w3.org/2000/svg">
<path d="M0.039767 3.80868C0.419964 0.402757 4.00015 -0.13336 5.74272 0.0243211H10.4951C12.7763 0.0243211 13.6634 1.60113 13.8218 2.38953H16.198C17.4654 2.38953 20 2.67336 20 3.80868C20 4.94399 17.7822 5.22781 16.6733 5.2278C16.5149 5.85853 16.0079 7.11998 15.2475 7.11998C14.4872 7.11998 13.9802 5.85853 13.8218 5.2278H13.3466C12.9664 7.87685 9.38618 8.53911 7.64361 8.53911C7.64361 9.16984 7.64944 9.22265 8.76788 9C10.1379 8.72727 8.53672 10.5937 8.21989 10.9091C6.9526 11.8552 6.12289 14.2156 7.64361 14.2156C9.54451 14.2156 10.4951 15.1617 10.4951 16.5809C10.4951 17.7162 9.54459 18 9.06935 18H1.94066C0.800006 18 0.198125 17.0539 0.039767 16.5809C0.039767 16.2655 0.419946 15.2563 1.94066 13.7426C3.46138 12.2289 3.52484 9.64288 3.36649 8.53911C2.09916 8.38143 -0.34043 7.2146 0.039767 3.80868Z" fill="white"/>
</svg>
