<svg width="17" height="20" viewBox="0 0 17 20" fill="none" xmlns="http://www.w3.org/2000/svg">
<path d="M15.563 10.3939C15.3206 10.5753 15.0759 10.7544 14.8352 10.9391C14.2273 11.4056 13.6381 11.8978 13.0075 12.3314C12.7287 12.5233 12.3786 12.6566 12.043 12.7128C11.4943 12.8059 11.1669 12.4638 11.286 11.9275C11.3776 11.5148 11.5138 11.0932 11.7237 10.7287C12.3786 9.5909 13.0821 8.48043 13.7564 7.35309C13.9412 7.04396 14.1 6.71716 14.2459 6.38795C14.2856 6.29802 14.2362 6.16955 14.2281 6.05794C14.1179 6.08524 13.972 6.07801 13.9039 6.14706C13.5165 6.5373 13.1445 6.94278 12.7733 7.34827C12.0843 8.10063 11.4165 8.87307 10.7041 9.60214C10.4585 9.85347 10.1262 10.0534 9.79631 10.1835C9.20871 10.4155 8.74834 10.1072 8.82939 9.49053C8.91855 8.80883 9.08551 8.1191 9.34163 7.48156C9.88952 6.11575 10.5201 4.78205 11.1085 3.4323C11.2098 3.20025 11.2933 2.95535 11.3427 2.70884C11.3703 2.56913 11.3119 2.41336 11.2925 2.26482C11.1409 2.32022 10.9375 2.33307 10.8459 2.43986C10.5768 2.75381 10.3183 3.08623 10.1148 3.44515C9.39998 4.70337 8.73132 5.98808 7.99945 7.23666C7.70443 7.73931 7.31944 8.2018 6.91419 8.62415C6.74642 8.79839 6.37278 8.94453 6.1734 8.87548C5.9805 8.80803 5.77059 8.44429 5.77869 8.21706C5.8103 7.27199 5.88 6.32452 6.01373 5.38828C6.15962 4.37014 6.3971 3.36485 6.58108 2.35153C6.62566 2.10744 6.61674 1.85451 6.63214 1.6056C6.59243 1.5807 6.55352 1.55662 6.51381 1.53172C6.37359 1.66742 6.18313 1.77903 6.10127 1.94283C5.73168 2.68395 5.3005 3.41303 5.06221 4.19751C4.6286 5.62836 4.30359 7.09213 3.96399 8.54948C3.90158 8.81847 3.81324 8.91803 3.54173 8.96862C3.10811 9.05052 2.68746 9.19906 2.21494 9.33235C2.25061 9.073 2.27411 8.82489 2.32031 8.5808C2.76851 6.24422 3.40151 3.96546 4.62455 1.89546C4.91389 1.40566 5.3159 0.976888 5.69521 0.544903C5.84029 0.379496 6.05345 0.256645 6.25769 0.160291C7.03172 -0.20505 7.58772 0.0607257 7.76846 0.89017C7.98729 1.89466 7.79115 2.88871 7.62905 3.87794C7.53422 4.45606 7.39725 5.02695 7.35186 5.63237C7.43453 5.47339 7.50991 5.31039 7.59987 5.15623C8.1891 4.15174 8.7524 3.12959 9.38783 2.15401C9.65205 1.74852 10.0378 1.39442 10.4366 1.11178C10.726 0.907032 11.1223 0.77856 11.4805 0.755275C12.1743 0.709507 12.629 1.13105 12.7198 1.81677C12.83 2.65184 12.6079 3.44595 12.3088 4.20554C11.9474 5.12652 11.5146 6.0194 11.1085 6.92271C11.0283 7.10177 10.9318 7.2736 10.9002 7.4912C11.1101 7.24549 11.3055 6.98534 11.5324 6.7565C12.0795 6.20407 12.6063 5.62194 13.2109 5.13776C13.5497 4.86636 14.0133 4.67928 14.4469 4.60621C15.135 4.48978 15.6173 4.96673 15.6197 5.66208C15.6222 6.43452 15.3255 7.12987 14.9705 7.7923C14.4923 8.68518 13.9712 9.55557 13.5027 10.4822C13.6535 10.3465 13.7961 10.1995 13.9574 10.0767C14.4259 9.71777 14.87 9.31067 15.3822 9.02804C16.3467 8.49568 17.0024 8.9084 17 9.99719C16.9984 10.9527 16.7115 11.8472 16.3297 12.7071C15.0799 15.5223 13.2515 17.846 10.3734 19.1644C7.81709 20.3351 5.22188 20.2741 2.71826 18.991C0.581798 17.8966 -0.485624 15.4283 0.213022 13.2355C0.824946 11.314 2.30329 10.3457 4.22902 9.99398C5.24944 9.8077 6.25364 9.93376 7.18652 10.4075C8.30176 10.9736 8.47926 11.9644 7.62905 12.8701C6.88258 13.6643 5.91648 14.1195 4.90984 14.4841C4.46974 14.6438 4.07179 14.4142 3.9413 14.0039C3.81243 13.5984 4.0029 13.319 4.46164 13.1118C5.04844 12.8469 5.6247 12.5554 6.18232 12.235C6.32496 12.1531 6.47491 11.8954 6.44411 11.7573C6.41169 11.6119 6.18394 11.4626 6.01049 11.404C4.8604 11.0113 3.04813 11.6183 2.25466 12.6405C1.44984 13.6771 1.40607 15.0855 2.15497 16.2497C2.93791 17.4678 4.12528 18.0363 5.51447 18.2563C7.61689 18.5895 9.51264 18.07 11.2001 16.8174C13.1963 15.336 14.592 13.3937 15.5184 11.1117C15.6003 10.9101 15.64 10.6925 15.6991 10.4822C15.653 10.4525 15.6076 10.4236 15.563 10.3939Z" fill="white"/>
</svg>
